<svg width="38" height="34" viewBox="0 0 38 34" fill="none" xmlns="http://www.w3.org/2000/svg">
<path d="M34.9051 13.5079C33.8844 12.677 32.6304 12.0671 31.3065 11.7381C31.0891 11.6844 30.8901 11.5639 30.7328 11.3907C30.5754 11.2175 30.4662 10.9987 30.4178 10.7599C29.8491 7.97825 28.6251 5.59284 26.8258 3.78537C24.7341 1.68092 21.9681 0.523438 19.0366 0.523438C16.4595 0.523438 14.0791 1.41036 12.1566 3.08896C10.8537 4.2284 9.80492 5.67944 9.09026 7.33147C9.01277 7.51223 8.89785 7.67058 8.75468 7.79386C8.61151 7.91715 8.44406 8.00195 8.26571 8.04149C6.31551 8.47375 4.55486 9.39189 3.2105 10.6927C1.35434 12.4937 0.373047 14.8879 0.373047 17.6216C0.373047 20.3848 1.42944 22.9047 3.34683 24.7266C5.17819 26.4628 7.64383 27.4194 10.2881 27.4194H17.8702V15.1425L15.1953 18.0794C15.0836 18.202 14.9504 18.2985 14.8038 18.3629C14.6572 18.4273 14.5002 18.4583 14.3423 18.4541C14.1844 18.45 14.029 18.4106 13.8854 18.3385C13.7417 18.2664 13.613 18.163 13.5068 18.0346C13.084 17.5247 13.1248 16.7298 13.5688 16.2423L18.2121 11.1449C18.4308 10.9049 18.7274 10.7701 19.0366 10.7701C19.3459 10.7701 19.6425 10.9049 19.8612 11.1449L24.5045 16.2407C24.9623 16.7442 24.9886 17.5695 24.5329 18.0746C24.4248 18.1945 24.2962 18.2898 24.1545 18.3549C24.0128 18.4201 23.8607 18.4538 23.7071 18.4543C23.5535 18.4547 23.4012 18.4218 23.2592 18.3575C23.1172 18.2932 22.9881 18.1987 22.8794 18.0794L20.2031 15.1425V27.4194H29.2433C31.5281 27.4194 33.611 26.7149 35.1085 25.4366C36.8042 23.9877 37.7002 21.9145 37.7002 19.4466C37.7002 17.05 36.7335 14.9952 34.9051 13.5079ZM17.8702 32.576C17.8702 32.9157 17.9931 33.2415 18.2118 33.4817C18.4306 33.7218 18.7273 33.8568 19.0366 33.8568C19.346 33.8568 19.6427 33.7218 19.8615 33.4817C20.0802 33.2415 20.2031 32.9157 20.2031 32.576V27.4194H17.8702V32.576Z" fill="#105F62"/>
</svg>
