<svg width="26" height="26" viewBox="0 0 26 26" fill="none" xmlns="http://www.w3.org/2000/svg">
<g clip-path="url(#clip0_1388_6996)">
<path d="M21.125 3.25H4.875C4.44402 3.25 4.0307 3.4212 3.72595 3.72595C3.4212 4.0307 3.25 4.44402 3.25 4.875V21.125C3.25 21.556 3.4212 21.9693 3.72595 22.274C4.0307 22.5788 4.44402 22.75 4.875 22.75H21.125C21.556 22.75 21.9693 22.5788 22.274 22.274C22.5788 21.9693 22.75 21.556 22.75 21.125V4.875C22.75 4.44402 22.5788 4.0307 22.274 3.72595C21.9693 3.4212 21.556 3.25 21.125 3.25ZM17.0625 13.8125H10.8987L12.7623 15.6752C12.8378 15.7506 12.8977 15.8403 12.9386 15.9389C12.9794 16.0375 13.0005 16.1432 13.0005 16.25C13.0005 16.3568 12.9794 16.4625 12.9386 16.5611C12.8977 16.6597 12.8378 16.7494 12.7623 16.8248C12.6869 16.9003 12.5972 16.9602 12.4986 17.0011C12.4 17.0419 12.2943 17.063 12.1875 17.063C12.0807 17.063 11.975 17.0419 11.8764 17.0011C11.7778 16.9602 11.6881 16.9003 11.6127 16.8248L8.36266 13.5748C8.28711 13.4994 8.22718 13.4098 8.1863 13.3111C8.14541 13.2125 8.12436 13.1068 8.12436 13C8.12436 12.8932 8.14541 12.7875 8.1863 12.6889C8.22718 12.5902 8.28711 12.5006 8.36266 12.4252L11.6127 9.17516C11.7651 9.0227 11.9719 8.93705 12.1875 8.93705C12.4031 8.93705 12.6099 9.0227 12.7623 9.17516C12.9148 9.32761 13.0005 9.53439 13.0005 9.75C13.0005 9.96561 12.9148 10.1724 12.7623 10.3248L10.8987 12.1875H17.0625C17.278 12.1875 17.4847 12.2731 17.637 12.4255C17.7894 12.5778 17.875 12.7845 17.875 13C17.875 13.2155 17.7894 13.4222 17.637 13.5745C17.4847 13.7269 17.278 13.8125 17.0625 13.8125Z" fill="#3EA089"/>
</g>
<defs>
<clipPath id="clip0_1388_6996">
<rect width="26" height="26" fill="white"/>
</clipPath>
</defs>
</svg>
