<svg width="303" height="266" viewBox="0 0 303 266" fill="none" xmlns="http://www.w3.org/2000/svg">
<path d="M176.194 213.094C186.218 213.553 204.297 209.688 212.969 204.714C233.675 194.694 244.765 179.508 249.763 170.867L176.5 128.586L176.194 213.094Z" fill="#91D4C4"/>
<path d="M224.931 100.243L178.214 128.209L225.221 155.377C231.393 144.472 232.258 135.165 232.329 126.63C231.968 118.676 230.281 112.152 228.561 107.537C227.701 105.228 226.833 103.399 226.122 102.111C225.766 101.466 225.451 100.961 225.199 100.601C225.097 100.456 225.007 100.337 224.931 100.243Z" fill="#EDF8F5" stroke="#B6E2D8"/>
<path d="M179.804 149.28C179.204 149.28 178.708 149.248 178.316 149.184C177.932 149.112 177.628 148.988 177.404 148.812C177.188 148.636 177.028 148.392 176.924 148.08C176.828 147.76 176.764 147.356 176.732 146.868C176.708 146.372 176.696 145.768 176.696 145.056C176.696 144.344 176.708 143.744 176.732 143.256C176.764 142.76 176.828 142.356 176.924 142.044C177.028 141.724 177.188 141.476 177.404 141.3C177.628 141.124 177.932 141.004 178.316 140.94C178.708 140.868 179.204 140.832 179.804 140.832C180.404 140.832 180.896 140.868 181.28 140.94C181.672 141.004 181.976 141.124 182.192 141.3C182.416 141.476 182.58 141.724 182.684 142.044C182.788 142.356 182.852 142.76 182.876 143.256C182.9 143.744 182.912 144.344 182.912 145.056C182.912 145.768 182.9 146.372 182.876 146.868C182.852 147.356 182.788 147.76 182.684 148.08C182.58 148.392 182.416 148.636 182.192 148.812C181.976 148.988 181.672 149.112 181.28 149.184C180.896 149.248 180.404 149.28 179.804 149.28ZM179.804 148.392C180.212 148.392 180.544 148.38 180.8 148.356C181.056 148.324 181.256 148.256 181.4 148.152C181.552 148.048 181.66 147.876 181.724 147.636C181.796 147.396 181.84 147.068 181.856 146.652C181.88 146.236 181.892 145.704 181.892 145.056C181.892 144.408 181.88 143.876 181.856 143.46C181.84 143.044 181.796 142.716 181.724 142.476C181.66 142.236 181.552 142.064 181.4 141.96C181.256 141.856 181.056 141.792 180.8 141.768C180.544 141.736 180.212 141.72 179.804 141.72C179.412 141.72 179.084 141.736 178.82 141.768C178.556 141.792 178.348 141.856 178.196 141.96C178.052 142.064 177.944 142.236 177.872 142.476C177.808 142.716 177.768 143.044 177.752 143.46C177.736 143.876 177.728 144.408 177.728 145.056C177.728 145.704 177.736 146.236 177.752 146.652C177.768 147.068 177.808 147.396 177.872 147.636C177.944 147.876 178.052 148.048 178.196 148.152C178.348 148.256 178.552 148.324 178.808 148.356C179.072 148.38 179.404 148.392 179.804 148.392Z" fill="#5B5B5B"/>
<path d="M176.624 180V179.04C176.624 178.584 176.632 178.204 176.648 177.9C176.672 177.588 176.728 177.332 176.816 177.132C176.904 176.932 177.04 176.76 177.224 176.616C177.416 176.472 177.684 176.328 178.028 176.184L180.2 175.26C180.488 175.132 180.704 175.012 180.848 174.9C180.992 174.788 181.088 174.652 181.136 174.492C181.192 174.332 181.22 174.12 181.22 173.856C181.22 173.472 181.16 173.188 181.04 173.004C180.928 172.812 180.724 172.688 180.428 172.632C180.14 172.568 179.728 172.536 179.192 172.536C179 172.536 178.764 172.544 178.484 172.56C178.212 172.576 177.928 172.596 177.632 172.62C177.336 172.636 177.056 172.66 176.792 172.692V171.852C177.024 171.812 177.292 171.78 177.596 171.756C177.908 171.724 178.228 171.7 178.556 171.684C178.892 171.66 179.208 171.648 179.504 171.648C179.888 171.648 180.244 171.668 180.572 171.708C180.9 171.748 181.192 171.836 181.448 171.972C181.704 172.108 181.9 172.32 182.036 172.608C182.18 172.888 182.252 173.268 182.252 173.748C182.252 174.228 182.2 174.612 182.096 174.9C182 175.18 181.84 175.408 181.616 175.584C181.4 175.752 181.112 175.912 180.752 176.064L178.28 177.108C178.072 177.196 177.92 177.296 177.824 177.408C177.736 177.52 177.68 177.668 177.656 177.852C177.632 178.028 177.62 178.256 177.62 178.536V179.1H182.252V180H176.624ZM187.128 180.096C186.528 180.096 186.032 180.064 185.64 180C185.256 179.928 184.952 179.804 184.728 179.628C184.512 179.452 184.352 179.208 184.248 178.896C184.152 178.576 184.088 178.172 184.056 177.684C184.032 177.188 184.02 176.584 184.02 175.872C184.02 175.16 184.032 174.56 184.056 174.072C184.088 173.576 184.152 173.172 184.248 172.86C184.352 172.54 184.512 172.292 184.728 172.116C184.952 171.94 185.256 171.82 185.64 171.756C186.032 171.684 186.528 171.648 187.128 171.648C187.728 171.648 188.22 171.684 188.604 171.756C188.996 171.82 189.3 171.94 189.516 172.116C189.74 172.292 189.904 172.54 190.008 172.86C190.112 173.172 190.176 173.576 190.2 174.072C190.224 174.56 190.236 175.16 190.236 175.872C190.236 176.584 190.224 177.188 190.2 177.684C190.176 178.172 190.112 178.576 190.008 178.896C189.904 179.208 189.74 179.452 189.516 179.628C189.3 179.804 188.996 179.928 188.604 180C188.22 180.064 187.728 180.096 187.128 180.096ZM187.128 179.208C187.536 179.208 187.868 179.196 188.124 179.172C188.38 179.14 188.58 179.072 188.724 178.968C188.876 178.864 188.984 178.692 189.048 178.452C189.12 178.212 189.164 177.884 189.18 177.468C189.204 177.052 189.216 176.52 189.216 175.872C189.216 175.224 189.204 174.692 189.18 174.276C189.164 173.86 189.12 173.532 189.048 173.292C188.984 173.052 188.876 172.88 188.724 172.776C188.58 172.672 188.38 172.608 188.124 172.584C187.868 172.552 187.536 172.536 187.128 172.536C186.736 172.536 186.408 172.552 186.144 172.584C185.88 172.608 185.672 172.672 185.52 172.776C185.376 172.88 185.268 173.052 185.196 173.292C185.132 173.532 185.092 173.86 185.076 174.276C185.06 174.692 185.052 175.224 185.052 175.872C185.052 176.52 185.06 177.052 185.076 177.468C185.092 177.884 185.132 178.212 185.196 178.452C185.268 178.692 185.376 178.864 185.52 178.968C185.672 179.072 185.876 179.14 186.132 179.172C186.396 179.196 186.728 179.208 187.128 179.208Z" fill="#5B5B5B"/>
<path d="M180.692 203.184V201.252H176.336V200.46L179.564 194.928H180.704L177.488 200.364H180.704L180.92 197.424H181.724V200.364H182.948V201.252H181.724V203.184H180.692ZM187.503 203.28C186.903 203.28 186.407 203.248 186.015 203.184C185.631 203.112 185.327 202.988 185.103 202.812C184.887 202.636 184.727 202.392 184.623 202.08C184.527 201.76 184.463 201.356 184.431 200.868C184.407 200.372 184.395 199.768 184.395 199.056C184.395 198.344 184.407 197.744 184.431 197.256C184.463 196.76 184.527 196.356 184.623 196.044C184.727 195.724 184.887 195.476 185.103 195.3C185.327 195.124 185.631 195.004 186.015 194.94C186.407 194.868 186.903 194.832 187.503 194.832C188.103 194.832 188.595 194.868 188.979 194.94C189.371 195.004 189.675 195.124 189.891 195.3C190.115 195.476 190.279 195.724 190.383 196.044C190.487 196.356 190.551 196.76 190.575 197.256C190.599 197.744 190.611 198.344 190.611 199.056C190.611 199.768 190.599 200.372 190.575 200.868C190.551 201.356 190.487 201.76 190.383 202.08C190.279 202.392 190.115 202.636 189.891 202.812C189.675 202.988 189.371 203.112 188.979 203.184C188.595 203.248 188.103 203.28 187.503 203.28ZM187.503 202.392C187.911 202.392 188.243 202.38 188.499 202.356C188.755 202.324 188.955 202.256 189.099 202.152C189.251 202.048 189.359 201.876 189.423 201.636C189.495 201.396 189.539 201.068 189.555 200.652C189.579 200.236 189.591 199.704 189.591 199.056C189.591 198.408 189.579 197.876 189.555 197.46C189.539 197.044 189.495 196.716 189.423 196.476C189.359 196.236 189.251 196.064 189.099 195.96C188.955 195.856 188.755 195.792 188.499 195.768C188.243 195.736 187.911 195.72 187.503 195.72C187.111 195.72 186.783 195.736 186.519 195.768C186.255 195.792 186.047 195.856 185.895 195.96C185.751 196.064 185.643 196.236 185.571 196.476C185.507 196.716 185.467 197.044 185.451 197.46C185.435 197.876 185.427 198.408 185.427 199.056C185.427 199.704 185.435 200.236 185.451 200.652C185.467 201.068 185.507 201.396 185.571 201.636C185.643 201.876 185.751 202.048 185.895 202.152C186.047 202.256 186.251 202.324 186.507 202.356C186.771 202.38 187.103 202.392 187.503 202.392Z" fill="#5B5B5B"/>
<path d="M179.948 232.096C179.396 232.096 178.924 232.068 178.532 232.012C178.148 231.964 177.828 231.856 177.572 231.688C177.324 231.512 177.132 231.244 176.996 230.884C176.916 230.7 176.856 230.472 176.816 230.2C176.776 229.928 176.744 229.608 176.72 229.24C176.704 228.864 176.696 228.436 176.696 227.956C176.696 227.516 176.704 227.116 176.72 226.756C176.744 226.396 176.776 226.076 176.816 225.796C176.864 225.516 176.924 225.268 176.996 225.052C177.132 224.676 177.328 224.388 177.584 224.188C177.84 223.988 178.168 223.848 178.568 223.768C178.968 223.688 179.456 223.648 180.032 223.648C180.24 223.648 180.48 223.66 180.752 223.684C181.032 223.7 181.32 223.724 181.616 223.756C181.92 223.788 182.208 223.824 182.48 223.864V224.692C182.232 224.66 181.968 224.636 181.688 224.62C181.416 224.596 181.152 224.576 180.896 224.56C180.648 224.544 180.432 224.536 180.248 224.536C179.688 224.536 179.24 224.576 178.904 224.656C178.576 224.736 178.328 224.884 178.16 225.1C177.992 225.316 177.88 225.632 177.824 226.048C177.768 226.456 177.74 226.996 177.74 227.668H177.812C177.9 227.572 178.024 227.48 178.184 227.392C178.344 227.296 178.576 227.22 178.88 227.164C179.192 227.1 179.608 227.068 180.128 227.068C180.632 227.068 181.064 227.096 181.424 227.152C181.784 227.208 182.076 227.316 182.3 227.476C182.524 227.636 182.684 227.868 182.78 228.172C182.884 228.476 182.936 228.88 182.936 229.384C182.936 229.912 182.896 230.352 182.816 230.704C182.744 231.056 182.6 231.332 182.384 231.532C182.168 231.732 181.864 231.876 181.472 231.964C181.08 232.052 180.572 232.096 179.948 232.096ZM179.852 231.208C180.268 231.208 180.612 231.192 180.884 231.16C181.156 231.128 181.368 231.06 181.52 230.956C181.672 230.844 181.776 230.684 181.832 230.476C181.888 230.268 181.916 229.98 181.916 229.612C181.916 229.228 181.888 228.924 181.832 228.7C181.776 228.476 181.676 228.312 181.532 228.208C181.388 228.096 181.18 228.028 180.908 228.004C180.636 227.972 180.284 227.956 179.852 227.956C179.38 227.956 179.004 227.98 178.724 228.028C178.444 228.076 178.236 228.156 178.1 228.268C177.972 228.372 177.884 228.508 177.836 228.676C177.796 228.844 177.776 229.048 177.776 229.288C177.776 229.728 177.808 230.076 177.872 230.332C177.944 230.588 178.056 230.78 178.208 230.908C178.368 231.036 178.58 231.12 178.844 231.16C179.108 231.192 179.444 231.208 179.852 231.208ZM187.691 232.096C187.091 232.096 186.595 232.064 186.203 232C185.819 231.928 185.515 231.804 185.291 231.628C185.075 231.452 184.915 231.208 184.811 230.896C184.715 230.576 184.651 230.172 184.619 229.684C184.595 229.188 184.583 228.584 184.583 227.872C184.583 227.16 184.595 226.56 184.619 226.072C184.651 225.576 184.715 225.172 184.811 224.86C184.915 224.54 185.075 224.292 185.291 224.116C185.515 223.94 185.819 223.82 186.203 223.756C186.595 223.684 187.091 223.648 187.691 223.648C188.291 223.648 188.783 223.684 189.167 223.756C189.559 223.82 189.863 223.94 190.079 224.116C190.303 224.292 190.467 224.54 190.571 224.86C190.675 225.172 190.739 225.576 190.763 226.072C190.787 226.56 190.799 227.16 190.799 227.872C190.799 228.584 190.787 229.188 190.763 229.684C190.739 230.172 190.675 230.576 190.571 230.896C190.467 231.208 190.303 231.452 190.079 231.628C189.863 231.804 189.559 231.928 189.167 232C188.783 232.064 188.291 232.096 187.691 232.096ZM187.691 231.208C188.099 231.208 188.431 231.196 188.687 231.172C188.943 231.14 189.143 231.072 189.287 230.968C189.439 230.864 189.547 230.692 189.611 230.452C189.683 230.212 189.727 229.884 189.743 229.468C189.767 229.052 189.779 228.52 189.779 227.872C189.779 227.224 189.767 226.692 189.743 226.276C189.727 225.86 189.683 225.532 189.611 225.292C189.547 225.052 189.439 224.88 189.287 224.776C189.143 224.672 188.943 224.608 188.687 224.584C188.431 224.552 188.099 224.536 187.691 224.536C187.299 224.536 186.971 224.552 186.707 224.584C186.443 224.608 186.235 224.672 186.083 224.776C185.939 224.88 185.831 225.052 185.759 225.292C185.695 225.532 185.655 225.86 185.639 226.276C185.623 226.692 185.615 227.224 185.615 227.872C185.615 228.52 185.623 229.052 185.639 229.468C185.655 229.884 185.695 230.212 185.759 230.452C185.831 230.692 185.939 230.864 186.083 230.968C186.235 231.072 186.439 231.14 186.695 231.172C186.959 231.196 187.291 231.208 187.691 231.208Z" fill="#5B5B5B"/>
<path d="M179.876 256.28C179.204 256.28 178.656 256.232 178.232 256.136C177.808 256.032 177.484 255.884 177.26 255.692C177.036 255.492 176.88 255.252 176.792 254.972C176.712 254.684 176.672 254.352 176.672 253.976C176.672 253.504 176.728 253.14 176.84 252.884C176.96 252.62 177.132 252.424 177.356 252.296C177.58 252.168 177.852 252.068 178.172 251.996V251.948C177.684 251.852 177.324 251.656 177.092 251.36C176.86 251.056 176.744 250.604 176.744 250.004C176.744 249.636 176.792 249.316 176.888 249.044C176.984 248.772 177.148 248.548 177.38 248.372C177.612 248.188 177.932 248.052 178.34 247.964C178.748 247.876 179.26 247.832 179.876 247.832C180.492 247.832 181.004 247.876 181.412 247.964C181.82 248.052 182.14 248.188 182.372 248.372C182.604 248.548 182.768 248.772 182.864 249.044C182.96 249.316 183.008 249.636 183.008 250.004C183.008 250.604 182.892 251.056 182.66 251.36C182.428 251.656 182.068 251.852 181.58 251.948V251.996C181.908 252.068 182.18 252.168 182.396 252.296C182.62 252.424 182.788 252.62 182.9 252.884C183.02 253.14 183.08 253.504 183.08 253.976C183.08 254.352 183.036 254.684 182.948 254.972C182.868 255.252 182.712 255.492 182.48 255.692C182.256 255.884 181.936 256.032 181.52 256.136C181.104 256.232 180.556 256.28 179.876 256.28ZM179.876 255.392C180.428 255.392 180.86 255.36 181.172 255.296C181.484 255.224 181.704 255.084 181.832 254.876C181.968 254.668 182.036 254.356 182.036 253.94C182.036 253.612 182.004 253.352 181.94 253.16C181.876 252.96 181.764 252.808 181.604 252.704C181.452 252.6 181.236 252.532 180.956 252.5C180.676 252.468 180.316 252.452 179.876 252.452C179.436 252.452 179.076 252.468 178.796 252.5C178.516 252.532 178.296 252.6 178.136 252.704C177.984 252.808 177.876 252.96 177.812 253.16C177.756 253.352 177.728 253.612 177.728 253.94C177.728 254.356 177.792 254.668 177.92 254.876C178.048 255.084 178.268 255.224 178.58 255.296C178.892 255.36 179.324 255.392 179.876 255.392ZM179.876 251.564C180.444 251.564 180.876 251.528 181.172 251.456C181.468 251.376 181.672 251.236 181.784 251.036C181.904 250.828 181.964 250.532 181.964 250.148C181.964 249.764 181.908 249.472 181.796 249.272C181.692 249.064 181.488 248.92 181.184 248.84C180.888 248.76 180.452 248.72 179.876 248.72C179.3 248.72 178.86 248.76 178.556 248.84C178.26 248.92 178.06 249.064 177.956 249.272C177.852 249.472 177.8 249.764 177.8 250.148C177.8 250.532 177.856 250.828 177.968 251.036C178.08 251.236 178.284 251.376 178.58 251.456C178.884 251.528 179.316 251.564 179.876 251.564ZM187.996 256.28C187.396 256.28 186.9 256.248 186.508 256.184C186.124 256.112 185.82 255.988 185.596 255.812C185.38 255.636 185.22 255.392 185.116 255.08C185.02 254.76 184.956 254.356 184.924 253.868C184.9 253.372 184.888 252.768 184.888 252.056C184.888 251.344 184.9 250.744 184.924 250.256C184.956 249.76 185.02 249.356 185.116 249.044C185.22 248.724 185.38 248.476 185.596 248.3C185.82 248.124 186.124 248.004 186.508 247.94C186.9 247.868 187.396 247.832 187.996 247.832C188.596 247.832 189.088 247.868 189.472 247.94C189.864 248.004 190.168 248.124 190.384 248.3C190.608 248.476 190.772 248.724 190.876 249.044C190.98 249.356 191.044 249.76 191.068 250.256C191.092 250.744 191.104 251.344 191.104 252.056C191.104 252.768 191.092 253.372 191.068 253.868C191.044 254.356 190.98 254.76 190.876 255.08C190.772 255.392 190.608 255.636 190.384 255.812C190.168 255.988 189.864 256.112 189.472 256.184C189.088 256.248 188.596 256.28 187.996 256.28ZM187.996 255.392C188.404 255.392 188.736 255.38 188.992 255.356C189.248 255.324 189.448 255.256 189.592 255.152C189.744 255.048 189.852 254.876 189.916 254.636C189.988 254.396 190.032 254.068 190.048 253.652C190.072 253.236 190.084 252.704 190.084 252.056C190.084 251.408 190.072 250.876 190.048 250.46C190.032 250.044 189.988 249.716 189.916 249.476C189.852 249.236 189.744 249.064 189.592 248.96C189.448 248.856 189.248 248.792 188.992 248.768C188.736 248.736 188.404 248.72 187.996 248.72C187.604 248.72 187.276 248.736 187.012 248.768C186.748 248.792 186.54 248.856 186.388 248.96C186.244 249.064 186.136 249.236 186.064 249.476C186 249.716 185.96 250.044 185.944 250.46C185.928 250.876 185.92 251.408 185.92 252.056C185.92 252.704 185.928 253.236 185.944 253.652C185.96 254.068 186 254.396 186.064 254.636C186.136 254.876 186.244 255.048 186.388 255.152C186.54 255.256 186.744 255.324 187 255.356C187.264 255.38 187.596 255.392 187.996 255.392Z" fill="#5B5B5B"/>
<path d="M175.894 240.18C151.142 240.18 130.525 232.856 120.574 227.502C96.7377 214.676 85.9411 198.705 79.6285 188.602L104.988 173.432L128.826 159.273L175.487 131.462L175.894 240.18Z" fill="#3EA089"/>
<path d="M58.817 199.821C42.4543 174.706 40.9237 149.541 40.4922 135.875C39.6248 108.397 49.4496 79.6214 61.1174 62.4785L177.012 129.959L58.817 199.821Z" fill="#2B6E5E"/>
<path d="M177.008 98.0873C193.535 98.0873 206.932 111.445 206.932 127.922C206.932 144.399 193.535 157.756 177.008 157.756C160.481 157.756 147.084 144.399 147.084 127.922C147.084 111.445 160.481 98.0873 177.008 98.0873Z" stroke="#B6E2D8"/>
<path d="M175.487 71.7941C207.42 71.7941 233.307 97.6031 233.307 129.44C233.307 161.277 207.42 187.086 175.487 187.086C143.555 187.086 117.668 161.277 117.668 129.44C117.668 97.6031 143.555 71.7941 175.487 71.7941Z" stroke="#B6E2D8"/>
<path d="M176.501 47.5206C222.439 47.5206 259.68 84.6492 259.68 130.45C259.68 176.25 222.439 213.379 176.501 213.379C130.563 213.379 93.3223 176.25 93.3223 130.45C93.3223 84.6492 130.563 47.5206 176.501 47.5206Z" stroke="#B6E2D8"/>
<path d="M171.936 22.2376C232.16 22.2376 280.981 70.9123 280.981 130.956C280.981 190.999 232.16 239.674 171.936 239.674C111.712 239.674 62.8906 190.999 62.8906 130.956C62.8906 70.9123 111.712 22.2376 171.936 22.2376Z" stroke="#B6E2D8"/>
<path d="M170.922 1.00073C243.471 1.00073 302.283 59.6368 302.283 131.968C302.283 204.299 243.471 262.936 170.922 262.936C98.373 262.936 39.5605 204.299 39.5605 131.968C39.5605 59.6368 98.373 1.00073 170.922 1.00073Z" stroke="#B6E2D8"/>
<path d="M172.784 135L172.784 265.383" stroke="#E1E1E1"/>
</svg>
