<svg width="18" height="18" viewBox="0 0 18 18" fill="none" xmlns="http://www.w3.org/2000/svg">
<g clip-path="url(#clip0_1392_19751)">
<path d="M15.1446 6.53484C15.1021 6.43205 15.03 6.34419 14.9375 6.28236C14.845 6.22054 14.7363 6.18752 14.625 6.1875H3.37502C3.2637 6.18741 3.15486 6.22036 3.06228 6.28216C2.96969 6.34396 2.89753 6.43184 2.85492 6.53468C2.8123 6.63752 2.80116 6.75069 2.82291 6.85986C2.84465 6.96903 2.89829 7.0693 2.97705 7.14797L8.60205 12.773C8.65429 12.8253 8.71633 12.8668 8.78461 12.8951C8.8529 12.9234 8.92609 12.9379 9.00002 12.9379C9.07394 12.9379 9.14713 12.9234 9.21542 12.8951C9.28371 12.8668 9.34574 12.8253 9.39798 12.773L15.023 7.14797C15.1016 7.06926 15.1552 6.96899 15.1768 6.85986C15.1985 6.75072 15.1873 6.63761 15.1446 6.53484Z" fill="#3EA089"/>
</g>
<defs>
<clipPath id="clip0_1392_19751">
<rect width="18" height="18" fill="white"/>
</clipPath>
</defs>
</svg>
