<svg width="40" height="40" viewBox="0 0 40 40" fill="none" xmlns="http://www.w3.org/2000/svg">
<rect x="0.498979" y="0.498979" width="39.002" height="39.002" rx="4.50102" fill="white"/>
<rect x="0.498979" y="0.498979" width="39.002" height="39.002" rx="4.50102" stroke="#B6E2D8" stroke-width="0.997957"/>
<g clip-path="url(#clip0_399_914)">
<path d="M27.7976 15.2156L27.7914 15.2227L22.5 20.8727V25.2078C22.5003 25.414 22.4496 25.617 22.3524 25.7989C22.2552 25.9807 22.1145 26.1357 21.9429 26.25L19.4429 27.9172C19.2546 28.0427 19.0356 28.1147 18.8095 28.1254C18.5834 28.1362 18.3586 28.0854 18.1591 27.9784C17.9596 27.8714 17.793 27.7122 17.6769 27.5179C17.5608 27.3236 17.4996 27.1014 17.5 26.875V20.8727L12.2086 15.2227L12.2023 15.2156C12.0396 15.0366 11.9324 14.8142 11.8936 14.5754C11.8548 14.3366 11.8862 14.0916 11.9839 13.8703C12.0815 13.649 12.2414 13.4607 12.4439 13.3284C12.6465 13.1961 12.8831 13.1255 13.125 13.125H26.875C27.1171 13.125 27.354 13.1954 27.5569 13.3275C27.7598 13.4596 27.92 13.6478 28.018 13.8692C28.1159 14.0907 28.1475 14.3358 28.1088 14.5748C28.0701 14.8138 27.9628 15.0364 27.8 15.2156H27.7976Z" fill="#3EA089"/>
</g>
<defs>
<clipPath id="clip0_399_914">
<rect width="20" height="20" fill="white" transform="translate(10 10)"/>
</clipPath>
</defs>
</svg>
