<svg width="603" height="239" viewBox="0 0 603 239" fill="none" xmlns="http://www.w3.org/2000/svg">
<line x1="39.7558" y1="170.974" x2="583.494" y2="170.974" stroke="#F0EEEE" stroke-width="0.798769" stroke-linecap="round" stroke-dasharray="2.4 4.79"/>
<line x1="39.7558" y1="132.89" x2="583.494" y2="132.89" stroke="#F0EEEE" stroke-width="0.798769" stroke-linecap="round" stroke-dasharray="2.4 4.79"/>
<line x1="39.7558" y1="56.7256" x2="583.494" y2="56.7256" stroke="#F0EEEE" stroke-width="0.798769" stroke-linecap="round" stroke-dasharray="2.4 4.79"/>
<line x1="39.7558" y1="94.8057" x2="583.494" y2="94.8057" stroke="#F0EEEE" stroke-width="0.798769" stroke-linecap="round" stroke-dasharray="2.4 4.79"/>
<line x1="39.7558" y1="18.6416" x2="583.494" y2="18.6416" stroke="#F0EEEE" stroke-width="0.798769" stroke-linecap="round" stroke-dasharray="2.4 4.79"/>
<rect x="77.5684" y="170.42" width="23.8832" height="38.083" fill="#B6E2D8"/>
<rect x="106.229" y="113.295" width="23.8832" height="95.2075" fill="#EDF8F5"/>
<rect x="168.326" y="132.336" width="23.8832" height="76.166" fill="#B6E2D8"/>
<rect x="196.986" y="110.439" width="23.8832" height="98.0637" fill="#EDF8F5"/>
<rect x="287.742" y="144.715" width="23.8832" height="63.789" fill="#91D4C4"/>
<rect x="259.082" y="82.8301" width="23.8832" height="125.674" fill="#3EA089"/>
<rect x="378.498" y="151.385" width="23.8832" height="57.1245" fill="#EDF8F5"/>
<rect x="349.838" y="45.7012" width="23.8832" height="162.805" fill="#B6E2D8"/>
<g filter="url(#filter0_d_2073_8989)">
<rect x="220.869" y="6.66602" width="114.639" height="67.5973" fill="white"/>
</g>
<path d="M236.454 18.2392H237.475L240.08 24.7206L242.679 18.2392H243.705L240.473 26.1895H239.676L236.454 18.2392ZM236.121 18.2392H237.022L237.169 23.088V26.1895H236.121V18.2392ZM243.132 18.2392H244.033V26.1895H242.985V23.088L243.132 18.2392ZM249.215 25.1793V22.1379C249.215 21.9049 249.168 21.7029 249.073 21.5318C248.982 21.3571 248.844 21.2224 248.658 21.1277C248.472 21.0331 248.243 20.9858 247.97 20.9858C247.715 20.9858 247.491 21.0294 247.298 21.1168C247.109 21.2042 246.96 21.3188 246.851 21.4608C246.745 21.6028 246.692 21.7557 246.692 21.9195H245.682C245.682 21.7083 245.737 21.499 245.846 21.2915C245.955 21.084 246.112 20.8966 246.315 20.7291C246.523 20.558 246.771 20.4233 247.058 20.325C247.349 20.2231 247.673 20.1722 248.03 20.1722C248.46 20.1722 248.838 20.245 249.166 20.3906C249.497 20.5362 249.756 20.7564 249.941 21.0513C250.13 21.3425 250.225 21.7083 250.225 22.1488V24.9008C250.225 25.0974 250.241 25.3067 250.274 25.5288C250.311 25.7508 250.363 25.9419 250.433 26.1021V26.1895H249.379C249.328 26.073 249.288 25.9183 249.259 25.7253C249.229 25.5288 249.215 25.3467 249.215 25.1793ZM249.39 22.6075L249.401 23.3173H248.379C248.092 23.3173 247.835 23.341 247.61 23.3883C247.384 23.432 247.195 23.4993 247.042 23.5903C246.889 23.6813 246.772 23.796 246.692 23.9343C246.612 24.069 246.572 24.2274 246.572 24.4094C246.572 24.595 246.614 24.7643 246.698 24.9172C246.781 25.0701 246.907 25.192 247.074 25.283C247.246 25.3704 247.455 25.4141 247.702 25.4141C248.012 25.4141 248.285 25.3486 248.521 25.2175C248.758 25.0865 248.946 24.9263 249.084 24.737C249.226 24.5477 249.302 24.3639 249.313 24.1855L249.745 24.6715C249.719 24.8244 249.65 24.9936 249.537 25.1793C249.424 25.3649 249.273 25.5433 249.084 25.7144C248.898 25.8819 248.676 26.022 248.418 26.1348C248.163 26.2441 247.875 26.2987 247.555 26.2987C247.155 26.2987 246.803 26.2204 246.501 26.0639C246.203 25.9073 245.97 25.698 245.802 25.4359C245.638 25.1702 245.557 24.8735 245.557 24.5459C245.557 24.2292 245.618 23.9507 245.742 23.7105C245.866 23.4666 246.044 23.2645 246.277 23.1044C246.51 22.9406 246.791 22.8168 247.118 22.7331C247.446 22.6493 247.812 22.6075 248.216 22.6075H249.39ZM252.824 21.2096V26.1895H251.814V20.2814H252.797L252.824 21.2096ZM254.67 20.2486L254.664 21.1878C254.581 21.1696 254.501 21.1587 254.424 21.155C254.351 21.1477 254.268 21.1441 254.173 21.1441C253.94 21.1441 253.734 21.1805 253.556 21.2533C253.378 21.3261 253.226 21.428 253.103 21.5591C252.979 21.6901 252.881 21.8467 252.808 22.0287C252.739 22.207 252.693 22.4036 252.671 22.6184L252.387 22.7822C252.387 22.4255 252.422 22.0906 252.491 21.7775C252.564 21.4644 252.675 21.1878 252.824 20.9475C252.973 20.7036 253.163 20.5143 253.392 20.3797C253.625 20.2413 253.902 20.1722 254.222 20.1722C254.295 20.1722 254.379 20.1813 254.473 20.1995C254.568 20.214 254.633 20.2304 254.67 20.2486ZM261.588 18.1955V26.1895H260.578V19.4569L258.541 20.1995V19.2876L261.43 18.1955H261.588ZM269.544 22.3945V23.2245H266.879V22.3945H269.544ZM273.792 18.2392H274.813L277.418 24.7206L280.017 18.2392H281.043L277.811 26.1895H277.014L273.792 18.2392ZM273.459 18.2392H274.36L274.507 23.088V26.1895H273.459V18.2392ZM280.47 18.2392H281.371V26.1895H280.322V23.088L280.47 18.2392ZM286.553 25.1793V22.1379C286.553 21.9049 286.505 21.7029 286.411 21.5318C286.32 21.3571 286.181 21.2224 285.996 21.1277C285.81 21.0331 285.581 20.9858 285.308 20.9858C285.053 20.9858 284.829 21.0294 284.636 21.1168C284.447 21.2042 284.298 21.3188 284.188 21.4608C284.083 21.6028 284.03 21.7557 284.03 21.9195H283.02C283.02 21.7083 283.074 21.499 283.184 21.2915C283.293 21.084 283.449 20.8966 283.653 20.7291C283.861 20.558 284.108 20.4233 284.396 20.325C284.687 20.2231 285.011 20.1722 285.368 20.1722C285.797 20.1722 286.176 20.245 286.504 20.3906C286.835 20.5362 287.093 20.7564 287.279 21.0513C287.468 21.3425 287.563 21.7083 287.563 22.1488V24.9008C287.563 25.0974 287.579 25.3067 287.612 25.5288C287.648 25.7508 287.701 25.9419 287.77 26.1021V26.1895H286.717C286.666 26.073 286.626 25.9183 286.596 25.7253C286.567 25.5288 286.553 25.3467 286.553 25.1793ZM286.727 22.6075L286.738 23.3173H285.717C285.43 23.3173 285.173 23.341 284.947 23.3883C284.722 23.432 284.532 23.4993 284.38 23.5903C284.227 23.6813 284.11 23.796 284.03 23.9343C283.95 24.069 283.91 24.2274 283.91 24.4094C283.91 24.595 283.952 24.7643 284.036 24.9172C284.119 25.0701 284.245 25.192 284.412 25.283C284.583 25.3704 284.793 25.4141 285.04 25.4141C285.35 25.4141 285.623 25.3486 285.859 25.2175C286.096 25.0865 286.283 24.9263 286.422 24.737C286.564 24.5477 286.64 24.3639 286.651 24.1855L287.082 24.6715C287.057 24.8244 286.988 24.9936 286.875 25.1793C286.762 25.3649 286.611 25.5433 286.422 25.7144C286.236 25.8819 286.014 26.022 285.756 26.1348C285.501 26.2441 285.213 26.2987 284.893 26.2987C284.492 26.2987 284.141 26.2204 283.839 26.0639C283.54 25.9073 283.307 25.698 283.14 25.4359C282.976 25.1702 282.894 24.8735 282.894 24.5459C282.894 24.2292 282.956 23.9507 283.08 23.7105C283.204 23.4666 283.382 23.2645 283.615 23.1044C283.848 22.9406 284.128 22.8168 284.456 22.7331C284.784 22.6493 285.149 22.6075 285.553 22.6075H286.727ZM290.162 21.2096V26.1895H289.152V20.2814H290.135L290.162 21.2096ZM292.008 20.2486L292.002 21.1878C291.918 21.1696 291.838 21.1587 291.762 21.155C291.689 21.1477 291.605 21.1441 291.511 21.1441C291.278 21.1441 291.072 21.1805 290.894 21.2533C290.715 21.3261 290.564 21.428 290.44 21.5591C290.317 21.6901 290.218 21.8467 290.146 22.0287C290.076 22.207 290.031 22.4036 290.009 22.6184L289.725 22.7822C289.725 22.4255 289.76 22.0906 289.829 21.7775C289.902 21.4644 290.013 21.1878 290.162 20.9475C290.311 20.7036 290.501 20.5143 290.73 20.3797C290.963 20.2413 291.24 20.1722 291.56 20.1722C291.633 20.1722 291.716 20.1813 291.811 20.1995C291.906 20.214 291.971 20.2304 292.008 20.2486ZM297.08 21.7174H297.801C298.154 21.7174 298.445 21.6592 298.675 21.5427C298.908 21.4226 299.081 21.2606 299.193 21.0567C299.31 20.8492 299.368 20.6163 299.368 20.3578C299.368 20.052 299.317 19.7954 299.215 19.5879C299.113 19.3804 298.96 19.2239 298.757 19.1183C298.553 19.0127 298.294 18.96 297.981 18.96C297.697 18.96 297.446 19.0164 297.228 19.1292C297.013 19.2384 296.844 19.395 296.72 19.5988C296.6 19.8027 296.54 20.0429 296.54 20.3196H295.53C295.53 19.9155 295.631 19.5479 295.835 19.2166C296.039 18.8853 296.325 18.6214 296.693 18.4249C297.064 18.2283 297.493 18.13 297.981 18.13C298.462 18.13 298.882 18.2155 299.243 18.3866C299.603 18.5541 299.883 18.8053 300.083 19.1402C300.284 19.4714 300.384 19.8846 300.384 20.3797C300.384 20.5799 300.336 20.7946 300.242 21.024C300.151 21.2497 300.007 21.4608 299.81 21.6574C299.617 21.8539 299.366 22.0159 299.057 22.1433C298.747 22.2671 298.376 22.329 297.943 22.329H297.08V21.7174ZM297.08 22.5474V21.9413H297.943C298.449 21.9413 298.868 22.0014 299.199 22.1215C299.53 22.2416 299.79 22.4018 299.98 22.602C300.173 22.8022 300.307 23.0225 300.384 23.2627C300.464 23.4993 300.504 23.7359 300.504 23.9726C300.504 24.3439 300.44 24.6733 300.313 24.9609C300.189 25.2485 300.012 25.4923 299.783 25.6926C299.557 25.8928 299.292 26.0438 298.986 26.1458C298.68 26.2477 298.347 26.2987 297.987 26.2987C297.641 26.2987 297.315 26.2495 297.009 26.1512C296.707 26.0529 296.44 25.911 296.207 25.7253C295.974 25.536 295.792 25.3049 295.661 25.0319C295.53 24.7552 295.464 24.4403 295.464 24.0872H296.474C296.474 24.3639 296.534 24.606 296.654 24.8134C296.778 25.0209 296.953 25.1829 297.179 25.2994C297.408 25.4123 297.677 25.4687 297.987 25.4687C298.296 25.4687 298.562 25.4159 298.784 25.3103C299.01 25.2011 299.182 25.0373 299.303 24.8189C299.426 24.6005 299.488 24.3257 299.488 23.9944C299.488 23.6631 299.419 23.3919 299.281 23.1808C299.142 22.966 298.946 22.8077 298.691 22.7058C298.44 22.6002 298.143 22.5474 297.801 22.5474H297.08ZM305.216 18.1955V26.1895H304.206V19.4569L302.169 20.1995V19.2876L305.058 18.1955H305.216Z" fill="#032930"/>
<path d="M251.358 41.3504H251.976C252.279 41.3504 252.528 41.3005 252.725 41.2007C252.925 41.0977 253.073 40.9589 253.17 40.7841C253.269 40.6063 253.319 40.4066 253.319 40.185C253.319 39.9229 253.276 39.703 253.188 39.5251C253.101 39.3473 252.97 39.2131 252.795 39.1226C252.62 39.0321 252.399 38.9869 252.131 38.9869C251.887 38.9869 251.672 39.0353 251.485 39.132C251.301 39.2256 251.156 39.3598 251.049 39.5345C250.946 39.7092 250.895 39.9151 250.895 40.1523H250.029C250.029 39.8059 250.116 39.4908 250.291 39.2069C250.466 38.9229 250.711 38.6967 251.026 38.5282C251.344 38.3597 251.712 38.2755 252.131 38.2755C252.542 38.2755 252.903 38.3488 253.212 38.4955C253.521 38.639 253.761 38.8543 253.932 39.1413C254.104 39.4253 254.19 39.7794 254.19 40.2038C254.19 40.3754 254.149 40.5595 254.068 40.756C253.99 40.9495 253.867 41.1305 253.698 41.299C253.533 41.4674 253.318 41.6063 253.053 41.7155C252.787 41.8216 252.469 41.8746 252.098 41.8746H251.358V41.3504ZM251.358 42.0618V41.5423H252.098C252.532 41.5423 252.89 41.5938 253.174 41.6968C253.458 41.7997 253.681 41.937 253.844 42.1086C254.009 42.2803 254.124 42.469 254.19 42.675C254.259 42.8778 254.293 43.0806 254.293 43.2834C254.293 43.6017 254.238 43.884 254.129 44.1305C254.023 44.377 253.872 44.5861 253.675 44.7577C253.482 44.9293 253.254 45.0588 252.992 45.1462C252.73 45.2335 252.444 45.2772 252.135 45.2772C251.839 45.2772 251.56 45.2351 251.297 45.1508C251.038 45.0666 250.809 44.9449 250.609 44.7858C250.41 44.6235 250.254 44.4254 250.141 44.1914C250.029 43.9542 249.973 43.6843 249.973 43.3817H250.839C250.839 43.6188 250.89 43.8263 250.993 44.0042C251.099 44.182 251.249 44.3209 251.443 44.4207C251.639 44.5174 251.87 44.5658 252.135 44.5658C252.4 44.5658 252.628 44.5206 252.819 44.4301C253.012 44.3365 253.16 44.1961 253.263 44.0088C253.369 43.8216 253.422 43.5861 253.422 43.3021C253.422 43.0182 253.363 42.7857 253.244 42.6048C253.126 42.4207 252.957 42.2849 252.739 42.1976C252.524 42.1071 252.269 42.0618 251.976 42.0618H251.358ZM259.951 44.4722V45.1836H255.491V44.5611L257.724 42.0759C257.998 41.7701 258.21 41.5111 258.36 41.299C258.513 41.0837 258.619 40.8918 258.678 40.7233C258.741 40.5517 258.772 40.3769 258.772 40.1991C258.772 39.9744 258.725 39.7716 258.631 39.5906C258.541 39.4066 258.407 39.2599 258.229 39.1507C258.051 39.0415 257.836 38.9869 257.583 38.9869C257.28 38.9869 257.028 39.0462 256.825 39.1647C256.625 39.2802 256.475 39.4424 256.376 39.6515C256.276 39.8605 256.226 40.1008 256.226 40.3723H255.36C255.36 39.9885 255.444 39.6375 255.613 39.3192C255.781 39.0009 256.031 38.7482 256.362 38.561C256.692 38.3707 257.099 38.2755 257.583 38.2755C258.014 38.2755 258.382 38.3519 258.688 38.5048C258.993 38.6546 259.227 38.8668 259.39 39.1413C259.555 39.4128 259.638 39.7311 259.638 40.0961C259.638 40.2958 259.603 40.4986 259.535 40.7046C259.469 40.9074 259.377 41.1102 259.259 41.313C259.143 41.5158 259.007 41.7155 258.851 41.9121C258.699 42.1086 258.535 42.3021 258.36 42.4924L256.535 44.4722H259.951ZM261.758 44.1539V44.8513C261.758 45.1352 261.686 45.4348 261.543 45.7499C261.399 46.0682 261.198 46.3334 260.939 46.5456L260.447 46.2039C260.547 46.0666 260.632 45.9262 260.7 45.7827C260.769 45.6423 260.82 45.4956 260.855 45.3427C260.892 45.193 260.911 45.0338 260.911 44.8653V44.1539H261.758ZM263.864 41.9402L263.171 41.7623L263.513 38.3691H267.009V39.1694H264.248L264.042 41.0228C264.167 40.9511 264.324 40.884 264.515 40.8216C264.708 40.7592 264.93 40.728 265.179 40.728C265.494 40.728 265.777 40.7826 266.026 40.8918C266.276 40.9979 266.488 41.1507 266.663 41.3504C266.841 41.5501 266.976 41.7904 267.07 42.0712C267.164 42.352 267.21 42.6656 267.21 43.0119C267.21 43.3396 267.165 43.6407 267.075 43.9152C266.987 44.1898 266.855 44.4301 266.677 44.636C266.499 44.8388 266.274 44.9964 266.003 45.1087C265.735 45.221 265.418 45.2772 265.053 45.2772C264.778 45.2772 264.518 45.2398 264.271 45.1649C264.028 45.0869 263.809 44.9699 263.616 44.8139C263.426 44.6547 263.27 44.4581 263.148 44.2241C263.029 43.987 262.955 43.7093 262.923 43.391H263.747C263.784 43.6469 263.859 43.8622 263.972 44.0369C264.084 44.2117 264.231 44.3443 264.412 44.4347C264.596 44.5221 264.809 44.5658 265.053 44.5658C265.259 44.5658 265.441 44.5299 265.6 44.4581C265.76 44.3864 265.894 44.2834 266.003 44.1492C266.112 44.0151 266.195 43.8528 266.251 43.6625C266.31 43.4722 266.34 43.2584 266.34 43.0213C266.34 42.806 266.31 42.6063 266.251 42.4222C266.192 42.2381 266.103 42.0774 265.984 41.9402C265.869 41.8029 265.727 41.6968 265.558 41.6219C265.39 41.5439 265.196 41.5049 264.978 41.5049C264.688 41.5049 264.468 41.5439 264.318 41.6219C264.171 41.6999 264.02 41.806 263.864 41.9402ZM269.424 41.3504H270.042C270.345 41.3504 270.594 41.3005 270.791 41.2007C270.991 41.0977 271.139 40.9589 271.236 40.7841C271.335 40.6063 271.385 40.4066 271.385 40.185C271.385 39.9229 271.342 39.703 271.254 39.5251C271.167 39.3473 271.036 39.2131 270.861 39.1226C270.686 39.0321 270.465 38.9869 270.196 38.9869C269.953 38.9869 269.738 39.0353 269.551 39.132C269.367 39.2256 269.221 39.3598 269.115 39.5345C269.012 39.7092 268.961 39.9151 268.961 40.1523H268.095C268.095 39.8059 268.182 39.4908 268.357 39.2069C268.532 38.9229 268.777 38.6967 269.092 38.5282C269.41 38.3597 269.778 38.2755 270.196 38.2755C270.608 38.2755 270.969 38.3488 271.278 38.4955C271.587 38.639 271.827 38.8543 271.998 39.1413C272.17 39.4253 272.256 39.7794 272.256 40.2038C272.256 40.3754 272.215 40.5595 272.134 40.756C272.056 40.9495 271.933 41.1305 271.764 41.299C271.599 41.4674 271.384 41.6063 271.118 41.7155C270.853 41.8216 270.535 41.8746 270.164 41.8746H269.424V41.3504ZM269.424 42.0618V41.5423H270.164C270.597 41.5423 270.956 41.5938 271.24 41.6968C271.524 41.7997 271.747 41.937 271.909 42.1086C272.075 42.2803 272.19 42.469 272.256 42.675C272.324 42.8778 272.359 43.0806 272.359 43.2834C272.359 43.6017 272.304 43.884 272.195 44.1305C272.089 44.377 271.938 44.5861 271.741 44.7577C271.548 44.9293 271.32 45.0588 271.058 45.1462C270.796 45.2335 270.51 45.2772 270.201 45.2772C269.905 45.2772 269.625 45.2351 269.363 45.1508C269.104 45.0666 268.875 44.9449 268.675 44.7858C268.476 44.6235 268.32 44.4254 268.207 44.1914C268.095 43.9542 268.039 43.6843 268.039 43.3817H268.905C268.905 43.6188 268.956 43.8263 269.059 44.0042C269.165 44.182 269.315 44.3209 269.508 44.4207C269.705 44.5174 269.936 44.5658 270.201 44.5658C270.466 44.5658 270.694 44.5206 270.884 44.4301C271.078 44.3365 271.226 44.1961 271.329 44.0088C271.435 43.8216 271.488 43.5861 271.488 43.3021C271.488 43.0182 271.429 42.7857 271.31 42.6048C271.192 42.4207 271.023 42.2849 270.805 42.1976C270.59 42.1071 270.335 42.0618 270.042 42.0618H269.424ZM274.647 41.9402L273.955 41.7623L274.296 38.3691H277.793V39.1694H275.031L274.825 41.0228C274.95 40.9511 275.108 40.884 275.298 40.8216C275.491 40.7592 275.713 40.728 275.963 40.728C276.278 40.728 276.56 40.7826 276.81 40.8918C277.059 40.9979 277.272 41.1507 277.446 41.3504C277.624 41.5501 277.76 41.7904 277.853 42.0712C277.947 42.352 277.994 42.6656 277.994 43.0119C277.994 43.3396 277.949 43.6407 277.858 43.9152C277.771 44.1898 277.638 44.4301 277.46 44.636C277.282 44.8388 277.058 44.9964 276.786 45.1087C276.518 45.221 276.201 45.2772 275.836 45.2772C275.562 45.2772 275.301 45.2398 275.055 45.1649C274.811 45.0869 274.593 44.9699 274.399 44.8139C274.209 44.6547 274.053 44.4581 273.931 44.2241C273.813 43.987 273.738 43.7093 273.707 43.391H274.53C274.568 43.6469 274.643 43.8622 274.755 44.0369C274.867 44.2117 275.014 44.3443 275.195 44.4347C275.379 44.5221 275.593 44.5658 275.836 44.5658C276.042 44.5658 276.225 44.5299 276.384 44.4581C276.543 44.3864 276.677 44.2834 276.786 44.1492C276.896 44.0151 276.978 43.8528 277.034 43.6625C277.094 43.4722 277.123 43.2584 277.123 43.0213C277.123 42.806 277.094 42.6063 277.034 42.4222C276.975 42.2381 276.886 42.0774 276.768 41.9402C276.652 41.8029 276.51 41.6968 276.342 41.6219C276.173 41.5439 275.98 41.5049 275.761 41.5049C275.471 41.5049 275.251 41.5439 275.101 41.6219C274.955 41.6999 274.803 41.806 274.647 41.9402Z" fill="#5B5B5B"/>
<rect x="235.198" y="39.041" width="7.64263" height="7.6166" rx="0.798769" fill="#3EA089"/>
<rect x="235.198" y="56.1797" width="7.64263" height="7.6166" rx="0.798769" fill="#91D4C4"/>
<path d="M252.94 56.4215V63.2734H252.074V57.5026L250.329 58.1392V57.3576L252.805 56.4215H252.94ZM258.809 56.4496H258.884V57.1844H258.809C258.351 57.1844 257.967 57.2593 257.658 57.409C257.349 57.5557 257.104 57.7538 256.923 58.0034C256.742 58.2499 256.611 58.5276 256.53 58.8365C256.452 59.1454 256.413 59.459 256.413 59.7773V60.7788C256.413 61.0815 256.449 61.3498 256.521 61.5839C256.592 61.8147 256.691 62.0098 256.816 62.1689C256.94 62.328 257.081 62.4481 257.237 62.5293C257.396 62.6104 257.561 62.651 257.733 62.651C257.933 62.651 258.11 62.6135 258.266 62.5386C258.422 62.4606 258.553 62.353 258.66 62.2157C258.769 62.0753 258.851 61.9099 258.908 61.7196C258.964 61.5292 258.992 61.3202 258.992 61.0924C258.992 60.8896 258.967 60.6946 258.917 60.5074C258.867 60.3171 258.791 60.1486 258.688 60.0019C258.585 59.8521 258.455 59.7351 258.299 59.6509C258.146 59.5635 257.964 59.5198 257.752 59.5198C257.511 59.5198 257.287 59.5791 257.078 59.6977C256.872 59.8131 256.702 59.966 256.567 60.1564C256.436 60.3436 256.362 60.5479 256.343 60.7695L255.884 60.7648C255.928 60.4153 256.009 60.1174 256.128 59.8709C256.249 59.6213 256.399 59.4184 256.577 59.2624C256.758 59.1033 256.959 58.9879 257.181 58.9161C257.405 58.8412 257.642 58.8038 257.892 58.8038C258.232 58.8038 258.525 58.8677 258.772 58.9957C259.018 59.1236 259.221 59.2952 259.38 59.5105C259.539 59.7227 259.656 59.9629 259.731 60.2312C259.809 60.4965 259.848 60.7695 259.848 61.0503C259.848 61.3717 259.803 61.6728 259.713 61.9536C259.622 62.2344 259.486 62.4809 259.305 62.6931C259.128 62.9053 258.908 63.0706 258.646 63.1892C258.383 63.3078 258.079 63.367 257.733 63.367C257.365 63.367 257.043 63.2922 256.769 63.1424C256.494 62.9895 256.266 62.7867 256.085 62.534C255.904 62.2812 255.769 62.0004 255.678 61.6915C255.588 61.3826 255.542 61.069 255.542 60.7508V60.3436C255.542 59.8631 255.591 59.3919 255.688 58.9301C255.784 58.4683 255.951 58.0502 256.188 57.6758C256.429 57.3014 256.761 57.0034 257.185 56.7819C257.61 56.5603 258.151 56.4496 258.809 56.4496ZM261.758 62.2438V62.9411C261.758 63.2251 261.686 63.5246 261.543 63.8398C261.399 64.158 261.198 64.4232 260.939 64.6354L260.447 64.2937C260.547 64.1565 260.632 64.016 260.7 63.8725C260.769 63.7321 260.82 63.5855 260.855 63.4326C260.892 63.2828 260.911 63.1237 260.911 62.9552V62.2438H261.758ZM264.033 59.4403H264.65C264.953 59.4403 265.203 59.3904 265.399 59.2905C265.599 59.1875 265.747 59.0487 265.844 58.874C265.944 58.6961 265.994 58.4964 265.994 58.2749C265.994 58.0128 265.95 57.7928 265.863 57.615C265.775 57.4371 265.644 57.3029 265.469 57.2125C265.295 57.122 265.073 57.0767 264.805 57.0767C264.561 57.0767 264.346 57.1251 264.159 57.2218C263.975 57.3154 263.83 57.4496 263.724 57.6243C263.621 57.7991 263.569 58.005 263.569 58.2421H262.703C262.703 57.8958 262.791 57.5806 262.965 57.2967C263.14 57.0128 263.385 56.7866 263.7 56.6181C264.018 56.4496 264.387 56.3653 264.805 56.3653C265.217 56.3653 265.577 56.4387 265.886 56.5853C266.195 56.7288 266.435 56.9441 266.607 57.2312C266.778 57.5151 266.864 57.8693 266.864 58.2936C266.864 58.4652 266.824 58.6493 266.742 58.8459C266.664 59.0393 266.541 59.2203 266.373 59.3888C266.207 59.5573 265.992 59.6961 265.727 59.8053C265.462 59.9114 265.143 59.9645 264.772 59.9645H264.033V59.4403ZM264.033 60.1517V59.6322H264.772C265.206 59.6322 265.565 59.6837 265.848 59.7866C266.132 59.8896 266.356 60.0269 266.518 60.1985C266.683 60.3701 266.799 60.5589 266.864 60.7648C266.933 60.9676 266.967 61.1704 266.967 61.3732C266.967 61.6915 266.912 61.9739 266.803 62.2204C266.697 62.4669 266.546 62.6759 266.349 62.8475C266.156 63.0191 265.928 63.1486 265.666 63.236C265.404 63.3234 265.118 63.367 264.809 63.367C264.513 63.367 264.234 63.3249 263.972 63.2407C263.713 63.1564 263.483 63.0347 263.284 62.8756C263.084 62.7134 262.928 62.5152 262.816 62.2812C262.703 62.0441 262.647 61.7742 262.647 61.4715H263.513C263.513 61.7087 263.565 61.9162 263.667 62.094C263.774 62.2719 263.923 62.4107 264.117 62.5106C264.313 62.6073 264.544 62.6556 264.809 62.6556C265.075 62.6556 265.302 62.6104 265.493 62.5199C265.686 62.4263 265.834 62.2859 265.937 62.0987C266.044 61.9115 266.097 61.6759 266.097 61.392C266.097 61.108 266.037 60.8756 265.919 60.6946C265.8 60.5105 265.632 60.3748 265.413 60.2874C265.198 60.1969 264.944 60.1517 264.65 60.1517H264.033ZM272.626 62.562V63.2734H268.165V62.651L270.398 60.1657C270.672 59.8599 270.884 59.601 271.034 59.3888C271.187 59.1735 271.293 58.9816 271.353 58.8131C271.415 58.6415 271.446 58.4668 271.446 58.2889C271.446 58.0643 271.399 57.8615 271.306 57.6805C271.215 57.4964 271.081 57.3498 270.903 57.2405C270.725 57.1313 270.51 57.0767 270.257 57.0767C269.955 57.0767 269.702 57.136 269.499 57.2546C269.299 57.37 269.15 57.5323 269.05 57.7413C268.95 57.9504 268.9 58.1906 268.9 58.4621H268.034C268.034 58.0783 268.118 57.7273 268.287 57.409C268.455 57.0908 268.705 56.838 269.036 56.6508C269.367 56.4605 269.774 56.3653 270.257 56.3653C270.688 56.3653 271.056 56.4418 271.362 56.5947C271.668 56.7444 271.902 56.9566 272.064 57.2312C272.229 57.5026 272.312 57.8209 272.312 58.186C272.312 58.3857 272.278 58.5885 272.209 58.7944C272.143 58.9972 272.051 59.2 271.933 59.4028C271.817 59.6057 271.682 59.8053 271.526 60.0019C271.373 60.1985 271.209 60.3919 271.034 60.5823L269.209 62.562H272.626ZM274.413 62.548H274.502C275.002 62.548 275.407 62.4778 275.719 62.3374C276.031 62.197 276.271 62.0082 276.44 61.7711C276.608 61.5339 276.724 61.2672 276.786 60.9707C276.849 60.6712 276.88 60.3639 276.88 60.0487V59.005C276.88 58.6961 276.844 58.4215 276.772 58.1813C276.704 57.941 276.607 57.7398 276.482 57.5775C276.36 57.4153 276.222 57.292 276.066 57.2078C275.91 57.1235 275.744 57.0814 275.569 57.0814C275.37 57.0814 275.19 57.122 275.031 57.2031C274.875 57.2811 274.743 57.3919 274.633 57.5354C274.527 57.6789 274.446 57.8474 274.39 58.0409C274.334 58.2343 274.306 58.4449 274.306 58.6727C274.306 58.8755 274.331 59.0721 274.381 59.2624C274.431 59.4528 274.507 59.6244 274.61 59.7773C274.713 59.9302 274.841 60.0518 274.994 60.1423C275.15 60.2297 275.332 60.2734 275.541 60.2734C275.735 60.2734 275.916 60.2359 276.084 60.161C276.256 60.083 276.407 59.9785 276.538 59.8475C276.672 59.7133 276.779 59.562 276.857 59.3935C276.938 59.225 276.984 59.0487 276.997 58.8646H277.409C277.409 59.1236 277.357 59.3794 277.254 59.6322C277.155 59.8818 277.014 60.1096 276.833 60.3155C276.652 60.5214 276.44 60.6868 276.197 60.8116C275.953 60.9333 275.688 60.9941 275.401 60.9941C275.064 60.9941 274.772 60.9286 274.526 60.7976C274.279 60.6665 274.076 60.4918 273.917 60.2734C273.761 60.055 273.644 59.8116 273.566 59.5432C273.491 59.2718 273.454 58.9972 273.454 58.7195C273.454 58.395 273.499 58.0908 273.59 57.8069C273.68 57.5229 273.814 57.2733 273.992 57.058C274.17 56.8396 274.39 56.6695 274.652 56.5479C274.917 56.4262 275.223 56.3653 275.569 56.3653C275.959 56.3653 276.292 56.4433 276.566 56.5993C276.841 56.7554 277.064 56.9644 277.236 57.2265C277.41 57.4886 277.538 57.7835 277.619 58.1111C277.701 58.4387 277.741 58.7757 277.741 59.122V59.4356C277.741 59.7882 277.718 60.147 277.671 60.5121C277.627 60.874 277.541 61.2204 277.413 61.5511C277.289 61.8818 277.106 62.1782 276.866 62.4403C276.626 62.6993 276.312 62.9053 275.925 63.0581C275.541 63.2079 275.067 63.2828 274.502 63.2828H274.413V62.548Z" fill="#5B5B5B"/>
<rect x="469.254" y="151.379" width="23.8832" height="57.1245" fill="#EDF8F5"/>
<rect x="440.594" y="29.5156" width="23.8832" height="178.99" fill="#B6E2D8"/>
<rect x="560.011" y="126.623" width="23.8832" height="81.8784" fill="#EDF8F5"/>
<rect x="531.352" y="56.1699" width="23.8832" height="152.332" fill="#B6E2D8"/>
<path d="M94.1522 230.977V230.239C94.5261 230.232 94.8134 230.212 95.0141 230.177C95.2149 230.142 95.3602 230.07 95.4502 229.959C95.5402 229.841 95.5922 229.658 95.606 229.409C95.6268 229.152 95.6372 228.799 95.6372 228.349V223.832H96.5302V228.069C96.5302 228.623 96.5198 229.083 96.499 229.45C96.4783 229.81 96.4298 230.094 96.3537 230.302C96.2775 230.502 96.1529 230.651 95.9798 230.748C95.8137 230.845 95.5818 230.907 95.2841 230.935C94.9933 230.963 94.6161 230.977 94.1522 230.977ZM99.8164 231.06C99.4287 231.06 99.1034 231.015 98.8403 230.925C98.5842 230.835 98.3903 230.679 98.2588 230.457C98.1342 230.236 98.0719 229.924 98.0719 229.523C98.0719 229.121 98.1169 228.806 98.2069 228.578C98.3038 228.342 98.4699 228.176 98.7053 228.079C98.9407 227.983 99.2695 227.934 99.6918 227.934C99.761 227.934 99.8683 227.938 100.014 227.944C100.166 227.944 100.339 227.948 100.533 227.955C100.727 227.955 100.921 227.958 101.114 227.965C101.315 227.965 101.499 227.969 101.665 227.976V227.643C101.665 227.332 101.644 227.089 101.602 226.916C101.568 226.736 101.492 226.605 101.374 226.522C101.256 226.432 101.09 226.376 100.876 226.356C100.668 226.328 100.391 226.314 100.045 226.314C99.8925 226.314 99.7126 226.321 99.5049 226.335C99.2972 226.342 99.093 226.356 98.8922 226.376C98.6984 226.39 98.5426 226.408 98.4249 226.428V225.743C98.688 225.695 98.9822 225.66 99.3076 225.639C99.6399 225.611 99.9825 225.598 100.336 225.598C100.709 225.598 101.024 225.622 101.281 225.67C101.544 225.712 101.755 225.781 101.914 225.878C102.08 225.975 102.205 226.103 102.288 226.262C102.371 226.421 102.426 226.615 102.454 226.844C102.489 227.072 102.506 227.339 102.506 227.643V230.977H101.748L101.717 230.229H101.654C101.544 230.471 101.384 230.655 101.177 230.779C100.976 230.897 100.754 230.973 100.512 231.008C100.27 231.042 100.038 231.06 99.8164 231.06ZM100.128 230.364C100.329 230.364 100.516 230.354 100.689 230.333C100.862 230.305 101.014 230.257 101.146 230.187C101.277 230.118 101.381 230.014 101.457 229.876C101.533 229.73 101.585 229.575 101.613 229.409C101.647 229.236 101.665 229.035 101.665 228.806V228.536H99.8995C99.6295 228.536 99.4218 228.557 99.2764 228.599C99.131 228.64 99.0307 228.727 98.9753 228.858C98.9268 228.99 98.9026 229.187 98.9026 229.45C98.9026 229.706 98.9338 229.9 98.9961 230.032C99.0584 230.163 99.176 230.253 99.3491 230.302C99.5291 230.343 99.7887 230.364 100.128 230.364ZM104.306 230.977V225.681H105.074L105.105 226.439H105.168C105.244 226.273 105.348 226.127 105.479 226.003C105.618 225.878 105.801 225.781 106.03 225.712C106.265 225.636 106.563 225.598 106.923 225.598C107.317 225.598 107.632 225.639 107.867 225.722C108.103 225.805 108.283 225.93 108.407 226.096C108.539 226.262 108.626 226.477 108.667 226.74C108.709 226.996 108.729 227.304 108.729 227.664V230.977H107.888V227.955C107.888 227.595 107.871 227.311 107.836 227.103C107.809 226.889 107.75 226.73 107.66 226.626C107.57 226.515 107.438 226.442 107.265 226.408C107.092 226.373 106.864 226.356 106.58 226.356C106.241 226.356 105.974 226.401 105.78 226.491C105.586 226.574 105.445 226.698 105.355 226.864C105.265 227.024 105.209 227.221 105.188 227.456C105.168 227.685 105.157 227.948 105.157 228.246V230.977H104.306Z" fill="#5B5B5B"/>
<path d="M7.66756 175.756V169.629L6.19303 170.346V169.546L7.92716 168.612H8.56058V175.756H7.66756ZM13.1812 175.839C12.662 175.839 12.2328 175.811 11.8936 175.756C11.5613 175.694 11.2983 175.586 11.1044 175.434C10.9175 175.282 10.7791 175.071 10.6891 174.801C10.606 174.524 10.5506 174.174 10.5229 173.752C10.5021 173.323 10.4918 172.8 10.4918 172.184C10.4918 171.568 10.5021 171.048 10.5229 170.626C10.5506 170.197 10.606 169.847 10.6891 169.577C10.7791 169.3 10.9175 169.086 11.1044 168.934C11.2983 168.781 11.5613 168.677 11.8936 168.622C12.2328 168.56 12.662 168.529 13.1812 168.529C13.7004 168.529 14.1262 168.56 14.4585 168.622C14.7977 168.677 15.0607 168.781 15.2476 168.934C15.4415 169.086 15.5834 169.3 15.6734 169.577C15.7634 169.847 15.8188 170.197 15.8395 170.626C15.8603 171.048 15.8707 171.568 15.8707 172.184C15.8707 172.8 15.8603 173.323 15.8395 173.752C15.8188 174.174 15.7634 174.524 15.6734 174.801C15.5834 175.071 15.4415 175.282 15.2476 175.434C15.0607 175.586 14.7977 175.694 14.4585 175.756C14.1262 175.811 13.7004 175.839 13.1812 175.839ZM13.1812 175.071C13.5343 175.071 13.8216 175.06 14.0431 175.039C14.2646 175.012 14.4377 174.953 14.5623 174.863C14.6938 174.773 14.7873 174.624 14.8427 174.416C14.905 174.209 14.943 173.925 14.9569 173.565C14.9777 173.205 14.988 172.744 14.988 172.184C14.988 171.623 14.9777 171.163 14.9569 170.803C14.943 170.443 14.905 170.159 14.8427 169.951C14.7873 169.744 14.6938 169.595 14.5623 169.505C14.4377 169.415 14.2646 169.359 14.0431 169.339C13.8216 169.311 13.5343 169.297 13.1812 169.297C12.842 169.297 12.5582 169.311 12.3297 169.339C12.1013 169.359 11.9213 169.415 11.7898 169.505C11.6652 169.595 11.5717 169.744 11.5094 169.951C11.454 170.159 11.4194 170.443 11.4056 170.803C11.3917 171.163 11.3848 171.623 11.3848 172.184C11.3848 172.744 11.3917 173.205 11.4056 173.565C11.4194 173.925 11.454 174.209 11.5094 174.416C11.5717 174.624 11.6652 174.773 11.7898 174.863C11.9213 174.953 12.0978 175.012 12.3193 175.039C12.5478 175.06 12.8351 175.071 13.1812 175.071ZM17.7076 175.756V168.612H18.6006V171.737H19.8778L22.3285 168.612H23.315L20.6047 172.08L23.3461 175.756H22.3077L19.8778 172.516H18.6006V175.756H17.7076Z" fill="#5B5B5B"/>
<path d="M5.76941 139.576V138.745C5.76941 138.351 5.77633 138.022 5.79018 137.759C5.81095 137.489 5.85941 137.267 5.93556 137.094C6.01171 136.921 6.12939 136.772 6.28861 136.648C6.45476 136.523 6.68667 136.399 6.98434 136.274L8.86385 135.474C9.11306 135.364 9.29997 135.26 9.42458 135.163C9.54919 135.066 9.63226 134.948 9.6738 134.81C9.72226 134.671 9.74649 134.488 9.74649 134.26C9.74649 133.927 9.69457 133.682 9.59073 133.522C9.49381 133.356 9.31728 133.249 9.06114 133.2C8.81193 133.145 8.45541 133.117 7.99159 133.117C7.82545 133.117 7.62123 133.124 7.37893 133.138C7.14356 133.152 6.89781 133.169 6.64167 133.19C6.38553 133.204 6.14324 133.225 5.91479 133.252V132.525C6.11555 132.491 6.34746 132.463 6.61052 132.442C6.8805 132.415 7.15741 132.394 7.44124 132.38C7.73199 132.359 8.00543 132.349 8.26157 132.349C8.59386 132.349 8.90192 132.366 9.18575 132.401C9.46958 132.435 9.72226 132.512 9.94378 132.629C10.1653 132.747 10.3349 132.93 10.4526 133.18C10.5772 133.422 10.6395 133.751 10.6395 134.166C10.6395 134.581 10.5945 134.914 10.5045 135.163C10.4214 135.405 10.283 135.603 10.0892 135.755C9.90225 135.9 9.65303 136.039 9.34151 136.17L7.2024 137.074C7.02242 137.15 6.89088 137.236 6.80781 137.333C6.73166 137.43 6.6832 137.558 6.66244 137.717C6.64167 137.87 6.63128 138.067 6.63128 138.309V138.797H10.6395V139.576H5.76941ZM14.8591 139.659C14.3399 139.659 13.9107 139.632 13.5714 139.576C13.2392 139.514 12.9761 139.407 12.7823 139.254C12.5954 139.102 12.4569 138.891 12.3669 138.621C12.2838 138.344 12.2285 137.994 12.2008 137.572C12.18 137.143 12.1696 136.62 12.1696 136.004C12.1696 135.388 12.18 134.869 12.2008 134.446C12.2285 134.017 12.2838 133.668 12.3669 133.398C12.4569 133.121 12.5954 132.906 12.7823 132.754C12.9761 132.602 13.2392 132.498 13.5714 132.442C13.9107 132.38 14.3399 132.349 14.8591 132.349C15.3783 132.349 15.804 132.38 16.1363 132.442C16.4755 132.498 16.7386 132.602 16.9255 132.754C17.1193 132.906 17.2612 133.121 17.3512 133.398C17.4412 133.668 17.4966 134.017 17.5174 134.446C17.5381 134.869 17.5485 135.388 17.5485 136.004C17.5485 136.62 17.5381 137.143 17.5174 137.572C17.4966 137.994 17.4412 138.344 17.3512 138.621C17.2612 138.891 17.1193 139.102 16.9255 139.254C16.7386 139.407 16.4755 139.514 16.1363 139.576C15.804 139.632 15.3783 139.659 14.8591 139.659ZM14.8591 138.891C15.2121 138.891 15.4994 138.88 15.7209 138.86C15.9425 138.832 16.1155 138.773 16.2401 138.683C16.3717 138.593 16.4651 138.444 16.5205 138.237C16.5828 138.029 16.6209 137.745 16.6347 137.385C16.6555 137.025 16.6659 136.565 16.6659 136.004C16.6659 135.443 16.6555 134.983 16.6347 134.623C16.6209 134.263 16.5828 133.979 16.5205 133.772C16.4651 133.564 16.3717 133.415 16.2401 133.325C16.1155 133.235 15.9425 133.18 15.7209 133.159C15.4994 133.131 15.2121 133.117 14.8591 133.117C14.5199 133.117 14.236 133.131 14.0076 133.159C13.7791 133.18 13.5991 133.235 13.4676 133.325C13.343 133.415 13.2495 133.564 13.1872 133.772C13.1319 133.979 13.0972 134.263 13.0834 134.623C13.0696 134.983 13.0626 135.443 13.0626 136.004C13.0626 136.565 13.0696 137.025 13.0834 137.385C13.0972 137.745 13.1319 138.029 13.1872 138.237C13.2495 138.444 13.343 138.593 13.4676 138.683C13.5991 138.773 13.7757 138.832 13.9972 138.86C14.2256 138.88 14.5129 138.891 14.8591 138.891ZM19.3854 139.576V132.432H20.2785V135.558H21.5557L24.0063 132.432H24.9928L22.2826 135.9L25.024 139.576H23.9856L21.5557 136.336H20.2785V139.576H19.3854Z" fill="#5B5B5B"/>
<path d="M8.84039 103.482C8.62579 103.482 8.38696 103.471 8.1239 103.45C7.86776 103.437 7.61508 103.416 7.36586 103.388C7.12357 103.36 6.90897 103.333 6.72206 103.305V102.588C6.95743 102.609 7.20318 102.63 7.45932 102.651C7.71546 102.672 7.95775 102.689 8.1862 102.703C8.41465 102.71 8.61195 102.713 8.77809 102.713C9.18653 102.713 9.53266 102.689 9.81649 102.64C10.1003 102.585 10.3115 102.471 10.4499 102.298C10.5953 102.118 10.668 101.837 10.668 101.457C10.668 101.138 10.623 100.886 10.533 100.699C10.443 100.505 10.2976 100.37 10.0969 100.294C9.8961 100.211 9.62958 100.169 9.29729 100.169H7.95775V99.3902H9.29729C9.53266 99.3902 9.74726 99.3591 9.9411 99.2968C10.1349 99.2345 10.2907 99.1168 10.4084 98.9437C10.5261 98.7706 10.5849 98.5145 10.5849 98.1753C10.5849 97.8015 10.5226 97.528 10.398 97.3549C10.2734 97.1819 10.0692 97.0711 9.78534 97.0227C9.50843 96.9673 9.13807 96.9396 8.67425 96.9396C8.48734 96.9396 8.27966 96.9465 8.05121 96.9604C7.82276 96.9742 7.59431 96.9915 7.36586 97.0123C7.14434 97.0261 6.94358 97.0469 6.76359 97.0746V96.3477C6.9505 96.3131 7.16511 96.2854 7.4074 96.2646C7.64969 96.2369 7.89891 96.2162 8.15505 96.2023C8.41119 96.1816 8.6431 96.1712 8.85078 96.1712C9.35613 96.1712 9.77842 96.2092 10.1176 96.2854C10.4568 96.3615 10.7268 96.4758 10.9276 96.6281C11.1283 96.7804 11.2703 96.9742 11.3533 97.2096C11.4433 97.4449 11.4883 97.7253 11.4883 98.0507C11.4883 98.5699 11.381 98.9575 11.1664 99.2137C10.9587 99.4698 10.6611 99.6429 10.2734 99.7329V99.7744C10.5364 99.8229 10.7649 99.906 10.9587 100.024C11.1526 100.141 11.3014 100.318 11.4052 100.553C11.516 100.789 11.5714 101.1 11.5714 101.488C11.5714 101.792 11.5333 102.069 11.4572 102.319C11.3879 102.561 11.2564 102.768 11.0626 102.942C10.8687 103.115 10.5918 103.25 10.2318 103.347C9.87879 103.437 9.41497 103.482 8.84039 103.482ZM15.8141 103.482C15.2949 103.482 14.8657 103.454 14.5265 103.398C14.1942 103.336 13.9312 103.229 13.7373 103.077C13.5504 102.924 13.412 102.713 13.322 102.443C13.2389 102.166 13.1835 101.817 13.1558 101.394C13.1351 100.965 13.1247 100.442 13.1247 99.8263C13.1247 99.2102 13.1351 98.691 13.1558 98.2687C13.1835 97.8395 13.2389 97.4899 13.322 97.22C13.412 96.943 13.5504 96.7284 13.7373 96.5761C13.9312 96.4238 14.1942 96.32 14.5265 96.2646C14.8657 96.2023 15.2949 96.1712 15.8141 96.1712C16.3333 96.1712 16.7591 96.2023 17.0914 96.2646C17.4306 96.32 17.6936 96.4238 17.8806 96.5761C18.0744 96.7284 18.2163 96.943 18.3063 97.22C18.3963 97.4899 18.4517 97.8395 18.4724 98.2687C18.4932 98.691 18.5036 99.2102 18.5036 99.8263C18.5036 100.442 18.4932 100.965 18.4724 101.394C18.4517 101.817 18.3963 102.166 18.3063 102.443C18.2163 102.713 18.0744 102.924 17.8806 103.077C17.6936 103.229 17.4306 103.336 17.0914 103.398C16.7591 103.454 16.3333 103.482 15.8141 103.482ZM15.8141 102.713C16.1672 102.713 16.4545 102.703 16.676 102.682C16.8975 102.654 17.0706 102.595 17.1952 102.505C17.3267 102.415 17.4202 102.267 17.4756 102.059C17.5379 101.851 17.576 101.567 17.5898 101.207C17.6106 100.847 17.621 100.387 17.621 99.8263C17.621 99.2656 17.6106 98.8052 17.5898 98.4453C17.576 98.0853 17.5379 97.8015 17.4756 97.5938C17.4202 97.3861 17.3267 97.2373 17.1952 97.1473C17.0706 97.0573 16.8975 97.0019 16.676 96.9811C16.4545 96.9534 16.1672 96.9396 15.8141 96.9396C15.4749 96.9396 15.1911 96.9534 14.9627 96.9811C14.7342 97.0019 14.5542 97.0573 14.4227 97.1473C14.2981 97.2373 14.2046 97.3861 14.1423 97.5938C14.0869 97.8015 14.0523 98.0853 14.0385 98.4453C14.0246 98.8052 14.0177 99.2656 14.0177 99.8263C14.0177 100.387 14.0246 100.847 14.0385 101.207C14.0523 101.567 14.0869 101.851 14.1423 102.059C14.2046 102.267 14.2981 102.415 14.4227 102.505C14.5542 102.595 14.7307 102.654 14.9523 102.682C15.1807 102.703 15.468 102.713 15.8141 102.713ZM20.3405 103.398V96.2542H21.2335V99.3798H22.5108L24.9614 96.2542H25.9479L23.2377 99.7225L25.979 103.398H24.9406L22.5108 100.159H21.2335V103.398H20.3405Z" fill="#5B5B5B"/>
<path d="M10.8752 67.2207V65.5489H7.10585V64.8635L9.89915 60.0765H10.8856L8.10272 64.7805H10.8856L11.0725 62.2364H11.7683V64.7805H12.8274V65.5489H11.7683V67.2207H10.8752ZM16.7692 67.3038C16.25 67.3038 15.8208 67.2761 15.4816 67.2207C15.1493 67.1584 14.8863 67.0511 14.6924 66.8988C14.5055 66.7465 14.3671 66.5354 14.2771 66.2654C14.194 65.9885 14.1386 65.6389 14.1109 65.2166C14.0901 64.7874 14.0798 64.2647 14.0798 63.6486C14.0798 63.0325 14.0901 62.5133 14.1109 62.091C14.1386 61.6618 14.194 61.3122 14.2771 61.0422C14.3671 60.7653 14.5055 60.5507 14.6924 60.3984C14.8863 60.2461 15.1493 60.1423 15.4816 60.0869C15.8208 60.0246 16.25 59.9934 16.7692 59.9934C17.2884 59.9934 17.7142 60.0246 18.0465 60.0869C18.3857 60.1423 18.6487 60.2461 18.8356 60.3984C19.0295 60.5507 19.1714 60.7653 19.2614 61.0422C19.3514 61.3122 19.4068 61.6618 19.4275 62.091C19.4483 62.5133 19.4587 63.0325 19.4587 63.6486C19.4587 64.2647 19.4483 64.7874 19.4275 65.2166C19.4068 65.6389 19.3514 65.9885 19.2614 66.2654C19.1714 66.5354 19.0295 66.7465 18.8356 66.8988C18.6487 67.0511 18.3857 67.1584 18.0465 67.2207C17.7142 67.2761 17.2884 67.3038 16.7692 67.3038ZM16.7692 66.5354C17.1223 66.5354 17.4096 66.525 17.6311 66.5042C17.8526 66.4765 18.0257 66.4177 18.1503 66.3277C18.2818 66.2377 18.3753 66.0888 18.4307 65.8812C18.493 65.6735 18.531 65.3897 18.5449 65.0297C18.5657 64.6697 18.576 64.2093 18.576 63.6486C18.576 63.0879 18.5657 62.6275 18.5449 62.2675C18.531 61.9076 18.493 61.6237 18.4307 61.416C18.3753 61.2084 18.2818 61.0595 18.1503 60.9695C18.0257 60.8795 17.8526 60.8242 17.6311 60.8034C17.4096 60.7757 17.1223 60.7619 16.7692 60.7619C16.43 60.7619 16.1462 60.7757 15.9177 60.8034C15.6893 60.8242 15.5093 60.8795 15.3778 60.9695C15.2532 61.0595 15.1597 61.2084 15.0974 61.416C15.042 61.6237 15.0074 61.9076 14.9936 62.2675C14.9797 62.6275 14.9728 63.0879 14.9728 63.6486C14.9728 64.2093 14.9797 64.6697 14.9936 65.0297C15.0074 65.3897 15.042 65.6735 15.0974 65.8812C15.1597 66.0888 15.2532 66.2377 15.3778 66.3277C15.5093 66.4177 15.6858 66.4765 15.9073 66.5042C16.1358 66.525 16.4231 66.5354 16.7692 66.5354ZM21.2956 67.2207V60.0765H22.1886V63.2021H23.4658L25.9165 60.0765H26.903L24.1927 63.5448L26.9341 67.2207H25.8957L23.4658 63.9809H22.1886V67.2207H21.2956Z" fill="#5B5B5B"/>
<path d="M9.84163 31.1241C9.62703 31.1241 9.39166 31.1137 9.13552 31.0929C8.87938 31.0791 8.6267 31.0618 8.37749 31.041C8.12827 31.0133 7.90674 30.9822 7.71291 30.9476V30.2311C7.9552 30.2518 8.20442 30.2726 8.46056 30.2934C8.7167 30.3141 8.95899 30.3314 9.18744 30.3453C9.41589 30.3522 9.61318 30.3557 9.77933 30.3557C10.167 30.3557 10.482 30.3349 10.7243 30.2934C10.9735 30.2449 11.1639 30.1688 11.2954 30.0649C11.4338 29.9542 11.5308 29.8088 11.5861 29.6288C11.6415 29.4419 11.6692 29.21 11.6692 28.9331C11.6692 28.6285 11.6381 28.3862 11.5758 28.2062C11.5204 28.0193 11.4165 27.8808 11.2642 27.7908C11.1189 27.7008 10.9146 27.642 10.6516 27.6143C10.3885 27.5797 10.0493 27.5624 9.63395 27.5624C9.4955 27.5624 9.32243 27.5693 9.11475 27.5831C8.91399 27.5901 8.69939 27.6039 8.47094 27.6247C8.24249 27.6454 8.01751 27.6697 7.79598 27.6974V23.8968H12.043V24.6756H8.61632V26.8978C8.75477 26.877 8.91399 26.8597 9.09398 26.8459C9.28089 26.8251 9.46781 26.8113 9.65472 26.8043C9.84855 26.7974 10.0285 26.794 10.1947 26.794C10.707 26.794 11.1189 26.8355 11.4304 26.9186C11.7419 27.0016 11.9773 27.1332 12.1365 27.3132C12.3026 27.4862 12.4169 27.7008 12.4792 27.957C12.5415 28.2062 12.5726 28.4969 12.5726 28.8292C12.5726 29.2515 12.5311 29.6115 12.448 29.9092C12.3719 30.1999 12.2334 30.4353 12.0327 30.6153C11.8388 30.7883 11.5654 30.9164 11.2123 30.9995C10.8593 31.0826 10.4024 31.1241 9.84163 31.1241ZM16.7692 31.1241C16.25 31.1241 15.8208 31.0964 15.4816 31.041C15.1493 30.9787 14.8863 30.8714 14.6924 30.7191C14.5055 30.5668 14.3671 30.3557 14.2771 30.0857C14.194 29.8088 14.1386 29.4592 14.1109 29.0369C14.0901 28.6077 14.0798 28.085 14.0798 27.4689C14.0798 26.8528 14.0901 26.3336 14.1109 25.9113C14.1386 25.4821 14.194 25.1325 14.2771 24.8625C14.3671 24.5856 14.5055 24.371 14.6924 24.2187C14.8863 24.0664 15.1493 23.9626 15.4816 23.9072C15.8208 23.8449 16.25 23.8137 16.7692 23.8137C17.2884 23.8137 17.7142 23.8449 18.0465 23.9072C18.3857 23.9626 18.6487 24.0664 18.8356 24.2187C19.0295 24.371 19.1714 24.5856 19.2614 24.8625C19.3514 25.1325 19.4068 25.4821 19.4275 25.9113C19.4483 26.3336 19.4587 26.8528 19.4587 27.4689C19.4587 28.085 19.4483 28.6077 19.4275 29.0369C19.4068 29.4592 19.3514 29.8088 19.2614 30.0857C19.1714 30.3557 19.0295 30.5668 18.8356 30.7191C18.6487 30.8714 18.3857 30.9787 18.0465 31.041C17.7142 31.0964 17.2884 31.1241 16.7692 31.1241ZM16.7692 30.3557C17.1223 30.3557 17.4096 30.3453 17.6311 30.3245C17.8526 30.2968 18.0257 30.238 18.1503 30.148C18.2818 30.058 18.3753 29.9092 18.4307 29.7015C18.493 29.4938 18.531 29.21 18.5449 28.85C18.5657 28.49 18.576 28.0297 18.576 27.4689C18.576 26.9082 18.5657 26.4478 18.5449 26.0878C18.531 25.7279 18.493 25.444 18.4307 25.2364C18.3753 25.0287 18.2818 24.8798 18.1503 24.7898C18.0257 24.6999 17.8526 24.6445 17.6311 24.6237C17.4096 24.596 17.1223 24.5822 16.7692 24.5822C16.43 24.5822 16.1462 24.596 15.9177 24.6237C15.6893 24.6445 15.5093 24.6999 15.3778 24.7898C15.2532 24.8798 15.1597 25.0287 15.0974 25.2364C15.042 25.444 15.0074 25.7279 14.9936 26.0878C14.9797 26.4478 14.9728 26.9082 14.9728 27.4689C14.9728 28.0297 14.9797 28.49 14.9936 28.85C15.0074 29.21 15.042 29.4938 15.0974 29.7015C15.1597 29.9092 15.2532 30.058 15.3778 30.148C15.5093 30.238 15.6858 30.2968 15.9073 30.3245C16.1358 30.3453 16.4231 30.3557 16.7692 30.3557ZM21.2956 31.041V23.8968H22.1886V27.0224H23.4658L25.9165 23.8968H26.903L24.1927 27.3651L26.9341 31.041H25.8957L23.4658 27.8012H22.1886V31.041H21.2956Z" fill="#5B5B5B"/>
<path d="M185.604 231.93V224.785H190.038V225.554H186.497V228.098H189.654V228.866H186.497V231.93H185.604ZM193.338 232.013C192.908 232.013 192.548 231.985 192.258 231.93C191.974 231.874 191.745 231.784 191.572 231.66C191.399 231.528 191.268 231.359 191.178 231.151C191.088 230.936 191.029 230.677 191.001 230.372C190.974 230.067 190.96 229.708 190.96 229.292C190.96 228.801 190.98 228.382 191.022 228.036C191.064 227.683 191.157 227.399 191.302 227.184C191.455 226.963 191.69 226.803 192.008 226.707C192.327 226.603 192.756 226.551 193.296 226.551C193.705 226.551 194.037 226.582 194.293 226.644C194.556 226.707 194.764 226.803 194.916 226.935C195.068 227.067 195.179 227.243 195.248 227.465C195.324 227.679 195.373 227.939 195.394 228.243C195.414 228.541 195.425 228.887 195.425 229.282V229.562H191.801C191.801 229.922 191.818 230.216 191.853 230.445C191.887 230.673 191.957 230.85 192.06 230.974C192.171 231.099 192.341 231.186 192.569 231.234C192.805 231.282 193.123 231.307 193.525 231.307C193.691 231.307 193.874 231.303 194.075 231.296C194.276 231.282 194.476 231.265 194.677 231.244C194.878 231.224 195.058 231.203 195.217 231.182V231.867C195.072 231.895 194.892 231.919 194.677 231.94C194.469 231.961 194.248 231.978 194.013 231.992C193.784 232.006 193.559 232.013 193.338 232.013ZM194.604 229.136V228.856C194.604 228.496 194.584 228.212 194.542 228.005C194.501 227.79 194.428 227.631 194.324 227.527C194.227 227.416 194.092 227.343 193.919 227.309C193.746 227.274 193.531 227.257 193.275 227.257C192.943 227.257 192.68 227.281 192.486 227.33C192.292 227.371 192.147 227.451 192.05 227.568C191.953 227.686 191.887 227.856 191.853 228.077C191.818 228.299 191.801 228.593 191.801 228.96H194.802L194.604 229.136ZM199.585 232.013C199.342 232.013 199.107 231.992 198.878 231.95C198.65 231.916 198.446 231.84 198.266 231.722C198.086 231.597 197.944 231.414 197.84 231.172H197.778L197.747 231.93H196.978V224.214H197.83V227.309H197.882C197.979 227.115 198.107 226.963 198.266 226.852C198.432 226.741 198.626 226.665 198.847 226.623C199.069 226.575 199.322 226.551 199.605 226.551C199.986 226.551 200.301 226.596 200.55 226.686C200.8 226.769 200.997 226.911 201.142 227.112C201.288 227.312 201.388 227.589 201.443 227.942C201.506 228.295 201.537 228.742 201.537 229.282C201.537 229.822 201.506 230.268 201.443 230.621C201.381 230.974 201.277 231.251 201.132 231.452C200.986 231.653 200.786 231.798 200.53 231.888C200.28 231.971 199.965 232.013 199.585 232.013ZM199.252 231.265C199.571 231.265 199.823 231.244 200.01 231.203C200.204 231.154 200.35 231.064 200.446 230.933C200.543 230.801 200.609 230.604 200.644 230.341C200.678 230.078 200.696 229.725 200.696 229.282C200.696 228.839 200.678 228.489 200.644 228.233C200.609 227.97 200.543 227.773 200.446 227.641C200.35 227.503 200.204 227.413 200.01 227.371C199.823 227.33 199.571 227.309 199.252 227.309C198.913 227.309 198.643 227.354 198.442 227.444C198.242 227.527 198.1 227.662 198.017 227.849C197.934 228.029 197.882 228.236 197.861 228.472C197.84 228.7 197.83 228.97 197.83 229.282C197.83 229.586 197.837 229.856 197.85 230.092C197.871 230.32 197.923 230.524 198.006 230.704C198.096 230.898 198.242 231.04 198.442 231.13C198.643 231.22 198.913 231.265 199.252 231.265Z" fill="#5B5B5B"/>
<path d="M275.406 230.977V223.832H276.61L279.05 229.523H279.102L281.532 223.832H282.737V230.977H281.864V225.265H281.823L279.383 230.977H278.728L276.288 225.265H276.247V230.977H275.406ZM286.093 231.06C285.706 231.06 285.38 231.015 285.117 230.925C284.861 230.835 284.667 230.679 284.536 230.457C284.411 230.236 284.349 229.924 284.349 229.523C284.349 229.121 284.394 228.806 284.484 228.578C284.581 228.342 284.747 228.176 284.982 228.079C285.218 227.983 285.546 227.934 285.969 227.934C286.038 227.934 286.145 227.938 286.291 227.944C286.443 227.944 286.616 227.948 286.81 227.955C287.004 227.955 287.197 227.958 287.391 227.965C287.592 227.965 287.776 227.969 287.942 227.976V227.643C287.942 227.332 287.921 227.089 287.879 226.916C287.845 226.736 287.769 226.605 287.651 226.522C287.533 226.432 287.367 226.376 287.152 226.356C286.945 226.328 286.668 226.314 286.322 226.314C286.169 226.314 285.989 226.321 285.782 226.335C285.574 226.342 285.37 226.356 285.169 226.376C284.975 226.39 284.82 226.408 284.702 226.428V225.743C284.965 225.695 285.259 225.66 285.585 225.639C285.917 225.611 286.259 225.598 286.613 225.598C286.986 225.598 287.301 225.622 287.557 225.67C287.821 225.712 288.032 225.781 288.191 225.878C288.357 225.975 288.482 226.103 288.565 226.262C288.648 226.421 288.703 226.615 288.731 226.844C288.765 227.072 288.783 227.339 288.783 227.643V230.977H288.025L287.994 230.229H287.931C287.821 230.471 287.661 230.655 287.454 230.779C287.253 230.897 287.031 230.973 286.789 231.008C286.547 231.042 286.315 231.06 286.093 231.06ZM286.405 230.364C286.606 230.364 286.793 230.354 286.966 230.333C287.139 230.305 287.291 230.257 287.422 230.187C287.554 230.118 287.658 230.014 287.734 229.876C287.81 229.73 287.862 229.575 287.89 229.409C287.924 229.236 287.942 229.035 287.942 228.806V228.536H286.176C285.906 228.536 285.699 228.557 285.553 228.599C285.408 228.64 285.308 228.727 285.252 228.858C285.204 228.99 285.18 229.187 285.18 229.45C285.18 229.706 285.211 229.9 285.273 230.032C285.335 230.163 285.453 230.253 285.626 230.302C285.806 230.343 286.066 230.364 286.405 230.364ZM290.583 230.977V225.681H291.341L291.382 226.698H291.445C291.535 226.401 291.663 226.172 291.829 226.013C291.995 225.854 292.196 225.746 292.431 225.691C292.666 225.629 292.926 225.598 293.21 225.598V226.428C292.732 226.428 292.365 226.505 292.109 226.657C291.853 226.809 291.676 227.044 291.58 227.363C291.483 227.681 291.434 228.083 291.434 228.567V230.977H290.583Z" fill="#5B5B5B"/>
<path d="M365.414 230.977L368.114 223.832H369.235L371.925 230.977H371L370.263 229.024H367.054L366.317 230.977H365.414ZM367.324 228.246H369.993L368.685 224.746H368.633L367.324 228.246ZM373.115 233.043V225.681H373.883L373.914 226.439H373.976C374.08 226.203 374.222 226.023 374.402 225.899C374.582 225.774 374.786 225.695 375.015 225.66C375.243 225.618 375.479 225.598 375.721 225.598C376.102 225.598 376.417 225.639 376.666 225.722C376.922 225.805 377.123 225.951 377.268 226.158C377.413 226.359 377.517 226.636 377.58 226.989C377.642 227.342 377.673 227.785 377.673 228.318C377.673 228.858 377.642 229.308 377.58 229.668C377.524 230.021 377.424 230.298 377.278 230.499C377.133 230.7 376.936 230.845 376.687 230.935C376.437 231.018 376.122 231.06 375.742 231.06C375.458 231.06 375.205 231.035 374.984 230.987C374.762 230.945 374.568 230.869 374.402 230.758C374.243 230.648 374.115 230.495 374.018 230.302H373.966V233.043H373.115ZM375.389 230.302C375.707 230.302 375.96 230.281 376.147 230.239C376.34 230.198 376.486 230.111 376.583 229.98C376.68 229.841 376.745 229.644 376.78 229.388C376.815 229.125 376.832 228.772 376.832 228.329C376.832 227.886 376.815 227.533 376.78 227.269C376.745 227.006 376.68 226.809 376.583 226.678C376.486 226.546 376.34 226.46 376.147 226.418C375.96 226.37 375.707 226.345 375.389 226.345C375.036 226.345 374.755 226.397 374.548 226.501C374.347 226.598 374.201 226.754 374.111 226.968C374.042 227.134 374.001 227.332 373.987 227.56C373.973 227.789 373.966 228.045 373.966 228.329C373.966 228.619 373.973 228.876 373.987 229.097C374.001 229.312 374.035 229.492 374.091 229.637C374.188 229.879 374.34 230.052 374.548 230.156C374.755 230.253 375.036 230.302 375.389 230.302ZM379.239 230.977V225.681H379.997L380.039 226.698H380.101C380.191 226.401 380.319 226.172 380.486 226.013C380.652 225.854 380.852 225.746 381.088 225.691C381.323 225.629 381.583 225.598 381.867 225.598V226.428C381.389 226.428 381.022 226.505 380.766 226.657C380.51 226.809 380.333 227.044 380.236 227.363C380.139 227.681 380.091 228.083 380.091 228.567V230.977H379.239Z" fill="#5B5B5B"/>
<path d="M456.917 230.977V223.832H458.122L460.562 229.523H460.614L463.044 223.832H464.248V230.977H463.376V225.265H463.335L460.894 230.977H460.24L457.8 225.265H457.758V230.977H456.917ZM467.605 231.06C467.217 231.06 466.892 231.015 466.629 230.925C466.373 230.835 466.179 230.679 466.047 230.457C465.923 230.236 465.861 229.924 465.861 229.523C465.861 229.121 465.906 228.806 465.996 228.578C466.092 228.342 466.259 228.176 466.494 228.079C466.729 227.983 467.058 227.934 467.48 227.934C467.55 227.934 467.657 227.938 467.802 227.944C467.955 227.944 468.128 227.948 468.322 227.955C468.515 227.955 468.709 227.958 468.903 227.965C469.104 227.965 469.287 227.969 469.453 227.976V227.643C469.453 227.332 469.433 227.089 469.391 226.916C469.356 226.736 469.28 226.605 469.163 226.522C469.045 226.432 468.879 226.376 468.664 226.356C468.457 226.328 468.18 226.314 467.833 226.314C467.681 226.314 467.501 226.321 467.294 226.335C467.086 226.342 466.882 226.356 466.681 226.376C466.487 226.39 466.331 226.408 466.214 226.428V225.743C466.477 225.695 466.771 225.66 467.096 225.639C467.429 225.611 467.771 225.598 468.124 225.598C468.498 225.598 468.813 225.622 469.069 225.67C469.332 225.712 469.543 225.781 469.703 225.878C469.869 225.975 469.993 226.103 470.076 226.262C470.16 226.421 470.215 226.615 470.243 226.844C470.277 227.072 470.294 227.339 470.294 227.643V230.977H469.536L469.505 230.229H469.443C469.332 230.471 469.173 230.655 468.965 230.779C468.765 230.897 468.543 230.973 468.301 231.008C468.058 231.042 467.827 231.06 467.605 231.06ZM467.917 230.364C468.117 230.364 468.304 230.354 468.477 230.333C468.65 230.305 468.803 230.257 468.934 230.187C469.066 230.118 469.17 230.014 469.246 229.876C469.322 229.73 469.374 229.575 469.401 229.409C469.436 229.236 469.453 229.035 469.453 228.806V228.536H467.688C467.418 228.536 467.21 228.557 467.065 228.599C466.92 228.64 466.819 228.727 466.764 228.858C466.715 228.99 466.691 229.187 466.691 229.45C466.691 229.706 466.722 229.9 466.785 230.032C466.847 230.163 466.965 230.253 467.138 230.302C467.318 230.343 467.577 230.364 467.917 230.364ZM474.13 233.116C473.929 233.116 473.718 233.109 473.496 233.095C473.282 233.088 473.074 233.078 472.873 233.064C472.679 233.057 472.506 233.043 472.354 233.022V232.347C472.582 232.354 472.79 232.361 472.977 232.368C473.171 232.382 473.347 232.389 473.507 232.389C473.673 232.396 473.822 232.399 473.953 232.399C474.355 232.399 474.67 232.368 474.898 232.306C475.133 232.243 475.307 232.14 475.417 231.994C475.528 231.856 475.597 231.669 475.625 231.433C475.66 231.198 475.677 230.911 475.677 230.572V230.26H475.615C475.559 230.399 475.466 230.527 475.334 230.644C475.203 230.762 475.023 230.855 474.794 230.925C474.566 230.994 474.268 231.028 473.901 231.028C473.514 231.028 473.199 230.99 472.956 230.914C472.721 230.831 472.541 230.707 472.416 230.54C472.292 230.367 472.205 230.153 472.157 229.897C472.115 229.64 472.094 229.336 472.094 228.983V225.681H472.946V228.682C472.946 229.042 472.96 229.329 472.987 229.544C473.015 229.758 473.074 229.921 473.164 230.032C473.261 230.135 473.396 230.205 473.569 230.239C473.742 230.274 473.967 230.291 474.244 230.291C474.59 230.291 474.86 230.25 475.054 230.167C475.248 230.077 475.386 229.949 475.469 229.782C475.559 229.616 475.615 229.419 475.635 229.191C475.663 228.955 475.677 228.692 475.677 228.401V225.681H476.518V230.322C476.518 230.828 476.49 231.257 476.435 231.61C476.386 231.97 476.279 232.257 476.113 232.472C475.954 232.693 475.715 232.856 475.397 232.96C475.078 233.064 474.656 233.116 474.13 233.116Z" fill="#5B5B5B"/>
<path d="M546.979 230.977V230.239C547.353 230.232 547.641 230.212 547.841 230.177C548.042 230.142 548.187 230.07 548.277 229.959C548.367 229.841 548.419 229.658 548.433 229.409C548.454 229.152 548.464 228.799 548.464 228.349V223.832H549.357V228.069C549.357 228.623 549.347 229.083 549.326 229.45C549.305 229.81 549.257 230.094 549.181 230.302C549.105 230.502 548.98 230.651 548.807 230.748C548.641 230.845 548.409 230.907 548.111 230.935C547.82 230.963 547.443 230.977 546.979 230.977ZM553.028 231.06C552.64 231.06 552.325 231.018 552.083 230.935C551.847 230.852 551.667 230.727 551.543 230.561C551.418 230.395 551.332 230.184 551.283 229.928C551.242 229.665 551.221 229.353 551.221 228.993V225.681H552.072V228.702C552.072 229.056 552.086 229.339 552.114 229.554C552.142 229.769 552.2 229.931 552.29 230.042C552.387 230.146 552.522 230.215 552.695 230.25C552.869 230.284 553.094 230.302 553.37 230.302C553.717 230.302 553.987 230.26 554.18 230.177C554.374 230.087 554.513 229.962 554.596 229.803C554.686 229.637 554.741 229.44 554.762 229.211C554.79 228.976 554.803 228.709 554.803 228.412V225.681H555.645V230.977H554.886L554.855 230.219H554.783C554.713 230.385 554.61 230.53 554.471 230.655C554.34 230.779 554.156 230.88 553.921 230.956C553.685 231.025 553.388 231.06 553.028 231.06ZM557.437 230.977V225.681H558.206L558.237 226.439H558.299C558.375 226.273 558.479 226.127 558.611 226.003C558.749 225.878 558.932 225.781 559.161 225.712C559.396 225.636 559.694 225.598 560.054 225.598C560.448 225.598 560.763 225.639 560.999 225.722C561.234 225.805 561.414 225.93 561.539 226.096C561.67 226.262 561.757 226.477 561.798 226.74C561.84 226.996 561.861 227.304 561.861 227.664V230.977H561.02V227.955C561.02 227.595 561.002 227.311 560.968 227.103C560.94 226.889 560.881 226.73 560.791 226.626C560.701 226.515 560.57 226.442 560.397 226.408C560.224 226.373 559.995 226.356 559.711 226.356C559.372 226.356 559.106 226.401 558.912 226.491C558.718 226.574 558.576 226.698 558.486 226.864C558.396 227.024 558.341 227.221 558.32 227.456C558.299 227.685 558.289 227.948 558.289 228.246V230.977H557.437Z" fill="#5B5B5B"/>
<path d="M39.3564 0L39.3564 208.504" stroke="#F0EEEE" stroke-width="0.798769"/>
<line x1="603" y1="207.952" x2="39.3562" y2="207.952" stroke="#F0EEEE" stroke-width="0.798769"/>
<defs>
<filter id="filter0_d_2073_8989" x="211.284" y="0.27586" width="133.81" height="86.7681" filterUnits="userSpaceOnUse" color-interpolation-filters="sRGB">
<feFlood flood-opacity="0" result="BackgroundImageFix"/>
<feColorMatrix in="SourceAlpha" type="matrix" values="0 0 0 0 0 0 0 0 0 0 0 0 0 0 0 0 0 0 127 0" result="hardAlpha"/>
<feOffset dy="3.19508"/>
<feGaussianBlur stdDeviation="4.79262"/>
<feComposite in2="hardAlpha" operator="out"/>
<feColorMatrix type="matrix" values="0 0 0 0 0.429167 0 0 0 0 0.429167 0 0 0 0 0.429167 0 0 0 0.15 0"/>
<feBlend mode="normal" in2="BackgroundImageFix" result="effect1_dropShadow_2073_8989"/>
<feBlend mode="normal" in="SourceGraphic" in2="effect1_dropShadow_2073_8989" result="shape"/>
</filter>
</defs>
</svg>
