<svg width="32" height="33" viewBox="0 0 32 33" fill="none" xmlns="http://www.w3.org/2000/svg">
<path d="M24.4374 7.53076C25.5501 8.64515 26.4328 9.9683 27.035 11.4246C27.6372 12.8809 27.9472 14.4419 27.9472 16.0183C27.9472 17.5947 27.6372 19.1556 27.035 20.6119C26.4328 22.0682 25.5501 23.3914 24.4374 24.5058L19.4976 19.5558C20.4315 18.6163 20.9558 17.3443 20.9558 16.0183C20.9558 14.6922 20.4315 13.4202 19.4976 12.4808L24.4374 7.53076Z" fill="white"/>
<path d="M7.49718 24.5058C6.38449 23.3914 5.50182 22.0682 4.89961 20.6119C4.29739 19.1556 3.98743 17.5947 3.98743 16.0183C3.98743 14.4419 4.29739 12.8809 4.89961 11.4246C5.50182 9.9683 6.38449 8.64515 7.49718 7.53076L12.4371 12.4808C11.5031 13.4202 10.9788 14.6922 10.9788 16.0183C10.9788 17.3443 11.5031 18.6163 12.4371 19.5558L7.49718 24.5058Z" fill="white"/>
<path d="M15.9673 28.0183C22.5812 28.0183 27.9428 22.6457 27.9428 16.0183C27.9428 9.39089 22.5812 4.01831 15.9673 4.01831C9.35343 4.01831 3.99182 9.39089 3.99182 16.0183C3.99182 22.6457 9.35343 28.0183 15.9673 28.0183Z" stroke="white" stroke-width="1.99591" stroke-linecap="round" stroke-linejoin="round"/>
<path d="M15.9673 21.0183C18.7231 21.0183 20.9571 18.7797 20.9571 16.0183C20.9571 13.2569 18.7231 11.0183 15.9673 11.0183C13.2115 11.0183 10.9775 13.2569 10.9775 16.0183C10.9775 18.7797 13.2115 21.0183 15.9673 21.0183Z" stroke="white" stroke-width="1.99591" stroke-linecap="round" stroke-linejoin="round"/>
<path d="M12.4371 12.4808L7.49719 7.53076" stroke="white" stroke-width="1.99591" stroke-linecap="round" stroke-linejoin="round"/>
<path d="M19.4976 12.4808L24.4374 7.53076" stroke="white" stroke-width="1.99591" stroke-linecap="round" stroke-linejoin="round"/>
<path d="M19.4976 19.5557L24.4374 24.5057" stroke="white" stroke-width="1.99591" stroke-linecap="round" stroke-linejoin="round"/>
<path d="M12.4371 19.5557L7.49719 24.5057" stroke="white" stroke-width="1.99591" stroke-linecap="round" stroke-linejoin="round"/>
</svg>
