<svg width="175" height="8" viewBox="0 0 175 8" fill="none" xmlns="http://www.w3.org/2000/svg">
<path d="M158.555 0.0550132C158.389 0.0550132 158.247 0.0641322 158.128 0.0823698C158.009 0.100607 157.878 0.118844 157.736 0.137081C157.522 0.173555 157.38 0.273859 157.308 0.437994C157.166 0.693314 157.202 1.04894 157.415 1.50487C157.629 1.9608 157.962 2.5535 158.413 3.28299C158.579 3.50184 158.722 3.72068 158.84 3.93953C158.959 4.15837 159.066 4.35898 159.161 4.54135C159.28 4.74196 159.351 4.88786 159.375 4.97904C159.399 5.07023 159.422 5.14318 159.446 5.19789C158.923 5.28907 158.353 5.18877 157.736 4.89698C157.142 4.62342 156.536 4.28603 155.919 3.88481C155.753 3.79363 155.586 3.81187 155.42 3.93953C155.373 3.976 155.349 4.03071 155.349 4.10366C155.349 4.19485 155.396 4.25868 155.491 4.29515C156.204 4.75108 156.905 5.13406 157.593 5.44409C158.282 5.77236 158.983 5.86355 159.695 5.71765C159.862 5.6447 159.98 5.56263 160.052 5.47145C160.17 5.27084 160.135 4.96993 159.945 4.56871C159.779 4.18573 159.494 3.67509 159.09 3.03679C158.924 2.76323 158.757 2.48967 158.591 2.21611C158.448 1.96079 158.318 1.71459 158.199 1.47751C158.033 1.18572 157.95 0.985107 157.95 0.875685C157.95 0.766262 157.962 0.702433 157.985 0.684196C158.318 0.611247 158.781 0.620364 159.375 0.71155C159.992 0.802736 160.788 1.04894 161.762 1.45016C162.736 1.85137 163.923 2.48055 165.325 3.3377C166.203 3.86658 166.999 4.37722 167.712 4.86962C168.448 5.38026 169.03 5.79972 169.457 6.12798C169.885 6.47449 170.099 6.65686 170.099 6.6751C170.194 6.74805 170.312 6.76628 170.455 6.72981C170.502 6.71157 170.55 6.68422 170.597 6.64774C170.669 6.62951 170.716 6.60215 170.74 6.56568C170.835 6.43802 170.811 6.21917 170.669 5.90914C170.55 5.61734 170.312 5.1523 169.956 4.514C169.79 4.24044 169.636 3.96688 169.493 3.69332C169.351 3.438 169.22 3.18268 169.101 2.92736C169.006 2.63557 168.947 2.42584 168.923 2.29818C168.899 2.18876 168.887 2.11581 168.887 2.07934C169.552 1.95168 170.396 2.11581 171.417 2.57174C171.916 2.77235 172.414 3.02767 172.913 3.3377C173.412 3.66597 173.911 3.98512 174.41 4.29515C174.576 4.42281 174.742 4.41369 174.908 4.2678C175.051 4.1219 175.027 3.99424 174.837 3.88481C174.172 3.42888 173.483 2.99119 172.771 2.57174C172.082 2.17052 171.393 1.86961 170.704 1.669C170.016 1.46839 169.339 1.43192 168.674 1.55958C168.507 1.61429 168.365 1.69636 168.246 1.80578C168.104 2.0611 168.127 2.42584 168.317 2.90001C168.531 3.39241 168.852 4.01247 169.279 4.7602C169.374 4.90609 169.457 5.05199 169.529 5.19789C169.624 5.36202 169.719 5.51704 169.814 5.66294C169.362 5.3529 168.78 4.94257 168.068 4.43193C167.379 3.93953 166.607 3.438 165.752 2.92736C162.688 1.01246 160.289 0.0550132 158.555 0.0550132Z" fill="#91D4C4"/>
<path d="M139.593 0.0550132C139.427 0.0550132 139.285 0.0641322 139.166 0.0823698C139.047 0.100607 138.917 0.118844 138.774 0.137081C138.56 0.173555 138.418 0.273859 138.346 0.437994C138.204 0.693314 138.24 1.04894 138.453 1.50487C138.667 1.9608 139 2.5535 139.451 3.28299C139.617 3.50184 139.76 3.72068 139.878 3.93953C139.997 4.15837 140.104 4.35898 140.199 4.54135C140.318 4.74196 140.389 4.88786 140.413 4.97904C140.437 5.07023 140.46 5.14318 140.484 5.19789C139.962 5.28907 139.392 5.18877 138.774 4.89698C138.18 4.62342 137.575 4.28603 136.957 3.88481C136.791 3.79363 136.624 3.81187 136.458 3.93953C136.411 3.976 136.387 4.03071 136.387 4.10366C136.387 4.19485 136.434 4.25868 136.529 4.29515C137.242 4.75108 137.943 5.13406 138.631 5.44409C139.32 5.77236 140.021 5.86355 140.734 5.71765C140.9 5.6447 141.019 5.56263 141.09 5.47145C141.209 5.27084 141.173 4.96993 140.983 4.56871C140.817 4.18573 140.532 3.67509 140.128 3.03679C139.962 2.76323 139.795 2.48967 139.629 2.21611C139.487 1.96079 139.356 1.71459 139.237 1.47751C139.071 1.18572 138.988 0.985107 138.988 0.875685C138.988 0.766262 139 0.702433 139.023 0.684196C139.356 0.611247 139.819 0.620364 140.413 0.71155C141.03 0.802736 141.826 1.04894 142.8 1.45016C143.774 1.85137 144.961 2.48055 146.363 3.3377C147.242 3.86658 148.037 4.37722 148.75 4.86962C149.486 5.38026 150.068 5.79972 150.495 6.12798C150.923 6.47449 151.137 6.65686 151.137 6.6751C151.232 6.74805 151.351 6.76628 151.493 6.72981C151.541 6.71157 151.588 6.68422 151.636 6.64774C151.707 6.62951 151.754 6.60215 151.778 6.56568C151.873 6.43802 151.849 6.21917 151.707 5.90914C151.588 5.61734 151.351 5.1523 150.994 4.514C150.828 4.24044 150.674 3.96688 150.531 3.69332C150.389 3.438 150.258 3.18268 150.139 2.92736C150.044 2.63557 149.985 2.42584 149.961 2.29818C149.937 2.18876 149.925 2.11581 149.925 2.07934C150.591 1.95168 151.434 2.11581 152.455 2.57174C152.954 2.77235 153.453 3.02767 153.951 3.3377C154.45 3.66597 154.949 3.98512 155.448 4.29515C155.614 4.42281 155.78 4.41369 155.947 4.2678C156.089 4.1219 156.065 3.99424 155.875 3.88481C155.21 3.42888 154.521 2.99119 153.809 2.57174C153.12 2.17052 152.431 1.86961 151.742 1.669C151.054 1.46839 150.377 1.43192 149.712 1.55958C149.545 1.61429 149.403 1.69636 149.284 1.80578C149.142 2.0611 149.165 2.42584 149.355 2.90001C149.569 3.39241 149.89 4.01247 150.317 4.7602C150.412 4.90609 150.496 5.05199 150.567 5.19789C150.662 5.36202 150.757 5.51704 150.852 5.66294C150.4 5.3529 149.819 4.94257 149.106 4.43193C148.417 3.93953 147.645 3.438 146.79 2.92736C143.726 1.01246 141.327 0.0550132 139.593 0.0550132Z" fill="#91D4C4"/>
<path d="M130.983 1.61427C130.888 1.61427 130.817 1.63251 130.769 1.66898C130.627 1.76017 130.579 1.86047 130.627 1.96989C131.173 3.1006 131.601 4.06717 131.909 4.8696C132.218 5.67204 132.385 6.22827 132.408 6.5383C131.981 6.41064 131.244 6.19179 130.199 5.88176C129.178 5.58997 128.026 5.2617 126.743 4.89696C125.485 4.53221 124.25 4.17659 123.038 3.83008C122.777 3.79361 122.611 3.84832 122.539 3.99422C122.492 4.15835 122.563 4.28601 122.753 4.3772C123.822 4.68723 124.926 4.99726 126.067 5.30729C127.23 5.63556 128.299 5.93647 129.273 6.21003C130.247 6.48359 131.043 6.71155 131.66 6.89392C132.278 7.0763 132.586 7.16748 132.586 7.16748H132.836C132.978 7.13101 133.061 7.0763 133.085 7.00335C133.156 6.9304 133.192 6.81186 133.192 6.64772C133.192 6.48359 133.133 6.21915 133.014 5.85441C132.919 5.61732 132.824 5.35288 132.729 5.06109C132.634 4.78753 132.503 4.4775 132.337 4.13099C132.242 3.8392 132.123 3.53829 131.981 3.22826C131.862 2.93646 131.743 2.68114 131.624 2.4623C132.147 2.68114 132.836 2.9547 133.691 3.28297C134.57 3.62947 135.543 3.9851 136.612 4.34984C136.826 4.42279 136.992 4.3772 137.111 4.21306C137.159 4.14011 137.159 4.06717 137.111 3.99422C137.087 3.92127 137.028 3.87568 136.933 3.85744C135.84 3.4927 134.855 3.13707 133.976 2.79057C133.121 2.4623 132.432 2.18874 131.909 1.96989C131.411 1.76928 131.161 1.65986 131.161 1.64162C131.138 1.64162 131.114 1.6325 131.09 1.61427C131.066 1.61427 131.031 1.61427 130.983 1.61427Z" fill="#91D4C4"/>
<path d="M106.784 0.0550132C106.618 0.0550132 106.475 0.0641322 106.357 0.0823698C106.238 0.100607 106.107 0.118844 105.965 0.137081C105.751 0.173555 105.608 0.273859 105.537 0.437994C105.395 0.693314 105.43 1.04894 105.644 1.50487C105.858 1.9608 106.19 2.5535 106.642 3.28299C106.808 3.50184 106.95 3.72068 107.069 3.93953C107.188 4.15837 107.295 4.35898 107.39 4.54135C107.509 4.74196 107.58 4.88786 107.604 4.97904C107.627 5.07023 107.651 5.14318 107.675 5.19789C107.152 5.28907 106.582 5.18877 105.965 4.89698C105.371 4.62342 104.765 4.28603 104.148 3.88481C103.981 3.79363 103.815 3.81187 103.649 3.93953C103.601 3.976 103.578 4.03071 103.578 4.10366C103.578 4.19485 103.625 4.25868 103.72 4.29515C104.433 4.75108 105.133 5.13406 105.822 5.44409C106.511 5.77236 107.212 5.86355 107.924 5.71765C108.09 5.6447 108.209 5.56263 108.28 5.47145C108.399 5.27084 108.364 4.96993 108.174 4.56871C108.007 4.18573 107.722 3.67509 107.319 3.03679C107.152 2.76323 106.986 2.48967 106.82 2.21611C106.677 1.96079 106.547 1.71459 106.428 1.47751C106.262 1.18572 106.178 0.985107 106.178 0.875685C106.178 0.766262 106.19 0.702433 106.214 0.684196C106.547 0.611247 107.01 0.620364 107.604 0.71155C108.221 0.802736 109.017 1.04894 109.991 1.45016C110.964 1.85137 112.152 2.48055 113.553 3.3377C114.432 3.86658 115.228 4.37722 115.94 4.86962C116.677 5.38026 117.259 5.79972 117.686 6.12798C118.114 6.47449 118.327 6.65686 118.327 6.6751C118.422 6.74805 118.541 6.76628 118.684 6.72981C118.731 6.71157 118.779 6.68422 118.826 6.64774C118.898 6.62951 118.945 6.60215 118.969 6.56568C119.064 6.43802 119.04 6.21917 118.898 5.90914C118.779 5.61734 118.541 5.1523 118.185 4.514C118.019 4.24044 117.864 3.96688 117.722 3.69332C117.579 3.438 117.449 3.18268 117.33 2.92736C117.235 2.63557 117.176 2.42584 117.152 2.29818C117.128 2.18876 117.116 2.11581 117.116 2.07934C117.781 1.95168 118.624 2.11581 119.646 2.57174C120.144 2.77235 120.643 3.02767 121.142 3.3377C121.641 3.66597 122.14 3.98512 122.638 4.29515C122.805 4.42281 122.971 4.41369 123.137 4.2678C123.28 4.1219 123.256 3.99424 123.066 3.88481C122.401 3.42888 121.712 2.99119 121 2.57174C120.311 2.17052 119.622 1.86961 118.933 1.669C118.244 1.46839 117.567 1.43192 116.902 1.55958C116.736 1.61429 116.594 1.69636 116.475 1.80578C116.332 2.0611 116.356 2.42584 116.546 2.90001C116.76 3.39241 117.081 4.01247 117.508 4.7602C117.603 4.90609 117.686 5.05199 117.757 5.19789C117.852 5.36202 117.947 5.51704 118.042 5.66294C117.591 5.3529 117.009 4.94257 116.297 4.43193C115.608 3.93953 114.836 3.438 113.981 2.92736C110.917 1.01246 108.518 0.0550132 106.784 0.0550132Z" fill="#91D4C4"/>
<path d="M98.8252 2.43475H98.754C98.564 2.47123 98.4215 2.52594 98.3264 2.59889C98.2314 2.69007 98.1602 2.77214 98.1127 2.84509C98.0177 3.10041 98.1008 3.40132 98.3621 3.74783C98.6234 4.11257 98.944 4.50467 99.324 4.92412C99.514 5.12473 99.6922 5.31622 99.8584 5.49859C100.025 5.6992 100.155 5.88157 100.25 6.04571C100.417 6.24632 100.5 6.39221 100.5 6.4834C100.523 6.59282 100.523 6.66577 100.5 6.70225C100.5 6.70225 100.488 6.71137 100.464 6.7296C100.44 6.76608 100.369 6.79343 100.25 6.81167C99.8228 6.90286 99.324 6.82991 98.754 6.59282C98.2077 6.37398 97.6139 6.06395 96.9726 5.66273C96.3551 5.26151 95.7256 4.84206 95.0843 4.40437C94.9893 4.33142 94.8706 4.24935 94.7281 4.15816C94.6093 4.06698 94.4787 3.97579 94.3362 3.88461C94.1461 3.77518 93.9799 3.79342 93.8374 3.93932C93.7899 3.97579 93.7661 4.03051 93.7661 4.10345C93.7661 4.19464 93.8136 4.25847 93.9086 4.29494C94.0274 4.38613 94.1461 4.47732 94.2649 4.5685C94.3837 4.65969 94.5024 4.74175 94.6212 4.8147C95.3575 5.3071 96.0582 5.76303 96.7232 6.18249C97.412 6.60194 98.0652 6.92109 98.6827 7.13994C99.3003 7.37702 99.8822 7.43173 100.428 7.30407C100.69 7.2676 100.868 7.20377 100.963 7.11258C101.058 7.03963 101.117 6.95757 101.141 6.86638C101.284 6.59282 101.212 6.25544 100.927 5.85422C100.642 5.47124 100.298 5.0609 99.8941 4.62321C99.7278 4.44084 99.5615 4.25847 99.3953 4.0761C99.2528 3.89373 99.1221 3.72959 99.0034 3.5837C98.8846 3.38309 98.8134 3.23719 98.7896 3.146C98.7896 3.07305 98.7896 3.02746 98.7896 3.00922C98.7896 3.00922 98.8015 3.0001 98.8252 2.98187C98.849 2.98187 98.8727 2.98187 98.8965 2.98187C98.9915 3.0001 99.1934 3.0457 99.5022 3.11865C99.8109 3.20983 100.31 3.35573 100.999 3.55634C101.687 3.75695 102.649 4.0305 103.884 4.37701C104.122 4.41348 104.264 4.35877 104.312 4.21288C104.359 4.13993 104.359 4.06698 104.312 3.99403C104.288 3.92108 104.229 3.86637 104.134 3.8299C103.35 3.62929 102.661 3.4378 102.067 3.25543C101.474 3.09129 100.963 2.95451 100.535 2.84509C99.8941 2.66272 99.4665 2.54418 99.2528 2.48947C99.039 2.45299 98.8965 2.43475 98.8252 2.43475Z" fill="#91D4C4"/>
<path d="M85.6476 1.88749C85.5764 1.88749 85.517 1.88749 85.4695 1.88749C85.422 1.90573 85.3745 1.91485 85.327 1.91485C85.1132 1.93308 84.9707 2.03339 84.8994 2.21576C84.8044 2.41637 84.8401 2.66257 85.0063 2.95437C85.1964 3.24616 85.4814 3.62002 85.8614 4.07595C86.0277 4.27656 86.1939 4.47717 86.3602 4.67778C86.5264 4.87838 86.6571 5.06988 86.7521 5.25225C86.8946 5.48933 86.9777 5.66258 87.0015 5.77201C87.0252 5.88143 87.0252 5.95438 87.0015 5.99085C87.0015 5.99085 86.9777 5.99997 86.9302 6.01821C86.9065 6.03645 86.8708 6.05468 86.8233 6.07292C86.1583 6.20058 85.2439 6.25529 84.08 6.23705C82.9399 6.21882 81.4911 6.02733 79.7334 5.66258C77.9758 5.31608 75.8263 4.71425 73.2848 3.85711C73.1898 3.83887 73.0948 3.83887 72.9998 3.85711C72.9048 3.87534 72.8454 3.92093 72.8217 3.99388C72.7267 4.15802 72.7861 4.27656 72.9998 4.34951C74.3299 4.7872 75.5888 5.17018 76.7763 5.49845C77.9639 5.84495 79.0922 6.11851 80.161 6.31912C82.9637 6.86624 85.2438 6.95742 87.0015 6.59268C87.1915 6.57444 87.334 6.51973 87.429 6.42854C87.5478 6.33736 87.619 6.25529 87.6428 6.18234C87.809 5.89055 87.7497 5.53492 87.4646 5.11547C87.2034 4.69601 86.8827 4.25832 86.5027 3.80239C86.3602 3.62002 86.2295 3.45589 86.1108 3.30999C85.992 3.16409 85.8851 3.0182 85.7901 2.8723C85.6951 2.74464 85.6358 2.64433 85.612 2.57139C85.5882 2.51667 85.5764 2.47108 85.5764 2.43461C85.6476 2.43461 85.8139 2.44373 86.0752 2.46196C86.3364 2.49844 86.764 2.57139 87.3578 2.68081C87.9515 2.80847 88.771 2.99996 89.8161 3.25528C90.8611 3.52884 92.215 3.9027 93.8776 4.37686C94.1389 4.41334 94.3051 4.35863 94.3764 4.21273C94.4239 4.01212 94.3526 3.88446 94.1626 3.82975C92.215 3.30087 90.6593 2.89054 89.4954 2.59874C88.3316 2.32518 87.4528 2.13369 86.859 2.02427C86.2889 1.93309 85.8851 1.88749 85.6476 1.88749Z" fill="#91D4C4"/>
<path d="M57.0307 0.0550132C56.8644 0.0550132 56.7219 0.0641322 56.6032 0.0823698C56.4844 0.100607 56.3538 0.118844 56.2113 0.137081C55.9975 0.173555 55.855 0.273859 55.7837 0.437994C55.6412 0.693314 55.6769 1.04894 55.8906 1.50487C56.1044 1.9608 56.4369 2.5535 56.8882 3.28299C57.0545 3.50184 57.197 3.72068 57.3157 3.93953C57.4345 4.15837 57.5414 4.35898 57.6364 4.54135C57.7551 4.74196 57.8264 4.88786 57.8501 4.97904C57.8739 5.07023 57.8976 5.14318 57.9214 5.19789C57.3989 5.28907 56.8288 5.18877 56.2113 4.89698C55.6175 4.62342 55.0118 4.28603 54.3943 3.88481C54.228 3.79363 54.0617 3.81187 53.8955 3.93953C53.848 3.976 53.8242 4.03071 53.8242 4.10366C53.8242 4.19485 53.8717 4.25868 53.9667 4.29515C54.6793 4.75108 55.38 5.13406 56.0688 5.44409C56.7576 5.77236 57.4582 5.86355 58.1708 5.71765C58.3371 5.6447 58.4558 5.56263 58.5271 5.47145C58.6458 5.27084 58.6102 4.96993 58.4202 4.56871C58.2539 4.18573 57.9689 3.67509 57.5651 3.03679C57.3989 2.76323 57.2326 2.48967 57.0663 2.21611C56.9238 1.96079 56.7932 1.71459 56.6744 1.47751C56.5082 1.18572 56.425 0.985107 56.425 0.875685C56.425 0.766262 56.4369 0.702433 56.4607 0.684196C56.7932 0.611247 57.2563 0.620364 57.8501 0.71155C58.4677 0.802736 59.2634 1.04894 60.2372 1.45016C61.211 1.85137 62.3986 2.48055 63.8 3.3377C64.6788 3.86658 65.4745 4.37722 66.187 4.86962C66.9233 5.38026 67.5052 5.79972 67.9328 6.12798C68.3603 6.47449 68.5741 6.65686 68.5741 6.6751C68.6691 6.74805 68.7878 6.76628 68.9303 6.72981C68.9778 6.71157 69.0253 6.68422 69.0728 6.64774C69.1441 6.62951 69.1916 6.60215 69.2154 6.56568C69.3104 6.43802 69.2866 6.21917 69.1441 5.90914C69.0253 5.61734 68.7878 5.1523 68.4315 4.514C68.2653 4.24044 68.1109 3.96688 67.9684 3.69332C67.8259 3.438 67.6952 3.18268 67.5765 2.92736C67.4815 2.63557 67.4221 2.42584 67.3984 2.29818C67.3746 2.18876 67.3627 2.11581 67.3627 2.07934C68.0278 1.95168 68.871 2.11581 69.8923 2.57174C70.3911 2.77235 70.8899 3.02767 71.3886 3.3377C71.8874 3.66597 72.3862 3.98512 72.885 4.29515C73.0513 4.42281 73.2175 4.41369 73.3838 4.2678C73.5263 4.1219 73.5025 3.99424 73.3125 3.88481C72.6475 3.42888 71.9587 2.99119 71.2461 2.57174C70.5573 2.17052 69.8685 1.86961 69.1797 1.669C68.4909 1.46839 67.814 1.43192 67.149 1.55958C66.9827 1.61429 66.8402 1.69636 66.7214 1.80578C66.5789 2.0611 66.6027 2.42584 66.7927 2.90001C67.0064 3.39241 67.3271 4.01247 67.7546 4.7602C67.8496 4.90609 67.9328 5.05199 68.004 5.19789C68.099 5.36202 68.194 5.51704 68.289 5.66294C67.8378 5.3529 67.2558 4.94257 66.5433 4.43193C65.8545 3.93953 65.0826 3.438 64.2275 2.92736C61.1635 1.01246 58.7646 0.0550132 57.0307 0.0550132Z" fill="#91D4C4"/>
<path d="M45.7057 1.88749C45.6345 1.88749 45.5751 1.88749 45.5276 1.88749C45.4801 1.90573 45.4326 1.91485 45.3851 1.91485C45.1713 1.93308 45.0288 2.03339 44.9575 2.21576C44.8625 2.41637 44.8982 2.66257 45.0644 2.95437C45.2545 3.24616 45.5395 3.62002 45.9195 4.07595C46.0858 4.27656 46.252 4.47717 46.4183 4.67778C46.5846 4.87838 46.7152 5.06988 46.8102 5.25225C46.9527 5.48933 47.0358 5.66258 47.0596 5.77201C47.0833 5.88143 47.0833 5.95438 47.0596 5.99085C47.0596 5.99085 47.0358 5.99997 46.9883 6.01821C46.9646 6.03645 46.929 6.05468 46.8815 6.07292C46.2164 6.20058 45.302 6.25529 44.1381 6.23705C42.998 6.21882 41.5492 6.02733 39.7916 5.66258C38.0339 5.31608 35.8844 4.71425 33.3429 3.85711C33.2479 3.83887 33.1529 3.83887 33.0579 3.85711C32.9629 3.87534 32.9035 3.92093 32.8798 3.99388C32.7848 4.15802 32.8442 4.27656 33.0579 4.34951C34.388 4.7872 35.6469 5.17018 36.8345 5.49845C38.022 5.84495 39.1503 6.11851 40.2191 6.31912C43.0218 6.86624 45.302 6.95742 47.0596 6.59268C47.2496 6.57444 47.3921 6.51973 47.4871 6.42854C47.6059 6.33736 47.6771 6.25529 47.7009 6.18234C47.8672 5.89055 47.8078 5.53492 47.5227 5.11547C47.2615 4.69601 46.9408 4.25832 46.5608 3.80239C46.4183 3.62002 46.2876 3.45589 46.1689 3.30999C46.0501 3.16409 45.9432 3.0182 45.8482 2.8723C45.7532 2.74464 45.6939 2.64433 45.6701 2.57139C45.6464 2.51667 45.6345 2.47108 45.6345 2.43461C45.7057 2.43461 45.872 2.44373 46.1333 2.46196C46.3945 2.49844 46.8221 2.57139 47.4159 2.68081C48.0097 2.80847 48.8291 2.99996 49.8742 3.25528C50.9192 3.52884 52.2731 3.9027 53.9357 4.37686C54.197 4.41334 54.3633 4.35863 54.4345 4.21273C54.482 4.01212 54.4107 3.88446 54.2207 3.82975C52.2731 3.30087 50.7174 2.89054 49.5535 2.59874C48.3897 2.32518 47.5109 2.13369 46.9171 2.02427C46.347 1.93309 45.9433 1.88749 45.7057 1.88749Z" fill="#91D4C4"/>
<path d="M23.8071 -6.96182e-05C23.6409 -6.96182e-05 23.4627 0.018167 23.2727 0.0546412C23.1302 0.109353 23.0471 0.173182 23.0233 0.24613C22.9521 0.337317 22.9283 0.510571 22.9521 0.765891C22.9758 1.02121 23.1421 1.57744 23.4508 2.43459C23.6409 2.92699 23.8428 3.41939 24.0565 3.9118C24.294 4.42244 24.4959 4.85101 24.6622 5.19752C24.6622 5.23399 24.6622 5.26135 24.6622 5.27958C24.6859 5.31606 24.6978 5.34341 24.6978 5.36165C24.1753 5.21575 23.439 4.99691 22.4889 4.70511C21.5626 4.43156 20.5531 4.13976 19.4605 3.82973C19.1993 3.79326 19.033 3.84797 18.9618 3.99386C18.9143 4.158 18.9855 4.28566 19.1755 4.37684C20.2206 4.66864 21.1944 4.9422 22.097 5.19752C22.9996 5.45284 23.724 5.66256 24.2703 5.8267C24.8403 5.99083 25.1372 6.0729 25.161 6.0729C25.1847 6.0729 25.2085 6.08202 25.2322 6.10026C25.2797 6.11849 25.3272 6.10937 25.3747 6.0729C25.4698 6.0729 25.541 6.02731 25.5885 5.93612C25.636 5.89965 25.6479 5.85405 25.6241 5.79934C25.6241 5.74463 25.6004 5.65345 25.5529 5.52579C25.5054 5.45284 25.4697 5.37989 25.446 5.30694C25.4222 5.23399 25.3866 5.14281 25.3391 5.03338C25.1729 4.68688 24.9828 4.27654 24.7691 3.80238C24.579 3.32821 24.389 2.85404 24.199 2.37988C23.9615 1.79629 23.8071 1.36772 23.7359 1.09416C23.6646 0.838838 23.629 0.665586 23.629 0.5744C23.9853 0.537925 24.3772 0.5744 24.8047 0.683824C25.0897 0.756772 25.3866 0.838838 25.6954 0.930024C26.0279 1.03945 26.3961 1.18534 26.7998 1.36772C27.5362 1.65951 28.32 2.01514 29.1513 2.43459C30.0063 2.85404 30.8851 3.28262 31.7877 3.72031C31.9777 3.82973 32.1677 3.93004 32.3577 4.02122C32.5478 4.13064 32.7378 4.24007 32.9278 4.34949C33.0228 4.38596 33.1178 4.39508 33.2128 4.37684C33.3316 4.35861 33.4028 4.31302 33.4266 4.24007C33.5928 4.11241 33.5691 3.98475 33.3553 3.85709C33.1416 3.78414 32.9397 3.69295 32.7497 3.58353C32.5596 3.47411 32.3696 3.3738 32.1796 3.28262C31.2771 2.82669 30.3982 2.389 29.5432 1.96954C28.6881 1.55009 27.8806 1.18534 27.1205 0.875313C25.6716 0.291724 24.5672 -6.96182e-05 23.8071 -6.96182e-05Z" fill="#91D4C4"/>
<path d="M3.20648 0.0550132C3.04022 0.0550132 2.89771 0.0641322 2.77895 0.0823698C2.66019 0.100607 2.52957 0.118844 2.38706 0.137081C2.1733 0.173555 2.03079 0.273859 1.95953 0.437994C1.81702 0.693314 1.85264 1.04894 2.06641 1.50487C2.28017 1.9608 2.61269 2.5535 3.06398 3.28299C3.23024 3.50184 3.37275 3.72068 3.49151 3.93953C3.61027 4.15837 3.71716 4.35898 3.81216 4.54135C3.93092 4.74196 4.00217 4.88786 4.02592 4.97904C4.04967 5.07023 4.07342 5.14318 4.09717 5.19789C3.57463 5.28907 3.00461 5.18877 2.38706 4.89698C1.79327 4.62342 1.18758 4.28603 0.570037 3.88481C0.403775 3.79363 0.237515 3.81187 0.0712524 3.93953C0.0237488 3.976 0 4.03071 0 4.10366C0 4.19485 0.0475158 4.25868 0.142523 4.29515C0.855075 4.75108 1.55574 5.13406 2.24454 5.44409C2.93334 5.77236 3.63402 5.86355 4.34657 5.71765C4.51284 5.6447 4.6316 5.56263 4.70285 5.47145C4.82161 5.27084 4.78599 4.96993 4.59598 4.56871C4.42971 4.18573 4.14469 3.67509 3.74091 3.03679C3.57465 2.76323 3.40837 2.48967 3.24211 2.21611C3.0996 1.96079 2.96898 1.71459 2.85022 1.47751C2.68396 1.18572 2.60082 0.985107 2.60082 0.875685C2.60082 0.766262 2.61269 0.702433 2.63645 0.684196C2.96897 0.611247 3.43213 0.620364 4.02592 0.71155C4.64347 0.802736 5.43916 1.04894 6.41298 1.45016C7.38681 1.85137 8.57439 2.48055 9.97575 3.3377C10.8546 3.86658 11.6502 4.37722 12.3628 4.86962C13.0991 5.38026 13.681 5.79972 14.1085 6.12798C14.5361 6.47449 14.7498 6.65686 14.7498 6.6751C14.8448 6.74805 14.9636 6.76628 15.1061 6.72981C15.1536 6.71157 15.2011 6.68422 15.2486 6.64774C15.3199 6.62951 15.3674 6.60215 15.3911 6.56568C15.4861 6.43802 15.4624 6.21917 15.3199 5.90914C15.2011 5.61734 14.9636 5.1523 14.6073 4.514C14.4411 4.24044 14.2867 3.96688 14.1442 3.69332C14.0017 3.438 13.871 3.18268 13.7523 2.92736C13.6573 2.63557 13.5979 2.42584 13.5741 2.29818C13.5504 2.18876 13.5385 2.11581 13.5385 2.07934C14.2036 1.95168 15.0467 2.11581 16.0681 2.57174C16.5668 2.77235 17.0656 3.02767 17.5644 3.3377C18.0632 3.66597 18.562 3.98512 19.0608 4.29515C19.227 4.42281 19.3933 4.41369 19.5596 4.2678C19.7021 4.1219 19.6783 3.99424 19.4883 3.88481C18.8233 3.42888 18.1345 2.99119 17.4219 2.57174C16.7331 2.17052 16.0443 1.86961 15.3555 1.669C14.6667 1.46839 13.9898 1.43192 13.3247 1.55958C13.1585 1.61429 13.016 1.69636 12.8972 1.80578C12.7547 2.0611 12.7784 2.42584 12.9685 2.90001C13.1822 3.39241 13.5029 4.01247 13.9304 4.7602C14.0254 4.90609 14.1085 5.05199 14.1798 5.19789C14.2748 5.36202 14.3698 5.51704 14.4648 5.66294C14.0135 5.3529 13.4316 4.94257 12.7191 4.43193C12.0303 3.93953 11.2583 3.438 10.4033 2.92736C7.3393 1.01246 4.94036 0.0550132 3.20648 0.0550132Z" fill="#91D4C4"/>
</svg>
