<svg width="19" height="19" viewBox="0 0 19 19" fill="none" xmlns="http://www.w3.org/2000/svg">
<g clip-path="url(#clip0_305_774)">
<path d="M9.56731 2.05225C8.09425 2.05225 6.65427 2.48906 5.42946 3.30745C4.20466 4.12583 3.25004 5.28904 2.68633 6.64997C2.12261 8.0109 1.97512 9.50843 2.2625 10.9532C2.54988 12.3979 3.25922 13.725 4.30083 14.7666C5.34244 15.8082 6.66953 16.5176 8.11429 16.805C9.55904 17.0923 11.0566 16.9449 12.4175 16.3811C13.7784 15.8174 14.9416 14.8628 15.76 13.638C16.5784 12.4132 17.0152 10.9732 17.0152 9.50016C17.0131 7.52549 16.2278 5.6323 14.8315 4.23599C13.4352 2.83969 11.542 2.05433 9.56731 2.05225ZM11.6914 9.9055L8.82681 12.7701C8.77358 12.8233 8.71039 12.8655 8.64084 12.8943C8.57129 12.9232 8.49675 12.938 8.42147 12.938C8.34619 12.938 8.27165 12.9232 8.2021 12.8943C8.13256 12.8655 8.06936 12.8233 8.01613 12.7701C7.9629 12.7169 7.92068 12.6537 7.89187 12.5841C7.86306 12.5146 7.84824 12.44 7.84824 12.3647C7.84824 12.2895 7.86306 12.2149 7.89187 12.1454C7.92068 12.0758 7.9629 12.0126 8.01613 11.9594L10.4761 9.50016L8.01613 7.04092C7.90863 6.93342 7.84824 6.78761 7.84824 6.63558C7.84824 6.48355 7.90863 6.33774 8.01613 6.23024C8.12364 6.12274 8.26944 6.06234 8.42147 6.06234C8.5735 6.06234 8.71931 6.12274 8.82681 6.23024L11.6914 9.09482C11.7447 9.14803 11.7869 9.21122 11.8158 9.28077C11.8446 9.35032 11.8594 9.42487 11.8594 9.50016C11.8594 9.57545 11.8446 9.65 11.8158 9.71956C11.7869 9.78911 11.7447 9.85229 11.6914 9.9055Z" fill="#065363"/>
</g>
<defs>
<clipPath id="clip0_305_774">
<rect width="18.3333" height="18.3333" fill="white" transform="translate(0.400391 0.333496)"/>
</clipPath>
</defs>
</svg>
