<svg width="332" height="100" viewBox="0 0 332 100" fill="none" xmlns="http://www.w3.org/2000/svg">
<path fill-rule="evenodd" clip-rule="evenodd" d="M94.9009 0L95.025 0.00113964H94.5818L94.9009 0ZM95.3908 0.00456654C114.394 0.191449 130.793 11.2508 138.669 27.2607C138.477 28.9811 138.231 31.4509 138.795 34.0215C139.401 36.7871 138.166 39.7739 136.295 41.875C134.634 43.7399 133.933 45.1341 130.689 46.2645C130.024 46.4969 129.131 46.6422 128.481 46.6701C123.163 46.8976 118.932 42.032 117.79 41.5595L113.952 40.5712C111.652 39.981 112.36 39.9543 111.244 39.5131C108.545 38.4468 106.565 38.3804 103.836 40.3514C101.031 42.3785 101.372 43.3803 100.48 45.4463C100.109 46.3071 99.5932 46.1095 99.354 47.1108C98.9941 48.6165 98.226 49.8741 97.7308 51.3226C97.4949 52.0123 97.2173 52.99 97.3144 53.9499C97.5826 56.6116 99.6711 59.0869 101.945 60.1304C105.501 61.7632 110.403 65.815 111.086 66.1646C113.012 67.1514 113.246 67.4421 114.799 68.402C115.244 68.6773 115.118 68.4851 115.564 69.0473C117.665 71.7011 116.495 72.4103 116.132 74.1314C116.015 74.6848 115.999 74.5836 115.767 75.1182C115.387 75.9937 115.531 76.2958 115.144 77.1236C115.001 77.4311 114.788 77.7099 114.56 78.0392L113.335 79.839C113.188 80.0381 112.887 80.5374 112.726 80.7664C111.87 81.9796 110.1 82.6991 108.788 83.9307C108.111 84.5662 107.694 84.9243 106.917 85.5033C106.435 85.8628 105.012 87.2575 105.455 87.3505C105.659 87.7836 104.155 88.9643 103.94 89.9778C103.017 94.321 105.158 92.602 104.722 95.023C104.594 95.7354 104.638 95.8569 104.209 96.6129C101.196 97.1955 98.0846 97.5044 94.9009 97.5044C94.0166 97.5044 93.1379 97.4809 92.2652 97.4342V28.1314H95.3908V25.0058V21.8801V18.7546V15.6291V12.5036V9.37789V6.25231V3.12689V0.00456654ZM89.1394 28.1314V97.1673C88.087 97.0433 87.0447 96.8858 86.0142 96.6956V28.1314H89.1394ZM82.8884 28.1314V96.0121C81.8324 95.7444 80.7903 95.4421 79.763 95.1067V28.1314H82.8884ZM76.6374 28.1314V93.9657C75.5763 93.5368 74.534 93.0714 73.5117 92.5713V28.1314H76.6374ZM70.3862 28.1314V90.8988C55.8915 82.4498 46.1487 66.7398 46.1487 48.7524C46.1487 41.3814 47.7861 34.3935 50.7151 28.1314H70.3862ZM142.147 36.686C143.129 40.5451 143.653 44.5876 143.653 48.7524C143.653 71.2431 128.422 90.1738 107.713 95.7996C107.863 95.4085 107.959 95.0976 107.975 94.9255C108.437 90.0398 105.127 90.5488 112.739 84.067C114.802 82.3099 115.911 79.319 116.796 76.8251C117.052 76.1035 116.617 76.6534 117.145 76.0986C117.272 75.8224 117.388 75.6458 117.531 75.266C117.761 74.6558 117.565 74.8413 117.855 74.2644C118.784 70.7738 119.363 68.3101 117.105 65.9072C116.565 65.3329 116.217 65.0063 115.879 64.69C114.932 63.5466 112.312 63.8138 110.443 62.1588C108.174 60.15 109.041 61.5171 107.898 60.6084L105.309 58.7205C103.637 57.3986 102.299 54.5037 102.071 52.1486C101.833 49.6849 102.35 48.1218 103.152 46.1627C103.96 44.1907 104.553 42.4425 107.838 42.3354C111.274 42.2236 115.627 44.9159 119.233 46.1168C121.314 46.8098 122.897 47.5801 124.834 48.6636C129.767 50.2374 138.426 48.0847 141.155 39.4898C141.483 38.4555 141.818 37.5676 142.147 36.686Z" fill="#3EA089"/>
<mask id="mask0_305_777" style="mask-type:luminance" maskUnits="userSpaceOnUse" x="46" y="0" width="98" height="98">
<path d="M94.9009 0L95.025 0.00113964H94.5818L94.9009 0ZM95.3908 0.00456654C114.394 0.191449 130.793 11.2508 138.669 27.2607C138.477 28.9811 138.231 31.4509 138.795 34.0215C139.401 36.7871 138.166 39.7739 136.295 41.875C134.634 43.7399 133.933 45.1341 130.689 46.2645C130.024 46.4969 129.131 46.6422 128.481 46.6701C123.163 46.8976 118.932 42.032 117.79 41.5595L113.952 40.5712C111.652 39.981 112.36 39.9543 111.244 39.5131C108.545 38.4468 106.565 38.3804 103.836 40.3514C101.031 42.3785 101.372 43.3803 100.48 45.4463C100.109 46.3071 99.5932 46.1095 99.354 47.1108C98.9941 48.6165 98.226 49.8741 97.7308 51.3226C97.4949 52.0123 97.2173 52.99 97.3144 53.9499C97.5826 56.6116 99.6711 59.0869 101.945 60.1304C105.501 61.7632 110.403 65.815 111.086 66.1646C113.012 67.1514 113.246 67.4421 114.799 68.402C115.244 68.6773 115.118 68.4851 115.564 69.0473C117.665 71.7011 116.495 72.4103 116.132 74.1314C116.015 74.6848 115.999 74.5836 115.767 75.1182C115.387 75.9937 115.531 76.2958 115.144 77.1236C115.001 77.4311 114.788 77.7099 114.56 78.0392L113.335 79.839C113.188 80.0381 112.887 80.5374 112.726 80.7664C111.87 81.9796 110.1 82.6991 108.788 83.9307C108.111 84.5662 107.694 84.9243 106.917 85.5033C106.435 85.8628 105.012 87.2575 105.455 87.3505C105.659 87.7836 104.155 88.9643 103.94 89.9778C103.017 94.321 105.158 92.602 104.722 95.023C104.594 95.7354 104.638 95.8569 104.209 96.6129C101.196 97.1955 98.0846 97.5044 94.9009 97.5044C94.0166 97.5044 93.1379 97.4809 92.2652 97.4342V28.1314H95.3908V25.0058V21.8801V18.7546V15.6291V12.5036V9.37789V6.25231V3.12689V0.00456654ZM89.1394 28.1314V97.1673C88.087 97.0433 87.0447 96.8858 86.0142 96.6956V28.1314H89.1394ZM82.8884 28.1314V96.0121C81.8324 95.7444 80.7903 95.4421 79.763 95.1067V28.1314H82.8884ZM76.6374 28.1314V93.9657C75.5763 93.5368 74.534 93.0714 73.5117 92.5713V28.1314H76.6374ZM70.3862 28.1314V90.8988C55.8915 82.4498 46.1487 66.7398 46.1487 48.7524C46.1487 41.3814 47.7861 34.3935 50.7151 28.1314H70.3862ZM142.147 36.686C143.129 40.5451 143.653 44.5876 143.653 48.7524C143.653 71.2431 128.422 90.1738 107.713 95.7996C107.863 95.4085 107.959 95.0976 107.975 94.9255C108.437 90.0398 105.127 90.5488 112.739 84.067C114.802 82.3099 115.911 79.319 116.796 76.8251C117.052 76.1035 116.617 76.6534 117.145 76.0986C117.272 75.8224 117.388 75.6458 117.531 75.266C117.761 74.6558 117.565 74.8413 117.855 74.2644C118.784 70.7738 119.363 68.3101 117.105 65.9072C116.565 65.3329 116.217 65.0063 115.879 64.69C114.932 63.5466 112.312 63.8138 110.443 62.1588C108.174 60.15 109.041 61.5171 107.898 60.6084L105.309 58.7205C103.637 57.3986 102.299 54.5037 102.071 52.1486C101.833 49.6849 102.35 48.1218 103.152 46.1627C103.96 44.1907 104.553 42.4425 107.838 42.3354C111.274 42.2236 115.627 44.9159 119.233 46.1168C121.314 46.8098 122.897 47.5801 124.834 48.6636C129.767 50.2374 138.426 48.0847 141.155 39.4898C141.483 38.4555 141.818 37.5676 142.147 36.686Z" fill="white"/>
</mask>
<g mask="url(#mask0_305_777)">
<path d="M67.2605 28.0315L67.2605 106.281L70.3861 106.281L70.3861 28.0315L67.2605 28.0315Z" fill="#025462"/>
<path d="M73.5117 28.0316L73.5117 103.155L76.6373 103.155L76.6373 28.0316L73.5117 28.0316Z" fill="#025462"/>
<path d="M79.7629 28.0313L79.7629 119.573L82.8885 119.573L82.8885 28.0313L79.7629 28.0313Z" fill="#025462"/>
<path d="M86.0134 28.0316L86.0134 103.155L89.139 103.155L89.139 28.0316L86.0134 28.0316Z" fill="#025462"/>
<path d="M92.2646 28.0315L92.2646 106.281L95.3902 106.281L95.3902 28.0315L92.2646 28.0315Z" fill="#025462"/>
</g>
<path fill-rule="evenodd" clip-rule="evenodd" d="M35.7881 0.000976562H95.3906V3.12656H35.7881V0.000976562Z" fill="#025462"/>
<path fill-rule="evenodd" clip-rule="evenodd" d="M17.1082 6.25244H95.3906V9.37803H17.1082V6.25244Z" fill="#025462"/>
<path fill-rule="evenodd" clip-rule="evenodd" d="M0 12.5034H95.3907V15.629H0V12.5034Z" fill="#025462"/>
<path fill-rule="evenodd" clip-rule="evenodd" d="M17.1082 18.7549H95.3906V21.8805H17.1082V18.7549Z" fill="#025462"/>
<path fill-rule="evenodd" clip-rule="evenodd" d="M35.7881 25.0059H95.3906V28.1314H35.7881V25.0059Z" fill="#025462"/>
<path d="M171.462 66.097H183.97V25.8573H197.764V14.636H157.739V25.8573H171.462V66.097ZM224.781 67.312C236.36 67.312 245.08 60.3791 247.51 48.8004L236.003 46.1558C233.93 53.0174 229.785 55.5903 224.853 55.5903C217.563 55.5903 213.131 49.7296 213.131 40.3665C213.131 31.0035 217.563 25.1426 224.853 25.1426C229.713 25.1426 233.93 27.7157 236.003 34.5771L247.439 31.9327C245.08 20.3538 236.36 13.4209 224.781 13.4209C210.916 13.4209 200.552 23.5702 200.552 40.3665C200.552 57.1628 210.916 67.312 224.781 67.312ZM254.514 66.097H267.023V50.0154H272.526C285.177 50.0154 293.253 43.5114 293.253 32.29C293.253 20.9971 285.177 14.636 272.526 14.636H254.514V66.097ZM267.023 38.7941V25.8573H272.526C277.601 25.8573 280.674 27.9301 280.674 32.29C280.674 36.7213 277.601 38.7941 272.526 38.7941H267.023ZM299.972 66.097H331.492V54.8756H312.48V14.636H299.972V66.097Z" fill="#065363"/>
<path d="M182.315 75.5444V78.7847H178.528V90.273H175.161V78.7847H171.374V75.5444H182.315ZM193.39 90.273L192.6 87.9585H186.933L186.197 90.273H182.515L187.523 75.5444H191.815L196.833 90.273H193.39ZM187.954 84.8024H191.524L189.679 79.3949L187.954 84.8024ZM204.724 75.5444C206.168 75.5444 207.389 76.0354 208.385 77.0173C209.381 77.9992 209.879 79.1915 209.879 80.5943C209.879 81.997 209.381 83.1893 208.385 84.1712C207.389 85.1531 206.168 85.6441 204.724 85.6441H202.514V90.273H199.148V75.5444H204.724ZM204.724 82.488C205.243 82.488 205.671 82.3056 206.007 81.9409C206.344 81.5762 206.512 81.1272 206.512 80.5943C206.512 80.0613 206.344 79.6124 206.007 79.2476C205.671 78.883 205.243 78.7005 204.724 78.7005H202.514V82.488H204.724ZM212.614 75.5444H215.981V90.273H212.614V75.5444Z" fill="#025462"/>
<path d="M232.897 90.5678C230.695 90.5678 228.868 89.8348 227.416 88.369C225.965 86.9031 225.239 85.0831 225.239 82.9089C225.239 80.7347 225.965 78.9147 227.416 77.4488C228.868 75.983 230.695 75.25 232.897 75.25C234.216 75.25 235.436 75.5552 236.559 76.1653C237.681 76.7756 238.564 77.6067 239.21 78.6586L236.306 80.342C235.984 79.7668 235.52 79.3214 234.917 79.0059C234.314 78.6903 233.641 78.5324 232.897 78.5324C231.593 78.5324 230.551 78.9321 229.773 79.7317C228.994 80.5313 228.605 81.5903 228.605 82.9089C228.605 84.2275 228.994 85.2865 229.773 86.0861C230.551 86.8856 231.593 87.2854 232.897 87.2854C233.641 87.2854 234.318 87.1241 234.928 86.8014C235.538 86.4789 235.997 86.0369 236.306 85.476L239.21 87.1592C238.578 88.2111 237.702 89.0424 236.58 89.6525C235.457 90.2628 234.23 90.5678 232.897 90.5678ZM251.442 90.2732L250.652 87.9586H244.985L244.249 90.2732H240.567L245.575 75.5446H249.867L254.885 90.2732H251.442ZM246.006 84.8025H249.576L247.731 79.395L246.006 84.8025ZM262.039 90.5678C260.538 90.5678 259.286 90.2417 258.283 89.5893C257.28 88.9371 256.568 88.0499 256.148 86.9278L259.051 85.2445C259.641 86.6051 260.671 87.2854 262.144 87.2854C263.477 87.2854 264.143 86.8856 264.143 86.0861C264.143 85.6512 263.929 85.3111 263.501 85.0656C263.074 84.8202 262.271 84.536 261.092 84.2135C260.475 84.045 259.935 83.8557 259.472 83.6453C259.009 83.4349 258.557 83.158 258.115 82.8142C257.673 82.4705 257.336 82.0393 257.105 81.5203C256.874 81.0012 256.758 80.405 256.758 79.7317C256.758 78.3712 257.245 77.284 258.22 76.4704C259.195 75.6569 260.356 75.25 261.702 75.25C262.909 75.25 263.975 75.5342 264.901 76.1021C265.826 76.6703 266.556 77.4944 267.089 78.5745L264.248 80.2367C263.982 79.6756 263.652 79.2514 263.26 78.9638C262.867 78.6762 262.348 78.5324 261.702 78.5324C261.197 78.5324 260.808 78.6411 260.535 78.8585C260.261 79.0759 260.124 79.339 260.124 79.6475C260.124 80.0123 260.296 80.328 260.64 80.5945C260.984 80.8609 261.695 81.1555 262.776 81.4782C263.365 81.6605 263.82 81.8078 264.143 81.92C264.466 82.0323 264.876 82.218 265.374 82.4775C265.872 82.737 266.251 83.0106 266.51 83.2982C266.77 83.5858 267.001 83.9644 267.205 84.4343C267.408 84.9042 267.51 85.4409 267.51 86.0439C267.51 87.4468 267.005 88.5514 265.995 89.3579C264.985 90.1645 263.666 90.5678 262.039 90.5678ZM278.135 75.5446H281.502V90.2732H278.135V84.4239H273.506V90.2732H270.14V75.5446H273.506V81.1835H278.135V75.5446ZM288.445 87.0329H293.706V90.2732H285.079V75.5446H288.445V87.0329ZM299.597 87.0329H305.489V90.2732H296.231V75.5446H305.383V78.7849H299.597V81.2256H304.857V84.4239H299.597V87.0329ZM313.589 90.5678C312.088 90.5678 310.836 90.2417 309.833 89.5893C308.831 88.9371 308.119 88.0499 307.698 86.9278L310.601 85.2445C311.191 86.6051 312.222 87.2854 313.694 87.2854C315.027 87.2854 315.693 86.8856 315.693 86.0861C315.693 85.6512 315.479 85.3111 315.052 85.0656C314.624 84.8202 313.821 84.536 312.642 84.2135C312.025 84.045 311.485 83.8557 311.022 83.6453C310.559 83.4349 310.107 83.158 309.665 82.8142C309.223 82.4705 308.887 82.0393 308.655 81.5203C308.424 81.0012 308.308 80.405 308.308 79.7317C308.308 78.3712 308.795 77.284 309.77 76.4704C310.745 75.6569 311.906 75.25 313.253 75.25C314.459 75.25 315.525 75.5342 316.451 76.1021C317.377 76.6703 318.106 77.4944 318.639 78.5745L315.799 80.2367C315.532 79.6756 315.202 79.2514 314.81 78.9638C314.417 78.6762 313.898 78.5324 313.253 78.5324C312.748 78.5324 312.358 78.6411 312.085 78.8585C311.811 79.0759 311.675 79.339 311.675 79.6475C311.675 80.0123 311.846 80.328 312.19 80.5945C312.534 80.8609 313.246 81.1555 314.326 81.4782C314.915 81.6605 315.371 81.8078 315.693 81.92C316.016 82.0323 316.426 82.218 316.924 82.4775C317.422 82.737 317.801 83.0106 318.06 83.2982C318.32 83.5858 318.551 83.9644 318.755 84.4343C318.958 84.9042 319.06 85.4409 319.06 86.0439C319.06 87.4468 318.555 88.5514 317.545 89.3579C316.535 90.1645 315.216 90.5678 313.589 90.5678ZM326.529 90.5678C325.028 90.5678 323.777 90.2417 322.774 89.5893C321.771 88.9371 321.059 88.0499 320.638 86.9278L323.542 85.2445C324.131 86.6051 325.162 87.2854 326.634 87.2854C327.967 87.2854 328.633 86.8856 328.633 86.0861C328.633 85.6512 328.42 85.3111 327.992 85.0656C327.564 84.8202 326.761 84.536 325.583 84.2135C324.965 84.045 324.425 83.8557 323.962 83.6453C323.499 83.4349 323.047 83.158 322.605 82.8142C322.163 82.4705 321.827 82.0393 321.595 81.5203C321.364 81.0012 321.248 80.405 321.248 79.7317C321.248 78.3712 321.736 77.284 322.71 76.4704C323.685 75.6569 324.846 75.25 326.193 75.25C327.399 75.25 328.465 75.5342 329.391 76.1021C330.317 76.6703 331.046 77.4944 331.579 78.5745L328.739 80.2367C328.472 79.6756 328.142 79.2514 327.75 78.9638C327.357 78.6762 326.838 78.5324 326.193 78.5324C325.688 78.5324 325.298 78.6411 325.025 78.8585C324.751 79.0759 324.615 79.339 324.615 79.6475C324.615 80.0123 324.786 80.328 325.13 80.5945C325.474 80.8609 326.186 81.1555 327.266 81.4782C327.855 81.6605 328.311 81.8078 328.633 81.92C328.956 82.0323 329.366 82.218 329.864 82.4775C330.362 82.737 330.741 83.0106 331 83.2982C331.26 83.5858 331.491 83.9644 331.695 84.4343C331.898 84.9042 332 85.4409 332 86.0439C332 87.4468 331.495 88.5514 330.485 89.3579C329.475 90.1645 328.156 90.5678 326.529 90.5678Z" fill="#3EA089"/>
<path d="M272.279 94.3394C272.789 94.3394 273.22 94.5127 273.572 94.8592C273.923 95.2059 274.099 95.6268 274.099 96.122C274.099 96.6172 273.923 97.0381 273.572 97.3846C273.22 97.7313 272.789 97.9047 272.279 97.9047H271.499V99.5388H270.311V94.3394H272.279ZM272.279 96.7905C272.462 96.7905 272.613 96.7261 272.732 96.5973C272.851 96.4687 272.911 96.3102 272.911 96.122C272.911 95.9338 272.851 95.7753 272.732 95.6466C272.613 95.5178 272.462 95.4535 272.279 95.4535H271.499V96.7905H272.279ZM277.798 99.5388L276.816 97.8304H276.253V99.5388H275.064V94.3394H277.144C277.639 94.3394 278.06 94.5127 278.407 94.8592C278.753 95.2059 278.927 95.6268 278.927 96.122C278.927 96.439 278.839 96.7323 278.663 97.0022C278.487 97.272 278.256 97.4813 277.969 97.6298L279.075 99.5388H277.798ZM276.253 95.4535V96.7905H277.144C277.308 96.7905 277.447 96.7261 277.564 96.5973C277.68 96.4687 277.738 96.3102 277.738 96.122C277.738 95.9338 277.68 95.7753 277.564 95.6466C277.447 95.5178 277.308 95.4535 277.144 95.4535H276.253ZM280.004 94.3394H281.192V99.5388H280.004V94.3394ZM283.611 99.5388L282.009 94.3394H283.307L284.465 98.1807L285.612 94.3394H286.808L285.218 99.5388H283.611ZM290.821 99.5388L290.543 98.7217H288.542L288.282 99.5388H286.982L288.75 94.3394H290.265L292.037 99.5388H290.821ZM288.902 97.6076H290.163L289.511 95.6986L288.902 97.6076ZM295.974 94.3394V95.4832H294.636V99.5388H293.448V95.4832H292.111V94.3394H295.974ZM298.053 98.395H300.133V99.5388H296.865V94.3394H300.096V95.4832H298.053V96.3448H299.91V97.4738H298.053V98.395ZM304.59 98.395H306.446V99.5388H303.401V94.3394H304.59V98.395ZM307.338 94.3394H308.526V99.5388H307.338V94.3394ZM314.988 94.3394V99.5388H313.8V96.5157L312.455 98.7217H312.322L310.977 96.5157V99.5388H309.789V94.3394H310.977L312.389 96.6494L313.8 94.3394H314.988ZM316.251 94.3394H317.439V99.5388H316.251V94.3394ZM322.193 94.3394V95.4832H320.856V99.5388H319.668V95.4832H318.331V94.3394H322.193ZM324.273 98.395H326.353V99.5388H323.085V94.3394H326.316V95.4832H324.273V96.3448H326.13V97.4738H324.273V98.395ZM329.472 94.3394C330.19 94.3394 330.791 94.5881 331.274 95.0857C331.756 95.5834 331.998 96.2012 331.998 96.9391C331.998 97.6768 331.756 98.2946 331.274 98.7922C330.791 99.2899 330.19 99.5388 329.472 99.5388H327.393V94.3394H329.472ZM329.472 98.395C329.883 98.395 330.216 98.2624 330.471 97.9975C330.726 97.7326 330.854 97.3797 330.854 96.9391C330.854 96.4984 330.726 96.1455 330.471 95.8806C330.216 95.6157 329.883 95.4832 329.472 95.4832H328.581V98.395H329.472Z" fill="#3EA089"/>
</svg>
