<svg width="153" height="46" viewBox="0 0 153 46" fill="none" xmlns="http://www.w3.org/2000/svg">
<path fill-rule="evenodd" clip-rule="evenodd" d="M43.7345 0.0987244L43.7917 0.0992496H43.5874L43.7345 0.0987244ZM43.9602 0.100829C52.7177 0.186952 60.2751 5.28358 63.9047 12.6616C63.8161 13.4545 63.7028 14.5927 63.9626 15.7773C64.2419 17.0518 63.673 18.4283 62.8109 19.3965C62.0454 20.256 61.7221 20.8985 60.2274 21.4194C59.9205 21.5265 59.5094 21.5935 59.2099 21.6063C56.7591 21.7112 54.8088 19.4689 54.2828 19.2511L52.5139 18.7957C51.4542 18.5237 51.7803 18.5114 51.2662 18.3081C50.0225 17.8167 49.1096 17.7861 47.8522 18.6944C46.5596 19.6286 46.7167 20.0903 46.3056 21.0424C46.1344 21.4391 45.8969 21.348 45.7866 21.8094C45.6208 22.5033 45.2668 23.0829 45.0386 23.7504C44.9299 24.0683 44.802 24.5188 44.8467 24.9612C44.9703 26.1878 45.9328 27.3285 46.9805 27.8094C48.6194 28.5619 50.8785 30.4291 51.1933 30.5903C52.081 31.045 52.1885 31.179 52.9043 31.6213C53.1095 31.7482 53.0516 31.6596 53.2568 31.9187C54.2251 33.1417 53.686 33.4685 53.5185 34.2617C53.4646 34.5167 53.4574 34.4701 53.3505 34.7164C53.1754 35.1199 53.2418 35.2591 53.0636 35.6406C52.9975 35.7823 52.8991 35.9108 52.7941 36.0626L52.2296 36.892C52.1618 36.9838 52.0232 37.2139 51.9489 37.3194C51.5544 37.8785 50.7391 38.21 50.1345 38.7776C49.8223 39.0705 49.63 39.2355 49.272 39.5023C49.0498 39.668 48.394 40.3108 48.5983 40.3536C48.6923 40.5532 47.9991 41.0973 47.8999 41.5644C47.4746 43.5659 48.4616 42.7738 48.2606 43.8894C48.2015 44.2178 48.2216 44.2737 48.0243 44.6221C46.6355 44.8906 45.2017 45.033 43.7345 45.033C43.327 45.033 42.922 45.0221 42.5198 45.0006V13.0629H43.9602V11.6225V10.182V8.74168V7.30127V5.86095V4.42046V2.98006V1.53973V0.100829ZM41.0793 13.0629V44.8776C40.5943 44.8205 40.114 44.7479 39.6391 44.6603V13.0629H41.0793ZM38.1986 13.0629V44.3453C37.7119 44.2219 37.2317 44.0826 36.7583 43.928V13.0629H38.1986ZM35.3179 13.0629V43.4022C34.8289 43.2045 34.3485 42.9901 33.8774 42.7596V13.0629H35.3179ZM32.4371 13.0629V41.9889C25.7573 38.0952 21.2673 30.8553 21.2673 22.566C21.2673 19.1691 22.0219 15.9487 23.3718 13.0629H32.4371ZM65.5074 17.0052C65.9602 18.7837 66.2016 20.6466 66.2016 22.566C66.2016 32.9306 59.1823 41.6547 49.6386 44.2473C49.7078 44.0671 49.7523 43.9238 49.7597 43.8445C49.9727 41.593 48.4473 41.8275 51.9549 38.8404C52.9058 38.0307 53.4167 36.6524 53.8248 35.5031C53.9428 35.1705 53.7423 35.4239 53.9856 35.1683C54.0439 35.041 54.0977 34.9596 54.1635 34.7846C54.2692 34.5033 54.1793 34.5889 54.3128 34.323C54.7408 32.7144 55.0077 31.579 53.9671 30.4716C53.7184 30.2069 53.5578 30.0564 53.4021 29.9107C52.9658 29.3838 51.7582 29.5069 50.8967 28.7442C49.8511 27.8184 50.2508 28.4485 49.7242 28.0297L48.5309 27.1597C47.7603 26.5505 47.1438 25.2164 47.0389 24.1311C46.9293 22.9957 47.1672 22.2753 47.5371 21.3725C47.9094 20.4637 48.1826 19.6581 49.6966 19.6087C51.28 19.5572 53.2861 20.7979 54.9475 21.3514C55.9065 21.6707 56.6362 22.0257 57.5291 22.525C59.8024 23.2503 63.7927 22.2582 65.0504 18.2973C65.2016 17.8207 65.3558 17.4115 65.5074 17.0052Z" fill="#3EA089"/>
<mask id="mask0_3690_1556" style="mask-type:luminance" maskUnits="userSpaceOnUse" x="21" y="0" width="46" height="46">
<path d="M43.7345 0.0987244L43.7917 0.0992496H43.5874L43.7345 0.0987244ZM43.9602 0.100829C52.7177 0.186952 60.2751 5.28358 63.9047 12.6616C63.8161 13.4545 63.7028 14.5927 63.9626 15.7773C64.2419 17.0518 63.673 18.4283 62.8109 19.3965C62.0454 20.256 61.7221 20.8985 60.2274 21.4194C59.9205 21.5265 59.5094 21.5935 59.2099 21.6063C56.7591 21.7112 54.8088 19.4689 54.2828 19.2511L52.5139 18.7957C51.4542 18.5237 51.7803 18.5114 51.2662 18.3081C50.0225 17.8167 49.1096 17.7861 47.8522 18.6944C46.5596 19.6286 46.7167 20.0903 46.3056 21.0424C46.1344 21.4391 45.8969 21.348 45.7866 21.8094C45.6208 22.5033 45.2668 23.0829 45.0386 23.7504C44.9299 24.0683 44.802 24.5188 44.8467 24.9612C44.9703 26.1878 45.9328 27.3285 46.9805 27.8094C48.6194 28.5619 50.8785 30.4291 51.1933 30.5903C52.081 31.045 52.1885 31.179 52.9043 31.6213C53.1095 31.7482 53.0516 31.6596 53.2568 31.9187C54.2251 33.1417 53.686 33.4685 53.5185 34.2617C53.4646 34.5167 53.4574 34.4701 53.3505 34.7164C53.1754 35.1199 53.2418 35.2591 53.0636 35.6406C52.9975 35.7823 52.8991 35.9108 52.7941 36.0626L52.2296 36.892C52.1618 36.9838 52.0232 37.2139 51.9489 37.3194C51.5544 37.8785 50.7391 38.21 50.1345 38.7776C49.8223 39.0705 49.63 39.2355 49.272 39.5023C49.0498 39.668 48.394 40.3108 48.5983 40.3536C48.6923 40.5532 47.9991 41.0973 47.8999 41.5644C47.4746 43.5659 48.4616 42.7738 48.2606 43.8894C48.2015 44.2178 48.2216 44.2737 48.0243 44.6221C46.6355 44.8906 45.2017 45.033 43.7345 45.033C43.327 45.033 42.922 45.0221 42.5198 45.0006V13.0629H43.9602V11.6225V10.182V8.74168V7.30127V5.86095V4.42046V2.98006V1.53973V0.100829ZM41.0793 13.0629V44.8776C40.5943 44.8205 40.114 44.7479 39.6391 44.6603V13.0629H41.0793ZM38.1986 13.0629V44.3453C37.7119 44.2219 37.2317 44.0826 36.7583 43.928V13.0629H38.1986ZM35.3179 13.0629V43.4022C34.8289 43.2045 34.3485 42.9901 33.8774 42.7596V13.0629H35.3179ZM32.4371 13.0629V41.9889C25.7573 38.0952 21.2673 30.8553 21.2673 22.566C21.2673 19.1691 22.0219 15.9487 23.3718 13.0629H32.4371ZM65.5074 17.0052C65.9602 18.7837 66.2016 20.6466 66.2016 22.566C66.2016 32.9306 59.1823 41.6547 49.6386 44.2473C49.7078 44.0671 49.7523 43.9238 49.7597 43.8445C49.9727 41.593 48.4473 41.8275 51.9549 38.8404C52.9058 38.0307 53.4167 36.6524 53.8248 35.5031C53.9428 35.1705 53.7423 35.4239 53.9856 35.1683C54.0439 35.041 54.0977 34.9596 54.1635 34.7846C54.2692 34.5033 54.1793 34.5889 54.3128 34.323C54.7408 32.7144 55.0077 31.579 53.9671 30.4716C53.7184 30.2069 53.5578 30.0564 53.4021 29.9107C52.9658 29.3838 51.7582 29.5069 50.8967 28.7442C49.8511 27.8184 50.2508 28.4485 49.7242 28.0297L48.5309 27.1597C47.7603 26.5505 47.1438 25.2164 47.0389 24.1311C46.9293 22.9957 47.1672 22.2753 47.5371 21.3725C47.9094 20.4637 48.1826 19.6581 49.6966 19.6087C51.28 19.5572 53.2861 20.7979 54.9475 21.3514C55.9065 21.6707 56.6362 22.0257 57.5291 22.525C59.8024 23.2503 63.7927 22.2582 65.0504 18.2973C65.2016 17.8207 65.3558 17.4115 65.5074 17.0052Z" fill="white"/>
</mask>
<g mask="url(#mask0_3690_1556)">
<path d="M30.9966 13.0171L30.9966 49.0778L32.437 49.0778L32.437 13.0171L30.9966 13.0171Z" fill="#025462"/>
<path d="M33.8775 13.017L33.8775 47.6372L35.3179 47.6372L35.3179 13.017L33.8775 13.017Z" fill="#025462"/>
<path d="M36.7582 13.0169L36.7582 55.2034L38.1986 55.2034L38.1986 13.0169L36.7582 13.0169Z" fill="#025462"/>
<path d="M39.6389 13.017L39.6389 47.6372L41.0793 47.6372L41.0793 13.017L39.6389 13.017Z" fill="#025462"/>
<path d="M42.5196 13.0171L42.5196 49.0778L43.96 49.0778L43.96 13.0171L42.5196 13.0171Z" fill="#025462"/>
</g>
<path fill-rule="evenodd" clip-rule="evenodd" d="M16.4928 0.0992737H43.9602V1.53968H16.4928V0.0992737Z" fill="#025462"/>
<path fill-rule="evenodd" clip-rule="evenodd" d="M7.88428 2.98019H43.9602V4.4206H7.88428V2.98019Z" fill="#025462"/>
<path fill-rule="evenodd" clip-rule="evenodd" d="M0 5.86087H43.9602V7.30128H0V5.86087Z" fill="#025462"/>
<path fill-rule="evenodd" clip-rule="evenodd" d="M7.88428 8.74179H43.9602V10.1822H7.88428V8.74179Z" fill="#025462"/>
<path fill-rule="evenodd" clip-rule="evenodd" d="M16.4928 11.6226H43.9602V13.063H16.4928V11.6226Z" fill="#025462"/>
<path d="M79.0172 30.5592H84.7814V12.015H91.1384V6.84371H72.6931V12.015H79.0172V30.5592ZM103.589 31.1191C108.925 31.1191 112.944 27.9241 114.063 22.5881L108.76 21.3694C107.805 24.5315 105.895 25.7172 103.622 25.7172C100.262 25.7172 98.2202 23.0163 98.2202 18.7014C98.2202 14.3865 100.262 11.6856 103.622 11.6856C105.862 11.6856 107.805 12.8714 108.76 16.0334L114.03 14.8148C112.944 9.47872 108.925 6.28372 103.589 6.28372C97.1991 6.28372 92.4231 10.9609 92.4231 18.7014C92.4231 26.4419 97.1991 31.1191 103.589 31.1191ZM117.291 30.5592H123.056V23.148H125.592C131.422 23.148 135.144 20.1507 135.144 14.9794C135.144 9.77514 131.422 6.84371 125.592 6.84371H117.291V30.5592ZM123.056 17.9768V12.015H125.592C127.93 12.015 129.347 12.9702 129.347 14.9794C129.347 17.0215 127.93 17.9768 125.592 17.9768H123.056ZM138.24 30.5592H152.766V25.3879H144.004V6.84371H138.24V30.5592Z" fill="#065363"/>
<path d="M84.0186 34.9129V36.4062H82.2733V41.7005H80.7218V36.4062H78.9764V34.9129H84.0186ZM89.1223 41.7005L88.7586 40.6339H86.147L85.8076 41.7005H84.1108L86.4186 34.9129H88.3967L90.7093 41.7005H89.1223ZM86.6174 39.1794H88.2625L87.4125 36.6874L86.6174 39.1794ZM94.3455 34.9129C95.0113 34.9129 95.5737 35.1392 96.0327 35.5917C96.4917 36.0442 96.7212 36.5937 96.7212 37.2401C96.7212 37.8866 96.4917 38.436 96.0327 38.8885C95.5737 39.341 95.0113 39.5673 94.3455 39.5673H93.3274V41.7005H91.776V34.9129H94.3455ZM94.3455 38.1128C94.5847 38.1128 94.7819 38.0288 94.937 37.8607C95.0921 37.6926 95.1698 37.4857 95.1698 37.2401C95.1698 36.9945 95.0921 36.7876 94.937 36.6195C94.7819 36.4515 94.5847 36.3674 94.3455 36.3674H93.3274V38.1128H94.3455ZM97.9817 34.9129H99.5332V41.7005H97.9817V34.9129Z" fill="#025462"/>
<path d="M107.329 41.8364C106.314 41.8364 105.472 41.4986 104.803 40.8231C104.134 40.1475 103.8 39.3088 103.8 38.3068C103.8 37.3049 104.134 36.4661 104.803 35.7906C105.472 35.1151 106.314 34.7773 107.329 34.7773C107.937 34.7773 108.499 34.9179 109.017 35.1991C109.534 35.4803 109.941 35.8633 110.238 36.3481L108.9 37.1239C108.752 36.8588 108.538 36.6536 108.26 36.5082C107.982 36.3627 107.672 36.29 107.329 36.29C106.728 36.29 106.248 36.4742 105.889 36.8427C105.531 37.2112 105.351 37.6992 105.351 38.3068C105.351 38.9145 105.531 39.4025 105.889 39.771C106.248 40.1395 106.728 40.3237 107.329 40.3237C107.672 40.3237 107.984 40.2494 108.265 40.1007C108.546 39.9521 108.758 39.7484 108.9 39.4898L110.238 40.2656C109.947 40.7503 109.543 41.1334 109.026 41.4146C108.509 41.6958 107.943 41.8364 107.329 41.8364ZM115.875 41.7006L115.512 40.634H112.9L112.561 41.7006H110.864L113.172 34.913H115.15L117.462 41.7006H115.875ZM113.37 39.1795H115.015L114.165 36.6875L113.37 39.1795ZM120.759 41.8364C120.067 41.8364 119.49 41.6861 119.028 41.3855C118.566 41.0849 118.238 40.676 118.044 40.1589L119.382 39.3832C119.654 40.0102 120.129 40.3237 120.808 40.3237C121.422 40.3237 121.729 40.1395 121.729 39.771C121.729 39.5706 121.63 39.4139 121.433 39.3008C121.236 39.1876 120.866 39.0567 120.323 38.908C120.038 38.8304 119.789 38.7432 119.576 38.6462C119.363 38.5493 119.154 38.4216 118.951 38.2632C118.747 38.1048 118.592 37.9061 118.485 37.6669C118.379 37.4277 118.325 37.1529 118.325 36.8427C118.325 36.2157 118.55 35.7146 118.999 35.3397C119.448 34.9648 119.983 34.7773 120.604 34.7773C121.16 34.7773 121.651 34.9082 122.078 35.17C122.504 35.4318 122.841 35.8116 123.086 36.3094L121.777 37.0754C121.654 36.8168 121.502 36.6213 121.321 36.4888C121.14 36.3562 120.901 36.29 120.604 36.29C120.371 36.29 120.192 36.3401 120.066 36.4403C119.94 36.5404 119.877 36.6617 119.877 36.8039C119.877 36.972 119.956 37.1174 120.114 37.2403C120.273 37.363 120.601 37.4988 121.098 37.6475C121.37 37.7315 121.58 37.7994 121.729 37.8511C121.877 37.9028 122.067 37.9884 122.296 38.108C122.525 38.2276 122.7 38.3537 122.82 38.4862C122.939 38.6188 123.046 38.7933 123.14 39.0098C123.233 39.2264 123.28 39.4737 123.28 39.7516C123.28 40.3981 123.047 40.9072 122.582 41.2788C122.117 41.6505 121.509 41.8364 120.759 41.8364ZM128.177 34.913H129.728V41.7006H128.177V39.005H126.044V41.7006H124.492V34.913H126.044V37.5117H128.177V34.913ZM132.928 40.2073H135.352V41.7006H131.377V34.913H132.928V40.2073ZM138.067 40.2073H140.782V41.7006H136.516V34.913H140.734V36.4063H138.067V37.5311H140.492V39.005H138.067V40.2073ZM144.516 41.8364C143.824 41.8364 143.247 41.6861 142.785 41.3855C142.323 41.0849 141.994 40.676 141.801 40.1589L143.139 39.3832C143.41 40.0102 143.885 40.3237 144.564 40.3237C145.178 40.3237 145.485 40.1395 145.485 39.771C145.485 39.5706 145.387 39.4139 145.189 39.3008C144.992 39.1876 144.622 39.0567 144.079 38.908C143.795 38.8304 143.546 38.7432 143.333 38.6462C143.119 38.5493 142.911 38.4216 142.707 38.2632C142.504 38.1048 142.348 37.9061 142.242 37.6669C142.135 37.4277 142.082 37.1529 142.082 36.8427C142.082 36.2157 142.306 35.7146 142.756 35.3397C143.205 34.9648 143.74 34.7773 144.36 34.7773C144.916 34.7773 145.408 34.9082 145.834 35.17C146.261 35.4318 146.597 35.8116 146.843 36.3094L145.534 37.0754C145.411 36.8168 145.259 36.6213 145.078 36.4888C144.897 36.3562 144.658 36.29 144.36 36.29C144.128 36.29 143.948 36.3401 143.822 36.4403C143.696 36.5404 143.633 36.6617 143.633 36.8039C143.633 36.972 143.712 37.1174 143.871 37.2403C144.029 37.363 144.357 37.4988 144.855 37.6475C145.126 37.7315 145.337 37.7994 145.485 37.8511C145.634 37.9028 145.823 37.9884 146.053 38.108C146.282 38.2276 146.457 38.3537 146.576 38.4862C146.696 38.6188 146.802 38.7933 146.896 39.0098C146.99 39.2264 147.037 39.4737 147.037 39.7516C147.037 40.3981 146.804 40.9072 146.339 41.2788C145.873 41.6505 145.265 41.8364 144.516 41.8364ZM150.479 41.8364C149.787 41.8364 149.21 41.6861 148.748 41.3855C148.286 41.0849 147.958 40.676 147.764 40.1589L149.102 39.3832C149.374 40.0102 149.849 40.3237 150.527 40.3237C151.142 40.3237 151.449 40.1395 151.449 39.771C151.449 39.5706 151.35 39.4139 151.153 39.3008C150.956 39.1876 150.586 39.0567 150.043 38.908C149.758 38.8304 149.509 38.7432 149.296 38.6462C149.083 38.5493 148.874 38.4216 148.671 38.2632C148.467 38.1048 148.312 37.9061 148.205 37.6669C148.098 37.4277 148.045 37.1529 148.045 36.8427C148.045 36.2157 148.27 35.7146 148.719 35.3397C149.168 34.9648 149.703 34.7773 150.324 34.7773C150.88 34.7773 151.371 34.9082 151.798 35.17C152.224 35.4318 152.56 35.8116 152.806 36.3094L151.497 37.0754C151.374 36.8168 151.222 36.6213 151.041 36.4888C150.86 36.3562 150.621 36.29 150.324 36.29C150.091 36.29 149.912 36.3401 149.786 36.4403C149.66 36.5404 149.597 36.6617 149.597 36.8039C149.597 36.972 149.676 37.1174 149.834 37.2403C149.993 37.363 150.321 37.4988 150.818 37.6475C151.09 37.7315 151.3 37.7994 151.449 37.8511C151.597 37.9028 151.786 37.9884 152.016 38.108C152.245 38.2276 152.42 38.3537 152.539 38.4862C152.659 38.6188 152.766 38.7933 152.859 39.0098C152.953 39.2264 153 39.4737 153 39.7516C153 40.3981 152.767 40.9072 152.302 41.2788C151.836 41.6505 151.229 41.8364 150.479 41.8364Z" fill="#3EA089"/>
<path d="M125.478 43.5745C125.713 43.5745 125.912 43.6544 126.074 43.8141C126.236 43.9739 126.317 44.1678 126.317 44.396C126.317 44.6243 126.236 44.8182 126.074 44.9779C125.912 45.1377 125.713 45.2176 125.478 45.2176H125.119V45.9706H124.571V43.5745H125.478ZM125.478 44.7041C125.563 44.7041 125.632 44.6744 125.687 44.6151C125.742 44.5558 125.769 44.4828 125.769 44.396C125.769 44.3093 125.742 44.2363 125.687 44.1769C125.632 44.1176 125.563 44.088 125.478 44.088H125.119V44.7041H125.478ZM128.021 45.9706L127.569 45.1833H127.309V45.9706H126.762V43.5745H127.72C127.948 43.5745 128.142 43.6544 128.302 43.8141C128.462 43.9739 128.542 44.1678 128.542 44.396C128.542 44.5421 128.501 44.6773 128.42 44.8017C128.339 44.926 128.232 45.0225 128.1 45.0909L128.61 45.9706H128.021ZM127.309 44.088V44.7041H127.72C127.795 44.7041 127.86 44.6744 127.914 44.6151C127.967 44.5558 127.994 44.4828 127.994 44.396C127.994 44.3093 127.967 44.2363 127.914 44.1769C127.86 44.1176 127.795 44.088 127.72 44.088H127.309ZM129.038 43.5745H129.586V45.9706H129.038V43.5745ZM130.701 45.9706L129.962 43.5745H130.56L131.094 45.3448L131.622 43.5745H132.174L131.441 45.9706H130.701ZM134.023 45.9706L133.895 45.5941H132.973L132.853 45.9706H132.254L133.069 43.5745H133.767L134.583 45.9706H134.023ZM133.139 45.0807H133.72L133.42 44.2009L133.139 45.0807ZM136.398 43.5745V44.1016H135.781V45.9706H135.234V44.1016H134.618V43.5745H136.398ZM137.356 45.4435H138.314V45.9706H136.808V43.5745H138.297V44.1016H137.356V44.4987H138.212V45.019H137.356V45.4435ZM140.368 45.4435H141.224V45.9706H139.821V43.5745H140.368V45.4435ZM141.635 43.5745H142.182V45.9706H141.635V43.5745ZM145.16 43.5745V45.9706H144.613V44.5775L143.993 45.5941H143.932L143.312 44.5775V45.9706H142.764V43.5745H143.312L143.962 44.6391L144.613 43.5745H145.16ZM145.742 43.5745H146.29V45.9706H145.742V43.5745ZM148.481 43.5745V44.1016H147.865V45.9706H147.317V44.1016H146.701V43.5745H148.481ZM149.439 45.4435H150.398V45.9706H148.892V43.5745H150.38V44.1016H149.439V44.4987H150.295V45.019H149.439V45.4435ZM151.835 43.5745C152.166 43.5745 152.443 43.6892 152.665 43.9185C152.888 44.1478 152.999 44.4325 152.999 44.7726C152.999 45.1126 152.888 45.3973 152.665 45.6266C152.443 45.8559 152.166 45.9706 151.835 45.9706H150.877V43.5745H151.835ZM151.835 45.4435C152.025 45.4435 152.178 45.3824 152.296 45.2604C152.413 45.1383 152.472 44.9757 152.472 44.7726C152.472 44.5695 152.413 44.4069 152.296 44.2848C152.178 44.1627 152.025 44.1016 151.835 44.1016H151.425V45.4435H151.835Z" fill="#3EA089"/>
</svg>
