<svg width="25" height="24" viewBox="0 0 25 24" fill="none" xmlns="http://www.w3.org/2000/svg">
<rect x="0.958984" width="23.9424" height="24" rx="11.9712" fill="#91D4C4"/>
<g clip-path="url(#clip0_1565_13087)">
<path d="M13.6364 7.54194V16.2849C13.6364 16.3903 13.5946 16.4913 13.5203 16.5659C13.4459 16.6404 13.3451 16.6823 13.2399 16.6823H10.0683C9.96318 16.6823 9.86234 16.6404 9.78799 16.5659C9.71364 16.4913 9.67188 16.3903 9.67188 16.2849V13.9004C9.67188 13.795 9.71364 13.6939 9.78799 13.6194C9.86234 13.5449 9.96318 13.503 10.0683 13.503H17.2045C17.3096 13.503 17.4104 13.4611 17.4848 13.3866C17.5591 13.3121 17.6009 13.211 17.6009 13.1056V10.7212C17.6009 10.6158 17.5591 10.5147 17.4848 10.4402C17.4104 10.3656 17.3096 10.3238 17.2045 10.3238H10.0683C9.96318 10.3238 9.86234 10.2819 9.78799 10.2074C9.71364 10.1328 9.67188 10.0318 9.67188 9.92637V7.54194C9.67188 7.43654 9.71364 7.33546 9.78799 7.26093C9.86234 7.1864 9.96318 7.14453 10.0683 7.14453H13.2399C13.3451 7.14453 13.4459 7.1864 13.5203 7.26093C13.5946 7.33546 13.6364 7.43654 13.6364 7.54194Z" stroke="#032930" stroke-linecap="round" stroke-linejoin="round"/>
</g>
<defs>
<clipPath id="clip0_1565_13087">
<rect width="12.6865" height="12.717" fill="white" transform="translate(6.5 5.55469)"/>
</clipPath>
</defs>
</svg>
