<svg width="25" height="25" viewBox="0 0 25 25" fill="none" xmlns="http://www.w3.org/2000/svg">
<g clip-path="url(#clip0_3708_2122)">
<path d="M16.4063 10.9375C16.4063 12.0191 16.0855 13.0765 15.4846 13.9758C14.8837 14.8751 14.0296 15.5761 13.0303 15.99C12.031 16.4039 10.9315 16.5122 9.87063 16.3012C8.8098 16.0902 7.83536 15.5693 7.07054 14.8045C6.30572 14.0397 5.78487 13.0652 5.57386 12.0044C5.36285 10.9436 5.47115 9.84399 5.88506 8.84471C6.29898 7.84542 6.99992 6.99132 7.89926 6.39041C8.79859 5.78949 9.85591 5.46876 10.9375 5.46876C12.3879 5.46876 13.7789 6.04493 14.8045 7.07052C15.8301 8.09611 16.4063 9.4871 16.4063 10.9375ZM22.4278 22.4277C22.3552 22.5004 22.269 22.558 22.1742 22.5973C22.0794 22.6366 21.9777 22.6569 21.875 22.6569C21.7724 22.6569 21.6707 22.6366 21.5759 22.5973C21.481 22.558 21.3949 22.5004 21.3223 22.4277L16.4336 17.5381C14.7335 18.9525 12.5536 19.657 10.3474 19.5051C8.14108 19.3532 6.07827 18.3567 4.58801 16.7227C3.09775 15.0887 2.29476 12.9432 2.34607 10.7323C2.39737 8.52136 3.29903 6.41533 4.86349 4.85226C6.42795 3.28918 8.53476 2.38939 10.7457 2.34003C12.9567 2.29068 15.1015 3.09556 16.7342 4.58727C18.3668 6.07897 19.3616 8.14266 19.5115 10.3491C19.6614 12.5555 18.955 14.7348 17.5391 16.4336L22.4278 21.3223C22.5004 21.3948 22.558 21.481 22.5973 21.5758C22.6367 21.6707 22.6569 21.7723 22.6569 21.875C22.6569 21.9777 22.6367 22.0793 22.5973 22.1742C22.558 22.269 22.5004 22.3552 22.4278 22.4277ZM10.9375 17.9688C12.3282 17.9688 13.6876 17.5564 14.8439 16.7838C16.0002 16.0112 16.9014 14.913 17.4336 13.6283C17.9657 12.3435 18.105 10.9297 17.8337 9.56578C17.5624 8.20185 16.8927 6.949 15.9094 5.96566C14.926 4.98232 13.6732 4.31266 12.3093 4.04136C10.9453 3.77006 9.53158 3.9093 8.24679 4.44148C6.96199 4.97366 5.86386 5.87487 5.09126 7.03115C4.31866 8.18744 3.90628 9.54686 3.90628 10.9375C3.90835 12.8017 4.6498 14.5889 5.96797 15.9071C7.28614 17.2252 9.07336 17.9667 10.9375 17.9688Z" fill="#3EA089"/>
</g>
<defs>
<clipPath id="clip0_3708_2122">
<rect width="25" height="25" fill="white"/>
</clipPath>
</defs>
</svg>
