<svg width="18" height="18" viewBox="0 0 18 18" fill="none" xmlns="http://www.w3.org/2000/svg">
<path d="M9 0.0625C7.23233 0.0625 5.50436 0.586675 4.0346 1.56874C2.56483 2.55081 1.41929 3.94665 0.742831 5.57977C0.0663725 7.21288 -0.11062 9.00992 0.234236 10.7436C0.579091 12.4773 1.43031 14.0698 2.68024 15.3198C3.93017 16.5697 5.52268 17.4209 7.25638 17.7658C8.99009 18.1106 10.7871 17.9336 12.4202 17.2572C14.0534 16.5807 15.4492 15.4352 16.4313 13.9654C17.4133 12.4956 17.9375 10.7677 17.9375 9C17.9348 6.63047 16.9923 4.35876 15.3168 2.68325C13.6412 1.00773 11.3695 0.0652294 9 0.0625ZM15.7341 5.5625H12.6704C12.2846 4.14703 11.6343 2.81738 10.754 1.64375C11.8176 1.89927 12.8135 2.38176 13.6732 3.05816C14.5329 3.73455 15.2363 4.58886 15.7349 5.5625H15.7341ZM16.5625 9C16.5631 9.69744 16.4668 10.3916 16.2763 11.0625H12.9669C13.1777 9.69558 13.1777 8.30442 12.9669 6.9375H16.2763C16.4668 7.60843 16.5631 8.30256 16.5625 9ZM9 1.69531C10.0295 2.79748 10.7937 4.12016 11.2344 5.5625H6.76563C7.20588 4.11996 7.97015 2.79719 9 1.69531ZM6.76563 12.4375H11.2344C10.7941 13.88 10.0299 15.2028 9 16.3047C7.97054 15.2025 7.20632 13.8798 6.76563 12.4375ZM6.43047 11.0625C6.19444 9.69763 6.19444 8.30237 6.43047 6.9375H11.5764C11.8124 8.30237 11.8124 9.69763 11.5764 11.0625H6.43047ZM10.7574 16.3563C11.6378 15.1826 12.288 13.853 12.6738 12.4375H15.7384C15.2393 13.4115 14.5355 14.2661 13.6751 14.9425C12.8148 15.6189 11.8183 16.1012 10.754 16.3563H10.7574Z" fill="#3EA089"/>
</svg>
