<svg width="22" height="22" viewBox="0 0 22 22" fill="none" xmlns="http://www.w3.org/2000/svg">
<path d="M17.8748 3.43774H4.12485C2.98576 3.43774 2.06235 4.36116 2.06235 5.50024V15.1252C2.06235 16.2643 2.98576 17.1877 4.12485 17.1877H17.8748C19.0139 17.1877 19.9373 16.2643 19.9373 15.1252V5.50024C19.9373 4.36116 19.0139 3.43774 17.8748 3.43774Z" fill="#3EA089"/>
<path d="M13.7499 18.5625H8.24988C8.06754 18.5625 7.89267 18.6349 7.76374 18.7639C7.63481 18.8928 7.56238 19.0677 7.56238 19.25C7.56238 19.4323 7.63481 19.6072 7.76374 19.7361C7.89267 19.8651 8.06754 19.9375 8.24988 19.9375H13.7499C13.9322 19.9375 14.1071 19.8651 14.236 19.7361C14.3649 19.6072 14.4374 19.4323 14.4374 19.25C14.4374 19.0677 14.3649 18.8928 14.236 18.7639C14.1071 18.6349 13.9322 18.5625 13.7499 18.5625Z" fill="#3EA089"/>
</svg>
