<svg width="22" height="22" viewBox="0 0 22 22" fill="none" xmlns="http://www.w3.org/2000/svg">
<g clip-path="url(#clip0_3708_2342)">
<path d="M17.875 2.75H4.125C3.76033 2.75 3.41059 2.89487 3.15273 3.15273C2.89487 3.41059 2.75 3.76033 2.75 4.125V17.875C2.75 18.2397 2.89487 18.5894 3.15273 18.8473C3.41059 19.1051 3.76033 19.25 4.125 19.25H17.875C18.2397 19.25 18.5894 19.1051 18.8473 18.8473C19.1051 18.5894 19.25 18.2397 19.25 17.875V4.125C19.25 3.76033 19.1051 3.41059 18.8473 3.15273C18.5894 2.89487 18.2397 2.75 17.875 2.75ZM6.875 17.875H4.125V4.125H6.875V17.875ZM15.125 13.0625H9.625C9.44266 13.0625 9.2678 12.9901 9.13886 12.8611C9.00993 12.7322 8.9375 12.5573 8.9375 12.375C8.9375 12.1927 9.00993 12.0178 9.13886 11.8889C9.2678 11.7599 9.44266 11.6875 9.625 11.6875H15.125C15.3073 11.6875 15.4822 11.7599 15.6111 11.8889C15.7401 12.0178 15.8125 12.1927 15.8125 12.375C15.8125 12.5573 15.7401 12.7322 15.6111 12.8611C15.4822 12.9901 15.3073 13.0625 15.125 13.0625ZM15.125 10.3125H9.625C9.44266 10.3125 9.2678 10.2401 9.13886 10.1111C9.00993 9.9822 8.9375 9.80734 8.9375 9.625C8.9375 9.44266 9.00993 9.2678 9.13886 9.13886C9.2678 9.00993 9.44266 8.9375 9.625 8.9375H15.125C15.3073 8.9375 15.4822 9.00993 15.6111 9.13886C15.7401 9.2678 15.8125 9.44266 15.8125 9.625C15.8125 9.80734 15.7401 9.9822 15.6111 10.1111C15.4822 10.2401 15.3073 10.3125 15.125 10.3125Z" fill="#3EA089"/>
</g>
<defs>
<clipPath id="clip0_3708_2342">
<rect width="22" height="22" fill="white"/>
</clipPath>
</defs>
</svg>
