<svg width="22" height="22" viewBox="0 0 22 22" fill="none" xmlns="http://www.w3.org/2000/svg">
<path d="M17.875 3.43799H4.125C2.98591 3.43799 2.0625 4.3614 2.0625 5.50049V15.1255C2.0625 16.2646 2.98591 17.188 4.125 17.188H17.875C19.0141 17.188 19.9375 16.2646 19.9375 15.1255V5.50049C19.9375 4.3614 19.0141 3.43799 17.875 3.43799Z" fill="#3EA089"/>
<path d="M13.75 18.5625H8.25C8.06766 18.5625 7.8928 18.6349 7.76386 18.7639C7.63493 18.8928 7.5625 19.0677 7.5625 19.25C7.5625 19.4323 7.63493 19.6072 7.76386 19.7361C7.8928 19.8651 8.06766 19.9375 8.25 19.9375H13.75C13.9323 19.9375 14.1072 19.8651 14.2361 19.7361C14.3651 19.6072 14.4375 19.4323 14.4375 19.25C14.4375 19.0677 14.3651 18.8928 14.2361 18.7639C14.1072 18.6349 13.9323 18.5625 13.75 18.5625Z" fill="#3EA089"/>
</svg>
