<svg width="22" height="22" viewBox="0 0 22 22" fill="none" xmlns="http://www.w3.org/2000/svg">
<g clip-path="url(#clip0_327_2663)">
<path d="M19.25 4.125V13.0625C19.25 13.4272 19.1051 13.7769 18.8473 14.0348C18.5894 14.2926 18.2397 14.4375 17.875 14.4375H9.625V15.8125C9.62511 15.9486 9.58484 16.0816 9.50931 16.1947C9.43377 16.3079 9.32636 16.3961 9.20067 16.4482C9.07498 16.5003 8.93666 16.5139 8.80323 16.4873C8.66979 16.4607 8.54724 16.3952 8.45109 16.2989L6.38859 14.2364C6.32467 14.1726 6.27396 14.0967 6.23937 14.0133C6.20477 13.9298 6.18696 13.8403 6.18696 13.75C6.18696 13.6597 6.20477 13.5702 6.23937 13.4867C6.27396 13.4033 6.32467 13.3274 6.38859 13.2636L8.45109 11.2011C8.54724 11.1048 8.66979 11.0393 8.80323 11.0127C8.93666 10.9861 9.07498 10.9997 9.20067 11.0518C9.32636 11.1039 9.43377 11.1921 9.50931 11.3053C9.58484 11.4184 9.62511 11.5514 9.625 11.6875V13.0625H17.875V4.125H8.25V4.8125C8.25 4.99484 8.17757 5.1697 8.04864 5.29864C7.9197 5.42757 7.74484 5.5 7.5625 5.5C7.38016 5.5 7.2053 5.42757 7.07636 5.29864C6.94743 5.1697 6.875 4.99484 6.875 4.8125V4.125C6.875 3.76033 7.01987 3.41059 7.27773 3.15273C7.53559 2.89487 7.88533 2.75 8.25 2.75H17.875C18.2397 2.75 18.5894 2.89487 18.8473 3.15273C19.1051 3.41059 19.25 3.76033 19.25 4.125ZM14.4375 16.5C14.2552 16.5 14.0803 16.5724 13.9514 16.7014C13.8224 16.8303 13.75 17.0052 13.75 17.1875V17.875H4.125V8.9375H12.375V10.3125C12.3749 10.4486 12.4152 10.5816 12.4907 10.6947C12.5662 10.8079 12.6736 10.8961 12.7993 10.9482C12.925 11.0003 13.0633 11.0139 13.1968 10.9873C13.3302 10.9607 13.4528 10.8952 13.5489 10.7989L15.6114 8.73641C15.6753 8.67256 15.726 8.59673 15.7606 8.51327C15.7952 8.42981 15.813 8.34035 15.813 8.25C15.813 8.15965 15.7952 8.07019 15.7606 7.98673C15.726 7.90327 15.6753 7.82744 15.6114 7.76359L13.5489 5.70109C13.4528 5.60484 13.3302 5.53927 13.1968 5.5127C13.0633 5.48613 12.925 5.49974 12.7993 5.55182C12.6736 5.6039 12.5662 5.6921 12.4907 5.80526C12.4152 5.91842 12.3749 6.05145 12.375 6.1875V7.5625H4.125C3.76033 7.5625 3.41059 7.70737 3.15273 7.96523C2.89487 8.22309 2.75 8.57283 2.75 8.9375V17.875C2.75 18.2397 2.89487 18.5894 3.15273 18.8473C3.41059 19.1051 3.76033 19.25 4.125 19.25H13.75C14.1147 19.25 14.4644 19.1051 14.7223 18.8473C14.9801 18.5894 15.125 18.2397 15.125 17.875V17.1875C15.125 17.0052 15.0526 16.8303 14.9236 16.7014C14.7947 16.5724 14.6198 16.5 14.4375 16.5Z" fill="#3EA089"/>
</g>
<defs>
<clipPath id="clip0_327_2663">
<rect width="22" height="22" fill="white"/>
</clipPath>
</defs>
</svg>
