<svg width="22" height="22" viewBox="0 0 22 22" fill="none" xmlns="http://www.w3.org/2000/svg">
<g clip-path="url(#clip0_327_2673)">
<path d="M10.3123 13.9167V19.5319C10.3126 19.5806 10.3026 19.6287 10.2829 19.6733C10.2632 19.7178 10.2343 19.7576 10.198 19.7901C10.1618 19.8226 10.1191 19.847 10.0727 19.8618C10.0263 19.8765 9.97733 19.8812 9.92898 19.8756C8.34038 19.6805 6.83302 19.0635 5.56356 18.0888C4.29409 17.114 3.30885 15.817 2.71023 14.3327C2.69233 14.2876 2.6842 14.2391 2.68636 14.1907C2.68853 14.1422 2.70094 14.0947 2.72277 14.0513C2.74461 14.008 2.77539 13.9697 2.81307 13.9391C2.85075 13.9085 2.89449 13.8862 2.9414 13.8738L8.3632 12.418C8.4326 12.3998 8.50597 12.4037 8.57301 12.4293C8.64005 12.4549 8.6974 12.5008 8.73702 12.5606C9.0653 13.0355 9.53369 13.3961 10.0768 13.5919C10.1451 13.6146 10.2046 13.6581 10.2468 13.7164C10.2891 13.7747 10.312 13.8448 10.3123 13.9167ZM11.0049 2.06252C10.9142 2.06184 10.8242 2.07912 10.7402 2.11336C10.6562 2.14761 10.5798 2.19814 10.5154 2.26205C10.4511 2.32596 10.4 2.40198 10.3651 2.48573C10.3302 2.56948 10.3123 2.6593 10.3123 2.75002V7.56252C10.3109 7.74334 10.3813 7.91732 10.5082 8.04622C10.635 8.17513 10.8078 8.24843 10.9886 8.25002C11.6379 8.24722 12.2672 8.47425 12.7652 8.89092C13.2632 9.30759 13.5976 9.88703 13.7094 10.5266C13.8212 11.1662 13.703 11.8248 13.3759 12.3856C13.0487 12.9465 12.5336 13.3735 11.9219 13.591C11.8536 13.6139 11.7942 13.6576 11.7521 13.7161C11.71 13.7745 11.6873 13.8447 11.6873 13.9167V19.5319C11.687 19.5805 11.6969 19.6286 11.7166 19.673C11.7362 19.7175 11.7651 19.7572 11.8012 19.7897C11.8373 19.8222 11.88 19.8467 11.9262 19.8615C11.9725 19.8763 12.0214 19.8811 12.0697 19.8756C14.3345 19.6078 16.4113 18.4842 17.8748 16.735C19.3382 14.9858 20.0776 12.7433 19.9415 10.4667C19.8054 8.19014 18.8042 6.0517 17.1428 4.48928C15.4814 2.92686 13.2856 2.05869 11.0049 2.06252ZM8.25492 10.7843C8.28691 10.3782 8.40873 9.9843 8.61156 9.63103V9.62502C8.67968 9.50736 8.71139 9.37214 8.70267 9.23646C8.69395 9.10078 8.64519 8.97073 8.56257 8.86275C8.50477 8.78848 8.43294 8.72629 8.35117 8.67971L4.19781 6.27861C4.11955 6.23349 4.03317 6.20423 3.9436 6.19251C3.85403 6.18078 3.76303 6.18683 3.6758 6.21029C3.58857 6.23375 3.50681 6.27418 3.43521 6.32925C3.36361 6.38433 3.30357 6.45298 3.25851 6.53127C2.25829 8.26357 1.86738 10.2811 2.1482 12.2616C2.15482 12.3099 2.17166 12.3563 2.1976 12.3976C2.22353 12.4389 2.25797 12.4743 2.29861 12.5013C2.33926 12.5283 2.38518 12.5463 2.43334 12.5542C2.48149 12.562 2.53076 12.5595 2.57788 12.5469L8.01085 11.086C8.07818 11.0673 8.13811 11.0284 8.18242 10.9744C8.22673 10.9204 8.25325 10.854 8.25835 10.7843H8.25492Z" fill="#3EA089"/>
</g>
<defs>
<clipPath id="clip0_327_2673">
<rect width="22" height="22" fill="white"/>
</clipPath>
</defs>
</svg>
