<svg width="22" height="22" viewBox="0 0 22 22" fill="none" xmlns="http://www.w3.org/2000/svg">
<g clip-path="url(#clip0_3708_2357)">
<path d="M19.9375 14.4375H19.25V6.1875C19.25 5.64049 19.0327 5.11589 18.6459 4.72909C18.2591 4.3423 17.7345 4.125 17.1875 4.125H4.8125C4.26549 4.125 3.74089 4.3423 3.35409 4.72909C2.9673 5.11589 2.75 5.64049 2.75 6.1875V14.4375H2.0625C1.88016 14.4375 1.7053 14.5099 1.57636 14.6389C1.44743 14.7678 1.375 14.9427 1.375 15.125V16.5C1.375 17.047 1.5923 17.5716 1.97909 17.9584C2.36589 18.3452 2.89049 18.5625 3.4375 18.5625H18.5625C19.1095 18.5625 19.6341 18.3452 20.0209 17.9584C20.4077 17.5716 20.625 17.047 20.625 16.5V15.125C20.625 14.9427 20.5526 14.7678 20.4236 14.6389C20.2947 14.5099 20.1198 14.4375 19.9375 14.4375ZM9.625 6.1875H12.375C12.5573 6.1875 12.7322 6.25993 12.8611 6.38886C12.9901 6.5178 13.0625 6.69266 13.0625 6.875C13.0625 7.05734 12.9901 7.2322 12.8611 7.36114C12.7322 7.49007 12.5573 7.5625 12.375 7.5625H9.625C9.44266 7.5625 9.2678 7.49007 9.13886 7.36114C9.00993 7.2322 8.9375 7.05734 8.9375 6.875C8.9375 6.69266 9.00993 6.5178 9.13886 6.38886C9.2678 6.25993 9.44266 6.1875 9.625 6.1875ZM19.25 16.5C19.25 16.6823 19.1776 16.8572 19.0486 16.9861C18.9197 17.1151 18.7448 17.1875 18.5625 17.1875H3.4375C3.25516 17.1875 3.0803 17.1151 2.95136 16.9861C2.82243 16.8572 2.75 16.6823 2.75 16.5V15.8125H19.25V16.5Z" fill="#3EA089"/>
</g>
<defs>
<clipPath id="clip0_3708_2357">
<rect width="22" height="22" fill="white"/>
</clipPath>
</defs>
</svg>
