<svg width="22" height="22" viewBox="0 0 22 22" fill="none" xmlns="http://www.w3.org/2000/svg">
<g clip-path="url(#clip0_3708_2362)">
<path d="M19.25 4.125H2.75C2.38533 4.125 2.03559 4.26987 1.77773 4.52773C1.51987 4.78559 1.375 5.13533 1.375 5.5V7.5625C1.375 7.92717 1.51987 8.27691 1.77773 8.53477C2.03559 8.79263 2.38533 8.9375 2.75 8.9375V16.5C2.75 16.8647 2.89487 17.2144 3.15273 17.4723C3.41059 17.7301 3.76033 17.875 4.125 17.875H17.875C18.2397 17.875 18.5894 17.7301 18.8473 17.4723C19.1051 17.2144 19.25 16.8647 19.25 16.5V8.9375C19.6147 8.9375 19.9644 8.79263 20.2223 8.53477C20.4801 8.27691 20.625 7.92717 20.625 7.5625V5.5C20.625 5.13533 20.4801 4.78559 20.2223 4.52773C19.9644 4.26987 19.6147 4.125 19.25 4.125ZM13.0625 12.375H8.9375C8.75516 12.375 8.5803 12.3026 8.45136 12.1736C8.32243 12.0447 8.25 11.8698 8.25 11.6875C8.25 11.5052 8.32243 11.3303 8.45136 11.2014C8.5803 11.0724 8.75516 11 8.9375 11H13.0625C13.2448 11 13.4197 11.0724 13.5486 11.2014C13.6776 11.3303 13.75 11.5052 13.75 11.6875C13.75 11.8698 13.6776 12.0447 13.5486 12.1736C13.4197 12.3026 13.2448 12.375 13.0625 12.375ZM19.25 7.5625H2.75V5.5H19.25V7.5625Z" fill="#3EA089"/>
</g>
<defs>
<clipPath id="clip0_3708_2362">
<rect width="22" height="22" fill="white"/>
</clipPath>
</defs>
</svg>
