<svg width="22" height="22" viewBox="0 0 22 22" fill="none" xmlns="http://www.w3.org/2000/svg">
<g clip-path="url(#clip0_375_1283)">
<path d="M11 2.0625C9.23233 2.0625 7.50436 2.58668 6.0346 3.56874C4.56483 4.55081 3.41929 5.94665 2.74283 7.57977C2.06637 9.21288 1.88938 11.0099 2.23424 12.7436C2.57909 14.4773 3.43031 16.0698 4.68024 17.3198C5.93017 18.5697 7.52268 19.4209 9.25638 19.7658C10.9901 20.1106 12.7871 19.9336 14.4202 19.2572C16.0534 18.5807 17.4492 17.4352 18.4313 15.9654C19.4133 14.4956 19.9375 12.7677 19.9375 11C19.9348 8.63047 18.9923 6.35876 17.3168 4.68325C15.6412 3.00773 13.3695 2.06523 11 2.0625ZM17.7341 7.5625H14.6704C14.2846 6.14703 13.6343 4.81738 12.754 3.64375C13.8176 3.89927 14.8135 4.38176 15.6732 5.05816C16.5329 5.73455 17.2363 6.58886 17.7349 7.5625H17.7341ZM18.5625 11C18.5631 11.6974 18.4668 12.3916 18.2763 13.0625H14.9669C15.1777 11.6956 15.1777 10.3044 14.9669 8.9375H18.2763C18.4668 9.60843 18.5631 10.3026 18.5625 11ZM11 3.69531C12.0295 4.79748 12.7937 6.12016 13.2344 7.5625H8.76563C9.20588 6.11996 9.97015 4.79719 11 3.69531ZM8.76563 14.4375H13.2344C12.7941 15.88 12.0299 17.2028 11 18.3047C9.97054 17.2025 9.20632 15.8798 8.76563 14.4375ZM8.43047 13.0625C8.19444 11.6976 8.19444 10.3024 8.43047 8.9375H13.5764C13.8124 10.3024 13.8124 11.6976 13.5764 13.0625H8.43047ZM12.7574 18.3563C13.6378 17.1826 14.288 15.853 14.6738 14.4375H17.7384C17.2393 15.4115 16.5355 16.2661 15.6751 16.9425C14.8148 17.6189 13.8183 18.1012 12.754 18.3563H12.7574Z" fill="#3EA089"/>
</g>
<defs>
<clipPath id="clip0_375_1283">
<rect width="22" height="22" fill="white"/>
</clipPath>
</defs>
</svg>
