<svg width="22" height="22" viewBox="0 0 22 22" fill="none" xmlns="http://www.w3.org/2000/svg">
<g clip-path="url(#clip0_3708_2372)">
<path d="M20.448 9.21342C20.4288 9.11661 20.3891 9.02506 20.3314 8.94498C20.2737 8.86491 20.1994 8.79819 20.1137 8.74936L17.5502 7.28842L17.5399 4.39921C17.5395 4.2997 17.5176 4.20145 17.4756 4.11124C17.4337 4.02103 17.3726 3.94101 17.2967 3.87671C16.3667 3.09012 15.2959 2.48732 14.141 2.10038C14.0501 2.06959 13.9537 2.0582 13.8581 2.06694C13.7625 2.07567 13.6697 2.10433 13.5859 2.15108L11 3.59655L8.41157 2.1485C8.32766 2.10149 8.23481 2.07261 8.13904 2.06373C8.04326 2.05485 7.94669 2.06616 7.85556 2.09694C6.70139 2.48637 5.6317 3.0915 4.70337 3.88014C4.62755 3.94435 4.56654 4.02424 4.52455 4.11429C4.48257 4.20434 4.4606 4.30243 4.46017 4.40178L4.44728 7.29358L1.88376 8.75452C1.798 8.80334 1.72375 8.87006 1.66607 8.95014C1.60838 9.03021 1.56861 9.12177 1.54946 9.21858C1.31485 10.3975 1.31485 11.6112 1.54946 12.7901C1.56861 12.887 1.60838 12.9785 1.66607 13.0586C1.72375 13.1387 1.798 13.2054 1.88376 13.2542L4.44728 14.7151L4.45759 17.6052C4.4579 17.7047 4.47981 17.803 4.5218 17.8932C4.56379 17.9834 4.62486 18.0634 4.70079 18.1277C5.6307 18.9143 6.70155 19.5171 7.85642 19.904C7.94736 19.9348 8.04375 19.9462 8.13937 19.9375C8.23498 19.9288 8.32771 19.9001 8.41157 19.8533L11 18.4036L13.5884 19.8516C13.6909 19.9087 13.8063 19.9383 13.9236 19.9376C13.9987 19.9375 14.0733 19.9254 14.1445 19.9015C15.2983 19.5122 16.368 18.9077 17.2967 18.12C17.3725 18.0558 17.4335 17.9759 17.4755 17.8858C17.5175 17.7958 17.5394 17.6977 17.5399 17.5983L17.5527 14.7065L20.1163 13.2456C20.202 13.1968 20.2763 13.1301 20.334 13.05C20.3916 12.9699 20.4314 12.8784 20.4506 12.7815C20.6839 11.6035 20.683 10.3911 20.448 9.21342ZM11 14.4376C10.3201 14.4376 9.65553 14.236 9.09024 13.8582C8.52494 13.4805 8.08435 12.9437 7.82417 12.3155C7.564 11.6874 7.49592 10.9963 7.62856 10.3294C7.7612 9.66263 8.08859 9.05013 8.56933 8.56939C9.05007 8.08864 9.66258 7.76125 10.3294 7.62862C10.9962 7.49598 11.6874 7.56405 12.3155 7.82423C12.9436 8.08441 13.4805 8.525 13.8582 9.09029C14.2359 9.65559 14.4375 10.3202 14.4375 11.0001C14.4375 11.9117 14.0753 12.7861 13.4307 13.4307C12.786 14.0754 11.9117 14.4376 11 14.4376Z" fill="#3EA089"/>
</g>
<defs>
<clipPath id="clip0_3708_2372">
<rect width="22" height="22" fill="white"/>
</clipPath>
</defs>
</svg>
