<svg width="22" height="22" viewBox="0 0 22 22" fill="none" xmlns="http://www.w3.org/2000/svg">
<g clip-path="url(#clip0_3708_2347)">
<path d="M18.5625 3.4375H6.1875C5.82283 3.4375 5.47309 3.58237 5.21523 3.84023C4.95737 4.09809 4.8125 4.44783 4.8125 4.8125V6.1875H3.4375C3.07283 6.1875 2.72309 6.33237 2.46523 6.59023C2.20737 6.84809 2.0625 7.19783 2.0625 7.5625V17.1875C2.0625 17.5522 2.20737 17.9019 2.46523 18.1598C2.72309 18.4176 3.07283 18.5625 3.4375 18.5625H15.8125C16.1772 18.5625 16.5269 18.4176 16.7848 18.1598C17.0426 17.9019 17.1875 17.5522 17.1875 17.1875V15.8125H18.5625C18.9272 15.8125 19.2769 15.6676 19.5348 15.4098C19.7926 15.1519 19.9375 14.8022 19.9375 14.4375V4.8125C19.9375 4.44783 19.7926 4.09809 19.5348 3.84023C19.2769 3.58237 18.9272 3.4375 18.5625 3.4375ZM15.8125 7.5625V8.9375H3.4375V7.5625H15.8125ZM18.5625 14.4375H17.1875V7.5625C17.1875 7.19783 17.0426 6.84809 16.7848 6.59023C16.5269 6.33237 16.1772 6.1875 15.8125 6.1875H6.1875V4.8125H18.5625V14.4375Z" fill="#3EA089"/>
</g>
<defs>
<clipPath id="clip0_3708_2347">
<rect width="22" height="22" fill="white"/>
</clipPath>
</defs>
</svg>
