<svg width="22" height="22" viewBox="0 0 22 22" fill="none" xmlns="http://www.w3.org/2000/svg">
<g clip-path="url(#clip0_327_2678)">
<path d="M8.25 8.9375C8.11403 8.9375 7.9811 8.89718 7.86805 8.82164C7.75499 8.74609 7.66687 8.63872 7.61483 8.51309C7.5628 8.38747 7.54918 8.24924 7.57571 8.11588C7.60224 7.98251 7.66772 7.86001 7.76386 7.76386C7.86001 7.66772 7.98251 7.60224 8.11588 7.57571C8.24924 7.54918 8.38747 7.5628 8.51309 7.61483C8.63872 7.66687 8.74609 7.75499 8.82164 7.86805C8.89718 7.9811 8.9375 8.11403 8.9375 8.25C8.9375 8.43234 8.86507 8.6072 8.73614 8.73614C8.6072 8.86507 8.43234 8.9375 8.25 8.9375ZM13.75 13.0625C13.614 13.0625 13.4811 13.1028 13.368 13.1784C13.255 13.2539 13.1669 13.3613 13.1148 13.4869C13.0628 13.6125 13.0492 13.7508 13.0757 13.8841C13.1022 14.0175 13.1677 14.14 13.2639 14.2361C13.36 14.3323 13.4825 14.3978 13.6159 14.4243C13.7492 14.4508 13.8875 14.4372 14.0131 14.3852C14.1387 14.3331 14.2461 14.245 14.3216 14.132C14.3972 14.0189 14.4375 13.886 14.4375 13.75C14.4375 13.5677 14.3651 13.3928 14.2361 13.2639C14.1072 13.1349 13.9323 13.0625 13.75 13.0625ZM20.625 11C20.625 11.8972 19.9796 12.5701 19.4098 13.1639C19.0859 13.5025 18.7507 13.8514 18.6244 14.1582C18.5075 14.4392 18.5006 14.905 18.4937 15.3562C18.4809 16.1949 18.4671 17.1454 17.8062 17.8062C17.1454 18.4671 16.1949 18.4809 15.3562 18.4937C14.905 18.5006 14.4392 18.5075 14.1582 18.6244C13.8514 18.7507 13.5025 19.0859 13.1639 19.4098C12.5701 19.9796 11.8972 20.625 11 20.625C10.1028 20.625 9.42992 19.9796 8.83609 19.4098C8.4975 19.0859 8.14859 18.7507 7.8418 18.6244C7.56078 18.5075 7.095 18.5006 6.64383 18.4937C5.80508 18.4809 4.85461 18.4671 4.19375 17.8062C3.53289 17.1454 3.51914 16.1949 3.50625 15.3562C3.49937 14.905 3.4925 14.4392 3.37562 14.1582C3.2493 13.8514 2.91414 13.5025 2.59016 13.1639C2.02039 12.5701 1.375 11.8972 1.375 11C1.375 10.1028 2.02039 9.42992 2.59016 8.83609C2.91414 8.4975 3.2493 8.14859 3.37562 7.8418C3.4925 7.56078 3.49937 7.095 3.50625 6.64383C3.51914 5.80508 3.53289 4.85461 4.19375 4.19375C4.85461 3.53289 5.80508 3.51914 6.64383 3.50625C7.095 3.49937 7.56078 3.4925 7.8418 3.37562C8.14859 3.2493 8.4975 2.91414 8.83609 2.59016C9.42992 2.02039 10.1028 1.375 11 1.375C11.8972 1.375 12.5701 2.02039 13.1639 2.59016C13.5025 2.91414 13.8514 3.2493 14.1582 3.37562C14.4392 3.4925 14.905 3.49937 15.3562 3.50625C16.1949 3.51914 17.1454 3.53289 17.8062 4.19375C18.4671 4.85461 18.4809 5.80508 18.4937 6.64383C18.5006 7.095 18.5075 7.56078 18.6244 7.8418C18.7507 8.14859 19.0859 8.4975 19.4098 8.83609C19.9796 9.42992 20.625 10.1028 20.625 11ZM8.25 10.3125C8.65792 10.3125 9.05669 10.1915 9.39586 9.96491C9.73504 9.73828 9.9994 9.41616 10.1555 9.03928C10.3116 8.66241 10.3525 8.24771 10.2729 7.84763C10.1933 7.44754 9.99685 7.08004 9.70841 6.79159C9.41996 6.50315 9.05246 6.30671 8.65237 6.22713C8.25229 6.14755 7.83759 6.18839 7.46072 6.3445C7.08384 6.5006 6.76172 6.76496 6.53509 7.10414C6.30846 7.44331 6.1875 7.84208 6.1875 8.25C6.1875 8.79701 6.4048 9.32161 6.79159 9.70841C7.17839 10.0952 7.70299 10.3125 8.25 10.3125ZM14.9239 8.04891C14.9878 7.98503 15.0385 7.9092 15.073 7.82574C15.1076 7.74228 15.1254 7.65283 15.1254 7.5625C15.1254 7.47217 15.1076 7.38272 15.073 7.29926C15.0385 7.2158 14.9878 7.13997 14.9239 7.07609C14.86 7.01222 14.7842 6.96155 14.7007 6.92698C14.6173 6.89241 14.5278 6.87462 14.4375 6.87462C14.3472 6.87462 14.2577 6.89241 14.1743 6.92698C14.0908 6.96155 14.015 7.01222 13.9511 7.07609L7.07609 13.9511C7.01222 14.015 6.96155 14.0908 6.92698 14.1743C6.89241 14.2577 6.87462 14.3472 6.87462 14.4375C6.87462 14.5278 6.89241 14.6173 6.92698 14.7007C6.96155 14.7842 7.01222 14.86 7.07609 14.9239C7.2051 15.0529 7.38006 15.1254 7.5625 15.1254C7.65283 15.1254 7.74228 15.1076 7.82574 15.073C7.9092 15.0385 7.98503 14.9878 8.04891 14.9239L14.9239 8.04891ZM15.8125 13.75C15.8125 13.3421 15.6915 12.9433 15.4649 12.6041C15.2383 12.265 14.9162 12.0006 14.5393 11.8445C14.1624 11.6884 13.7477 11.6475 13.3476 11.7271C12.9475 11.8067 12.58 12.0031 12.2916 12.2916C12.0031 12.58 11.8067 12.9475 11.7271 13.3476C11.6475 13.7477 11.6884 14.1624 11.8445 14.5393C12.0006 14.9162 12.265 15.2383 12.6041 15.4649C12.9433 15.6915 13.3421 15.8125 13.75 15.8125C14.297 15.8125 14.8216 15.5952 15.2084 15.2084C15.5952 14.8216 15.8125 14.297 15.8125 13.75Z" fill="#3EA089"/>
</g>
<defs>
<clipPath id="clip0_327_2678">
<rect width="22" height="22" fill="white"/>
</clipPath>
</defs>
</svg>
