<svg width="22" height="22" viewBox="0 0 22 22" fill="none" xmlns="http://www.w3.org/2000/svg">
<g clip-path="url(#clip0_3708_2377)">
<path d="M10.3125 13.9167V19.5319C10.3128 19.5806 10.3028 19.6287 10.2831 19.6733C10.2634 19.7178 10.2345 19.7576 10.1983 19.7901C10.162 19.8226 10.1193 19.847 10.0729 19.8618C10.0266 19.8765 9.97757 19.8812 9.92922 19.8756C8.34062 19.6805 6.83327 19.0635 5.5638 18.0888C4.29434 17.114 3.3091 15.817 2.71047 14.3327C2.69258 14.2876 2.68445 14.2391 2.68661 14.1907C2.68877 14.1422 2.70118 14.0947 2.72302 14.0513C2.74486 14.008 2.77563 13.9697 2.81331 13.9391C2.851 13.9085 2.89473 13.8862 2.94164 13.8738L8.36344 12.418C8.43285 12.3998 8.50621 12.4037 8.57325 12.4293C8.64029 12.4549 8.69764 12.5008 8.73727 12.5606C9.06555 13.0355 9.53394 13.3961 10.077 13.5919C10.1454 13.6146 10.2048 13.6581 10.2471 13.7164C10.2893 13.7747 10.3122 13.8448 10.3125 13.9167ZM11.0052 2.06252C10.9144 2.06184 10.8245 2.07912 10.7405 2.11336C10.6565 2.14761 10.5801 2.19814 10.5157 2.26205C10.4513 2.32596 10.4002 2.40198 10.3653 2.48573C10.3305 2.56948 10.3125 2.6593 10.3125 2.75002V7.56252C10.3111 7.74334 10.3816 7.91732 10.5084 8.04622C10.6352 8.17513 10.808 8.24843 10.9888 8.25002C11.6381 8.24722 12.2675 8.47425 12.7654 8.89092C13.2634 9.30759 13.5979 9.88703 13.7097 10.5266C13.8214 11.1662 13.7033 11.8248 13.3761 12.3856C13.0489 12.9465 12.5339 13.3735 11.9221 13.591C11.8538 13.6139 11.7944 13.6576 11.7523 13.7161C11.7102 13.7745 11.6876 13.8447 11.6875 13.9167V19.5319C11.6872 19.5805 11.6972 19.6286 11.7168 19.673C11.7365 19.7175 11.7653 19.7572 11.8014 19.7897C11.8376 19.8222 11.8802 19.8467 11.9265 19.8615C11.9728 19.8763 12.0216 19.8811 12.0699 19.8756C14.3348 19.6078 16.4116 18.4842 17.875 16.735C19.3385 14.9858 20.0778 12.7433 19.9418 10.4667C19.8057 8.19014 18.8044 6.0517 17.143 4.48928C15.4816 2.92686 13.2858 2.05869 11.0052 2.06252ZM8.25516 10.7843C8.28716 10.3782 8.40897 9.9843 8.6118 9.63103V9.62502C8.67992 9.50736 8.71163 9.37214 8.70291 9.23646C8.69419 9.10078 8.64544 8.97073 8.56282 8.86275C8.50502 8.78848 8.43319 8.72629 8.35141 8.67971L4.19805 6.27861C4.1198 6.23349 4.03341 6.20423 3.94385 6.19251C3.85428 6.18078 3.76328 6.18683 3.67604 6.21029C3.58881 6.23375 3.50706 6.27418 3.43546 6.32925C3.36386 6.38433 3.30381 6.45298 3.25875 6.53127C2.25853 8.26357 1.86762 10.2811 2.14844 12.2616C2.15507 12.3099 2.17191 12.3563 2.19784 12.3976C2.22378 12.4389 2.25821 12.4743 2.29886 12.5013C2.3395 12.5283 2.38543 12.5463 2.43358 12.5542C2.48173 12.562 2.53101 12.5595 2.57813 12.5469L8.0111 11.086C8.07843 11.0673 8.13835 11.0284 8.18266 10.9744C8.22697 10.9204 8.2535 10.854 8.2586 10.7843H8.25516Z" fill="#3EA089"/>
</g>
<defs>
<clipPath id="clip0_3708_2377">
<rect width="22" height="22" fill="white"/>
</clipPath>
</defs>
</svg>
