<svg width="22" height="22" viewBox="0 0 22 22" fill="none" xmlns="http://www.w3.org/2000/svg">
<g clip-path="url(#clip0_327_2683)">
<path d="M20.448 9.21318C20.4289 9.11637 20.3891 9.02481 20.3314 8.94474C20.2737 8.86466 20.1995 8.79794 20.1137 8.74912L17.5502 7.28818L17.5399 4.39896C17.5396 4.29946 17.5177 4.20121 17.4757 4.111C17.4337 4.02079 17.3726 3.94077 17.2967 3.87646C16.3668 3.08987 15.2959 2.48708 14.1411 2.10013C14.0501 2.06935 13.9537 2.05796 13.8581 2.06669C13.7625 2.07542 13.6698 2.10409 13.5859 2.15084L11 3.59631L8.4116 2.14826C8.32769 2.10125 8.23484 2.07237 8.13907 2.06348C8.04329 2.0546 7.94672 2.06592 7.85559 2.0967C6.70142 2.48613 5.63173 3.09125 4.7034 3.8799C4.62758 3.94411 4.56657 4.02399 4.52459 4.11404C4.4826 4.2041 4.46063 4.30218 4.4602 4.40154L4.44731 7.29334L1.88379 8.75427C1.79803 8.8031 1.72378 8.86982 1.6661 8.94989C1.60841 9.02997 1.56864 9.12152 1.54949 9.21834C1.31488 10.3973 1.31488 11.6109 1.54949 12.7899C1.56864 12.8867 1.60841 12.9783 1.6661 13.0583C1.72378 13.1384 1.79803 13.2051 1.88379 13.254L4.44731 14.7149L4.45762 17.605C4.45793 17.7045 4.47984 17.8027 4.52183 17.8929C4.56382 17.9832 4.62489 18.0632 4.70082 18.1275C5.63073 18.9141 6.70158 19.5169 7.85645 19.9038C7.94739 19.9346 8.04378 19.946 8.1394 19.9372C8.23501 19.9285 8.32774 19.8999 8.4116 19.8531L11 18.4033L13.5885 19.8514C13.6909 19.9085 13.8064 19.9381 13.9236 19.9373C13.9987 19.9373 14.0733 19.9251 14.1445 19.9012C15.2984 19.512 16.368 18.9075 17.2967 18.1197C17.3725 18.0555 17.4335 17.9757 17.4755 17.8856C17.5175 17.7955 17.5394 17.6975 17.5399 17.5981L17.5528 14.7063L20.1163 13.2454C20.2021 13.1965 20.2763 13.1298 20.334 13.0497C20.3917 12.9697 20.4314 12.8781 20.4506 12.7813C20.6839 11.6033 20.683 10.3909 20.448 9.21318ZM11 14.4373C10.3202 14.4373 9.65556 14.2357 9.09027 13.858C8.52497 13.4803 8.08438 12.9434 7.8242 12.3153C7.56403 11.6872 7.49595 10.996 7.62859 10.3292C7.76123 9.66239 8.08862 9.04988 8.56936 8.56914C9.0501 8.0884 9.66261 7.76101 10.3294 7.62837C10.9962 7.49573 11.6874 7.56381 12.3155 7.82399C12.9436 8.08416 13.4805 8.52475 13.8582 9.09005C14.2359 9.65534 14.4375 10.3199 14.4375 10.9998C14.4375 11.9115 14.0754 12.7858 13.4307 13.4305C12.7861 14.0752 11.9117 14.4373 11 14.4373Z" fill="#3EA089"/>
</g>
<defs>
<clipPath id="clip0_327_2683">
<rect width="22" height="22" fill="white"/>
</clipPath>
</defs>
</svg>
