<svg width="22" height="22" viewBox="0 0 22 22" fill="none" xmlns="http://www.w3.org/2000/svg">
<g clip-path="url(#clip0_504_22413)">
<path d="M18.5625 3.4375H3.4375C3.07283 3.4375 2.72309 3.58237 2.46523 3.84023C2.20737 4.09809 2.0625 4.44783 2.0625 4.8125V15.8125C2.0625 16.1772 2.20737 16.5269 2.46523 16.7848C2.72309 17.0426 3.07283 17.1875 3.4375 17.1875H8.6307L9.80633 19.2448C9.92662 19.4552 10.1004 19.6301 10.31 19.7517C10.5196 19.8733 10.7577 19.9374 11 19.9374C11.2423 19.9374 11.4804 19.8733 11.69 19.7517C11.8996 19.6301 12.0734 19.4552 12.1937 19.2448L13.3693 17.1875H18.5625C18.9272 17.1875 19.2769 17.0426 19.5348 16.7848C19.7926 16.5269 19.9375 16.1772 19.9375 15.8125V4.8125C19.9375 4.44783 19.7926 4.09809 19.5348 3.84023C19.2769 3.58237 18.9272 3.4375 18.5625 3.4375ZM7.21875 11.3438C7.01479 11.3438 6.81541 11.2833 6.64582 11.17C6.47623 11.0566 6.34405 10.8956 6.266 10.7071C6.18795 10.5187 6.16752 10.3114 6.20731 10.1113C6.24711 9.91127 6.34532 9.72752 6.48955 9.5833C6.63377 9.43907 6.81752 9.34086 7.01756 9.30106C7.21761 9.26127 7.42496 9.2817 7.61339 9.35975C7.80183 9.4378 7.96289 9.56998 8.0762 9.73957C8.18952 9.90916 8.25 10.1085 8.25 10.3125C8.25 10.586 8.14135 10.8483 7.94795 11.0417C7.75456 11.2351 7.49225 11.3438 7.21875 11.3438ZM11 11.3438C10.796 11.3438 10.5967 11.2833 10.4271 11.17C10.2575 11.0566 10.1253 10.8956 10.0472 10.7071C9.9692 10.5187 9.94877 10.3114 9.98856 10.1113C10.0284 9.91127 10.1266 9.72752 10.2708 9.5833C10.415 9.43907 10.5988 9.34086 10.7988 9.30106C10.9989 9.26127 11.2062 9.2817 11.3946 9.35975C11.5831 9.4378 11.7441 9.56998 11.8575 9.73957C11.9708 9.90916 12.0312 10.1085 12.0312 10.3125C12.0312 10.586 11.9226 10.8483 11.7292 11.0417C11.5358 11.2351 11.2735 11.3438 11 11.3438ZM14.7812 11.3438C14.5773 11.3438 14.3779 11.2833 14.2083 11.17C14.0387 11.0566 13.9066 10.8956 13.8285 10.7071C13.7504 10.5187 13.73 10.3114 13.7698 10.1113C13.8096 9.91127 13.9078 9.72752 14.052 9.5833C14.1963 9.43907 14.38 9.34086 14.5801 9.30106C14.7801 9.26127 14.9875 9.2817 15.1759 9.35975C15.3643 9.4378 15.5254 9.56998 15.6387 9.73957C15.752 9.90916 15.8125 10.1085 15.8125 10.3125C15.8125 10.586 15.7038 10.8483 15.5105 11.0417C15.3171 11.2351 15.0548 11.3438 14.7812 11.3438Z" fill="#3EA089"/>
</g>
<defs>
<clipPath id="clip0_504_22413">
<rect width="22" height="22" fill="white"/>
</clipPath>
</defs>
</svg>
