<svg width="22" height="22" viewBox="0 0 22 22" fill="none" xmlns="http://www.w3.org/2000/svg">
<g clip-path="url(#clip0_3708_2352)">
<path d="M19.8137 9.51157C20.1278 11.3786 19.8404 13.2972 18.9931 14.9902C18.1457 16.6833 16.7822 18.0632 15.0994 18.9309C13.4166 19.7985 11.5016 20.1088 9.63096 19.8171C7.76028 19.5254 6.03071 18.6468 4.69196 17.308C3.35321 15.9693 2.47456 14.2397 2.18287 12.369C1.89118 10.4984 2.20154 8.5834 3.06915 6.90062C3.93676 5.21783 5.31671 3.85432 7.00977 3.00694C8.70283 2.15956 10.6214 1.87217 12.4884 2.18626C12.6669 2.21782 12.8257 2.31857 12.9302 2.4666C13.0348 2.61462 13.0767 2.79795 13.0468 2.9767C13.0169 3.15545 12.9176 3.31516 12.7706 3.42109C12.6235 3.52702 12.4406 3.5706 12.2616 3.54235C11.1771 3.35993 10.066 3.416 9.00545 3.70667C7.94491 3.99734 6.96044 4.51562 6.12056 5.22544C5.28069 5.93526 4.60558 6.81957 4.14221 7.81684C3.67885 8.8141 3.43836 9.90036 3.43749 11C3.43586 12.8513 4.11627 14.6383 5.34874 16.0196C5.84857 15.2947 6.4835 14.6729 7.21874 14.1883C7.28151 14.1467 7.35621 14.1268 7.43135 14.1318C7.5065 14.1368 7.57793 14.1663 7.63468 14.2158C8.56862 15.0239 9.76236 15.4687 10.9974 15.4687C12.2325 15.4687 13.4262 15.0239 14.3601 14.2158C14.4169 14.1663 14.4883 14.1368 14.5635 14.1318C14.6386 14.1268 14.7133 14.1467 14.7761 14.1883C15.5121 14.6729 16.1478 15.2946 16.6487 16.0196C17.8821 14.6386 18.5634 12.8516 18.5625 11C18.5625 10.5773 18.5275 10.1553 18.4576 9.73845C18.4418 9.64901 18.4439 9.55734 18.4637 9.4687C18.4835 9.38007 18.5207 9.29625 18.5731 9.22207C18.6255 9.14789 18.6921 9.08482 18.769 9.03652C18.8459 8.98822 18.9316 8.95563 19.0212 8.94065C19.1108 8.92566 19.2024 8.92857 19.2909 8.94921C19.3793 8.96985 19.4628 9.00781 19.5365 9.06089C19.6102 9.11398 19.6726 9.18114 19.7202 9.25849C19.7678 9.33585 19.7996 9.42186 19.8137 9.51157ZM7.21874 10.3125C7.21874 11.0604 7.44051 11.7914 7.856 12.4133C8.27149 13.0351 8.86204 13.5197 9.55297 13.8059C10.2439 14.0921 11.0042 14.167 11.7377 14.0211C12.4712 13.8752 13.1449 13.5151 13.6737 12.9863C14.2026 12.4574 14.5627 11.7837 14.7086 11.0502C14.8545 10.3167 14.7796 9.55642 14.4934 8.86549C14.2072 8.17455 13.7226 7.584 13.1007 7.16852C12.4789 6.75303 11.7479 6.53126 11 6.53126C9.99714 6.53126 9.03537 6.92964 8.32624 7.63876C7.61712 8.34788 7.21874 9.30966 7.21874 10.3125ZM20.4239 2.9511C20.36 2.88718 20.2842 2.83647 20.2008 2.80188C20.1173 2.76728 20.0278 2.74947 19.9375 2.74947C19.8471 2.74947 19.7577 2.76728 19.6742 2.80188C19.5908 2.83647 19.5149 2.88718 19.4511 2.9511L17.1875 5.21556L16.2989 4.3261C16.235 4.26223 16.1592 4.21156 16.0757 4.17699C15.9923 4.14242 15.9028 4.12463 15.8125 4.12463C15.7222 4.12463 15.6327 4.14242 15.5493 4.17699C15.4658 4.21156 15.39 4.26223 15.3261 4.3261C15.2622 4.38998 15.2115 4.46581 15.177 4.54927C15.1424 4.63273 15.1246 4.72218 15.1246 4.81251C15.1246 4.90284 15.1424 4.99229 15.177 5.07575C15.2115 5.15921 15.2622 5.23504 15.3261 5.29892L16.7011 6.67392C16.7649 6.73784 16.8408 6.78855 16.9242 6.82314C17.0077 6.85774 17.0971 6.87555 17.1875 6.87555C17.2778 6.87555 17.3673 6.85774 17.4508 6.82314C17.5342 6.78855 17.61 6.73784 17.6739 6.67392L20.4239 3.92392C20.4878 3.86007 20.5385 3.78424 20.5731 3.70078C20.6077 3.61732 20.6255 3.52786 20.6255 3.43751C20.6255 3.34716 20.6077 3.2577 20.5731 3.17424C20.5385 3.09078 20.4878 3.01495 20.4239 2.9511Z" fill="#3EA089"/>
</g>
<defs>
<clipPath id="clip0_3708_2352">
<rect width="22" height="22" fill="white"/>
</clipPath>
</defs>
</svg>
