<svg width="22" height="22" viewBox="0 0 22 22" fill="none" xmlns="http://www.w3.org/2000/svg">
<g clip-path="url(#clip0_3708_2367)">
<path d="M19.6402 7.44733L4.51 2.80671C4.30522 2.74698 4.08934 2.73572 3.87946 2.77381C3.66957 2.8119 3.47142 2.89831 3.30069 3.02619C3.12995 3.15408 2.99132 3.31993 2.89574 3.51064C2.80016 3.70134 2.75027 3.91167 2.75 4.12499V16.5C2.75 16.8647 2.89487 17.2144 3.15273 17.4723C3.41059 17.7301 3.76033 17.875 4.125 17.875C4.25648 17.875 4.3873 17.8562 4.51344 17.8191L11.6875 15.6174V16.5C11.6875 16.8647 11.8324 17.2144 12.0902 17.4723C12.3481 17.7301 12.6978 17.875 13.0625 17.875H15.8125C16.1772 17.875 16.5269 17.7301 16.7848 17.4723C17.0426 17.2144 17.1875 16.8647 17.1875 16.5V13.9305L19.6402 13.1785C19.924 13.0932 20.173 12.919 20.3503 12.6815C20.5276 12.444 20.6239 12.1558 20.625 11.8594V8.76561C20.6237 8.46937 20.5273 8.18136 20.35 7.94403C20.1727 7.70669 19.9239 7.53258 19.6402 7.44733ZM15.8125 16.5H13.0625V15.1955L15.8125 14.3516V16.5ZM19.25 11.8594H19.2405L13.0625 13.7569V6.86726L19.2405 8.76561H19.25V11.8594Z" fill="#3EA089"/>
</g>
<defs>
<clipPath id="clip0_3708_2367">
<rect width="22" height="22" fill="white"/>
</clipPath>
</defs>
</svg>
