<svg width="67" height="46" viewBox="0 0 67 46" fill="none" xmlns="http://www.w3.org/2000/svg">
<path fill-rule="evenodd" clip-rule="evenodd" d="M43.7345 0.50293L43.7917 0.503455H43.5874L43.7345 0.50293ZM43.9602 0.505034C52.7177 0.591158 60.2751 5.68779 63.9047 13.0658C63.8161 13.8587 63.7028 14.9969 63.9626 16.1815C64.2419 17.456 63.673 18.8325 62.8109 19.8007C62.0454 20.6602 61.7221 21.3027 60.2274 21.8236C59.9205 21.9307 59.5094 21.9977 59.2099 22.0105C56.7591 22.1154 54.8088 19.8731 54.2828 19.6553L52.5139 19.1999C51.4542 18.9279 51.7803 18.9156 51.2662 18.7123C50.0225 18.2209 49.1096 18.1903 47.8522 19.0986C46.5596 20.0328 46.7167 20.4945 46.3056 21.4466C46.1344 21.8433 45.8969 21.7522 45.7866 22.2136C45.6208 22.9075 45.2668 23.4871 45.0386 24.1546C44.9299 24.4725 44.802 24.923 44.8467 25.3654C44.9703 26.592 45.9328 27.7327 46.9805 28.2136C48.6194 28.9661 50.8785 30.8333 51.1933 30.9945C52.081 31.4492 52.1885 31.5832 52.9043 32.0255C53.1095 32.1524 53.0516 32.0638 53.2568 32.3229C54.2251 33.5459 53.686 33.8727 53.5185 34.6659C53.4646 34.9209 53.4574 34.8743 53.3505 35.1206C53.1754 35.5241 53.2418 35.6633 53.0636 36.0448C52.9975 36.1865 52.8991 36.315 52.7941 36.4668L52.2296 37.2962C52.1618 37.388 52.0232 37.6181 51.9489 37.7236C51.5544 38.2827 50.7391 38.6142 50.1345 39.1818C49.8223 39.4747 49.63 39.6397 49.272 39.9065C49.0498 40.0722 48.394 40.715 48.5983 40.7578C48.6923 40.9574 47.9991 41.5015 47.8999 41.9686C47.4746 43.9701 48.4616 43.178 48.2606 44.2936C48.2015 44.622 48.2216 44.6779 48.0243 45.0263C46.6355 45.2949 45.2017 45.4372 43.7345 45.4372C43.327 45.4372 42.922 45.4263 42.5198 45.4048V13.4671H43.9602V12.0267V10.5862V9.14588V7.70548V6.26515V4.82467V3.38426V1.94394V0.505034ZM41.0793 13.4671V45.2818C40.5943 45.2247 40.114 45.1521 39.6391 45.0645V13.4671H41.0793ZM38.1986 13.4671V44.7495C37.7119 44.6261 37.2317 44.4868 36.7583 44.3322V13.4671H38.1986ZM35.3179 13.4671V43.8064C34.8289 43.6087 34.3485 43.3943 33.8774 43.1638V13.4671H35.3179ZM32.4371 13.4671V42.3931C25.7573 38.4994 21.2673 31.2595 21.2673 22.9702C21.2673 19.5733 22.0219 16.3529 23.3718 13.4671H32.4371ZM65.5074 17.4094C65.9602 19.1879 66.2016 21.0508 66.2016 22.9702C66.2016 33.3348 59.1823 42.0589 49.6386 44.6515C49.7078 44.4713 49.7523 44.328 49.7597 44.2487C49.9727 41.9972 48.4473 42.2317 51.9549 39.2446C52.9058 38.4349 53.4167 37.0566 53.8248 35.9073C53.9428 35.5747 53.7423 35.8281 53.9856 35.5725C54.0439 35.4452 54.0977 35.3638 54.1635 35.1888C54.2692 34.9075 54.1793 34.9931 54.3128 34.7272C54.7408 33.1186 55.0077 31.9832 53.9671 30.8758C53.7184 30.6111 53.5578 30.4606 53.4021 30.3149C52.9658 29.788 51.7582 29.9111 50.8967 29.1484C49.8511 28.2226 50.2508 28.8527 49.7242 28.4339L48.5309 27.5639C47.7603 26.9547 47.1438 25.6206 47.0389 24.5353C46.9293 23.3999 47.1672 22.6795 47.5371 21.7767C47.9094 20.8679 48.1826 20.0623 49.6966 20.0129C51.28 19.9614 53.2861 21.2021 54.9475 21.7556C55.9065 22.0749 56.6362 22.4299 57.5291 22.9292C59.8024 23.6545 63.7927 22.6624 65.0504 18.7015C65.2016 18.2249 65.3558 17.8157 65.5074 17.4094Z" fill="#3EA089"/>
<mask id="mask0_1414_3042" style="mask-type:luminance" maskUnits="userSpaceOnUse" x="21" y="0" width="46" height="46">
<path d="M43.7345 0.50293L43.7917 0.503455H43.5874L43.7345 0.50293ZM43.9602 0.505034C52.7177 0.591158 60.2751 5.68779 63.9047 13.0658C63.8161 13.8587 63.7028 14.9969 63.9626 16.1815C64.2419 17.456 63.673 18.8325 62.8109 19.8007C62.0454 20.6602 61.7221 21.3027 60.2274 21.8236C59.9205 21.9307 59.5094 21.9977 59.2099 22.0105C56.7591 22.1154 54.8088 19.8731 54.2828 19.6553L52.5139 19.1999C51.4542 18.9279 51.7803 18.9156 51.2662 18.7123C50.0225 18.2209 49.1096 18.1903 47.8522 19.0986C46.5596 20.0328 46.7167 20.4945 46.3056 21.4466C46.1344 21.8433 45.8969 21.7522 45.7866 22.2136C45.6208 22.9075 45.2668 23.4871 45.0386 24.1546C44.9299 24.4725 44.802 24.923 44.8467 25.3654C44.9703 26.592 45.9328 27.7327 46.9805 28.2136C48.6194 28.9661 50.8785 30.8333 51.1933 30.9945C52.081 31.4492 52.1885 31.5832 52.9043 32.0255C53.1095 32.1524 53.0516 32.0638 53.2568 32.3229C54.2251 33.5459 53.686 33.8727 53.5185 34.6659C53.4646 34.9209 53.4574 34.8743 53.3505 35.1206C53.1754 35.5241 53.2418 35.6633 53.0636 36.0448C52.9975 36.1865 52.8991 36.315 52.7941 36.4668L52.2296 37.2962C52.1618 37.388 52.0232 37.6181 51.9489 37.7236C51.5544 38.2827 50.7391 38.6142 50.1345 39.1818C49.8223 39.4747 49.63 39.6397 49.272 39.9065C49.0498 40.0722 48.394 40.715 48.5983 40.7578C48.6923 40.9574 47.9991 41.5015 47.8999 41.9686C47.4746 43.9701 48.4616 43.178 48.2606 44.2936C48.2015 44.622 48.2216 44.6779 48.0243 45.0263C46.6355 45.2949 45.2017 45.4372 43.7345 45.4372C43.327 45.4372 42.922 45.4263 42.5198 45.4048V13.4671H43.9602V12.0267V10.5862V9.14588V7.70548V6.26515V4.82467V3.38426V1.94394V0.505034ZM41.0793 13.4671V45.2818C40.5943 45.2247 40.114 45.1521 39.6391 45.0645V13.4671H41.0793ZM38.1986 13.4671V44.7495C37.7119 44.6261 37.2317 44.4868 36.7583 44.3322V13.4671H38.1986ZM35.3179 13.4671V43.8064C34.8289 43.6087 34.3485 43.3943 33.8774 43.1638V13.4671H35.3179ZM32.4371 13.4671V42.3931C25.7573 38.4994 21.2673 31.2595 21.2673 22.9702C21.2673 19.5733 22.0219 16.3529 23.3718 13.4671H32.4371ZM65.5074 17.4094C65.9602 19.1879 66.2016 21.0508 66.2016 22.9702C66.2016 33.3348 59.1823 42.0589 49.6386 44.6515C49.7078 44.4713 49.7523 44.328 49.7597 44.2487C49.9727 41.9972 48.4473 42.2317 51.9549 39.2446C52.9058 38.4349 53.4167 37.0566 53.8248 35.9073C53.9428 35.5747 53.7423 35.8281 53.9856 35.5725C54.0439 35.4452 54.0977 35.3638 54.1635 35.1888C54.2692 34.9075 54.1793 34.9931 54.3128 34.7272C54.7408 33.1186 55.0077 31.9832 53.9671 30.8758C53.7184 30.6111 53.5578 30.4606 53.4021 30.3149C52.9658 29.788 51.7582 29.9111 50.8967 29.1484C49.8511 28.2226 50.2508 28.8527 49.7242 28.4339L48.5309 27.5639C47.7603 26.9547 47.1438 25.6206 47.0389 24.5353C46.9293 23.3999 47.1672 22.6795 47.5371 21.7767C47.9094 20.8679 48.1826 20.0623 49.6966 20.0129C51.28 19.9614 53.2861 21.2021 54.9475 21.7556C55.9065 22.0749 56.6362 22.4299 57.5291 22.9292C59.8024 23.6545 63.7927 22.6624 65.0504 18.7015C65.2016 18.2249 65.3558 17.8157 65.5074 17.4094Z" fill="white"/>
</mask>
<g mask="url(#mask0_1414_3042)">
<path d="M30.9968 13.4213L30.9968 49.4819L32.4372 49.4819L32.4372 13.4213L30.9968 13.4213Z" fill="#025462"/>
<path d="M33.8777 13.4213L33.8777 48.0415L35.3181 48.0415L35.3181 13.4213L33.8777 13.4213Z" fill="#025462"/>
<path d="M36.7583 13.4209L36.7583 55.6074L38.1987 55.6074L38.1987 13.4209L36.7583 13.4209Z" fill="#025462"/>
<path d="M39.6389 13.4213L39.6389 48.0415L41.0793 48.0415L41.0793 13.4213L39.6389 13.4213Z" fill="#025462"/>
<path d="M42.5198 13.4213L42.5198 49.4819L43.9602 49.4819L43.9602 13.4213L42.5198 13.4213Z" fill="#025462"/>
</g>
<path fill-rule="evenodd" clip-rule="evenodd" d="M16.4929 0.503418H43.9603V1.94382H16.4929V0.503418Z" fill="#025462"/>
<path fill-rule="evenodd" clip-rule="evenodd" d="M7.88428 3.38428H43.9602V4.82468H7.88428V3.38428Z" fill="#025462"/>
<path fill-rule="evenodd" clip-rule="evenodd" d="M0 6.26514H43.9602V7.70554H0V6.26514Z" fill="#025462"/>
<path fill-rule="evenodd" clip-rule="evenodd" d="M7.88428 9.146H43.9602V10.5864H7.88428V9.146Z" fill="#025462"/>
<path fill-rule="evenodd" clip-rule="evenodd" d="M16.4929 12.0269H43.9603V13.4673H16.4929V12.0269Z" fill="#025462"/>
</svg>
